999
"DXF R12 Output" (www.mydxf.blogspot.com)
 0 
SECTION
 2 
HEADER
 9 
$ACADVER
 1 
AC1009
 9 
$EXTMIN
 10 
 0 
 20 
 0 
 9 
$EXTMAX
 10 
 8.5 
 20 
 11 
 0 
ENDSEC
 0 
SECTION
 2 
ENTITIES
0
LINE
8
Layer 1
10
2.876580
20
20.487200
11
1.844707
21
20.661830
0
LINE
8
Layer 1
10
1.844707
20
20.661830
11
0.971590
21
21.249202
0
LINE
8
Layer 1
10
0.971590
20
21.249202
11
0.357750
21
22.122350
0
LINE
8
Layer 1
10
0.357750
20
22.122350
11
0.124916
21
23.154200
0
LINE
8
Layer 1
10
26.329100
20
21.757200
11
27.599100
21
22.730900
0
LINE
8
Layer 1
10
2.876480
20
20.487200
11
23.323480
21
20.444875
0
LINE
8
Layer 1
10
27.599100
20
22.730900
11
32.509760
21
26.540890
0
LINE
8
Layer 1
10
32.509800
20
26.540900
11
33.271802
21
26.752564
0
LINE
8
Layer 1
10
26.329100
20
21.757200
11
24.921516
21
20.910544
0
LINE
8
Layer 1
10
24.921516
20
20.910544
11
23.323430
21
20.444880
0
LINE
8
Layer 1
10
210.691000
20
20.444900
11
209.860380
21
20.555613
0
LINE
8
Layer 1
10
209.860380
20
20.555613
11
209.074260
21
20.837291
0
LINE
8
Layer 1
10
209.074260
20
20.837291
11
207.642980
21
21.757220
0
LINE
8
Layer 1
10
177.671000
20
25.609600
11
177.753021
21
26.032269
0
LINE
8
Layer 1
10
177.753021
20
26.032269
11
177.977916
21
26.387470
0
LINE
8
Layer 1
10
177.977916
20
26.387470
11
178.313936
21
26.639483
0
LINE
8
Layer 1
10
178.313936
20
26.639483
11
178.729330
21
26.752590
0
LINE
8
Layer 1
10
210.648000
20
20.444900
11
231.094900
21
20.487225
0
LINE
8
Layer 1
10
201.420000
20
26.540900
11
207.642970
21
21.757230
0
LINE
8
Layer 1
10
233.847000
20
23.154200
11
233.607556
21
22.112406
0
LINE
8
Layer 1
10
233.607556
20
22.112406
11
233.010929
21
21.265078
0
LINE
8
Layer 1
10
233.010929
20
21.265078
11
232.144422
21
20.695560
0
LINE
8
Layer 1
10
232.144422
20
20.695560
11
231.095340
21
20.487200
0
LINE
8
Layer 1
10
178.729000
20
26.752500
11
200.658000
21
26.752500
0
LINE
8
Layer 1
10
200.658000
20
26.752500
11
201.419999
21
26.540836
0
LINE
8
Layer 1
10
211.749000
20
91.564800
11
117.176000
21
91.564800
0
LINE
8
Layer 1
10
117.176000
20
91.564800
11
22.222800
21
91.564800
0
LINE
8
Layer 1
10
97.195000
20
0.124917
11
122.129000
21
0.124917
0
LINE
8
Layer 1
10
56.301100
20
25.609600
11
56.258756
21
8.252900
0
LINE
8
Layer 1
10
55.242700
20
26.752500
11
55.658094
21
26.639395
0
LINE
8
Layer 1
10
55.658094
20
26.639395
11
55.994114
21
26.387383
0
LINE
8
Layer 1
10
55.994114
20
26.387383
11
56.219009
21
26.032182
0
LINE
8
Layer 1
10
56.219009
20
26.032182
11
56.301030
21
25.609510
0
LINE
8
Layer 1
10
33.271800
20
26.752500
11
55.242700
21
26.752500
0
LINE
8
Layer 1
10
93.215700
20
3.892580
11
97.195000
21
0.124917
0
LINE
8
Layer 1
10
57.063100
20
7.321560
11
93.215700
21
3.892570
0
LINE
8
Layer 1
10
57.063100
20
7.321560
11
56.486309
21
7.628475
0
LINE
8
Layer 1
10
56.486309
20
7.628475
11
56.258757
21
8.252897
0
LINE
8
Layer 1
10
0.167149
20
80.431100
11
0.124816
21
23.154200
0
LINE
8
Layer 1
10
19.386500
20
90.887500
11
2.283810
21
83.521500
0
LINE
8
Layer 1
10
19.595200
20
90.975000
11
19.386500
21
90.887500
0
LINE
8
Layer 1
10
0.167149
20
80.431100
11
0.337143
21
81.408070
0
LINE
8
Layer 1
10
0.337143
20
81.408070
11
0.765105
21
82.277885
0
LINE
8
Layer 1
10
0.765105
20
82.277885
11
1.423254
21
82.996890
0
LINE
8
Layer 1
10
1.423254
20
82.996890
11
2.283809
21
83.521430
0
LINE
8
Layer 1
10
19.580300
20
90.967600
11
20.869813
21
91.409052
0
LINE
8
Layer 1
10
20.869813
20
91.409052
11
22.222820
21
91.564753
0
LINE
8
Layer 1
10
233.847000
20
23.111900
11
233.805000
21
80.431100
0
LINE
8
Layer 1
10
211.749000
20
91.564800
11
213.214794
21
91.400760
0
LINE
8
Layer 1
10
213.214794
20
91.400760
11
214.585360
21
90.887468
0
LINE
8
Layer 1
10
231.688000
20
83.521500
11
232.500942
21
82.973153
0
LINE
8
Layer 1
10
232.500942
20
82.973153
11
233.143215
21
82.246210
0
LINE
8
Layer 1
10
233.143215
20
82.246210
11
233.587045
21
81.384330
0
LINE
8
Layer 1
10
233.587045
20
81.384330
11
233.804660
21
80.431170
0
LINE
8
Layer 1
10
231.688000
20
83.521500
11
214.585000
21
90.887500
0
LINE
8
Layer 1
10
140.756000
20
3.892580
11
176.909000
21
7.321560
0
LINE
8
Layer 1
10
177.713000
20
8.252900
11
177.670667
21
25.609600
0
LINE
8
Layer 1
10
177.713000
20
8.252900
11
177.469584
21
7.660236
0
LINE
8
Layer 1
10
177.469584
20
7.660236
11
176.908668
21
7.321563
0
LINE
8
Layer 1
10
122.129000
20
0.124917
11
136.777000
21
0.124917
0
LINE
8
Layer 1
10
136.777000
20
0.124917
11
140.756340
21
3.892577
0
LINE
8
Layer 1
10
18.600500
20
86.295000
11
18.981206
21
86.219304
0
LINE
8
Layer 1
10
18.981206
20
86.219304
11
19.292034
21
86.011340
0
LINE
8
Layer 1
10
19.292034
20
86.011340
11
19.501722
21
85.702043
0
LINE
8
Layer 1
10
19.501722
20
85.702043
11
19.579010
21
85.322350
0
LINE
8
Layer 1
10
19.579010
20
85.322350
11
19.503425
21
84.942337
0
LINE
8
Layer 1
10
19.503425
20
84.942337
11
19.295646
21
84.632579
0
LINE
8
Layer 1
10
19.295646
20
84.632579
11
18.986387
21
84.423566
0
LINE
8
Layer 1
10
18.986387
20
84.423566
11
18.606360
21
84.345790
0
LINE
8
Layer 1
10
18.606360
20
84.345790
11
18.225817
21
84.421438
0
LINE
8
Layer 1
10
18.225817
20
84.421438
11
17.914967
21
84.629323
0
LINE
8
Layer 1
10
17.914967
20
84.629323
11
17.705184
21
84.938603
0
LINE
8
Layer 1
10
17.705184
20
84.938603
11
17.627840
21
85.318440
0
LINE
8
Layer 1
10
17.627840
20
85.318440
11
17.703467
21
85.698592
0
LINE
8
Layer 1
10
17.703467
20
85.698592
11
17.911317
21
86.008335
0
LINE
8
Layer 1
10
17.911317
20
86.008335
11
18.220594
21
86.217270
0
LINE
8
Layer 1
10
18.220594
20
86.217270
11
18.600500
21
86.295000
0
LINE
8
Layer 1
10
18.600500
20
86.295000
11
18.600500
21
86.295000
0
LINE
8
Layer 1
10
26.855500
20
28.679300
11
27.236206
21
28.603603
0
LINE
8
Layer 1
10
27.236206
20
28.603603
11
27.547034
21
28.395635
0
LINE
8
Layer 1
10
27.547034
20
28.395635
11
27.756722
21
28.086335
0
LINE
8
Layer 1
10
27.756722
20
28.086335
11
27.834010
21
27.706640
0
LINE
8
Layer 1
10
27.834010
20
27.706640
11
27.758424
21
27.326627
0
LINE
8
Layer 1
10
27.758424
20
27.326627
11
27.550642
21
27.016869
0
LINE
8
Layer 1
10
27.550642
20
27.016869
11
27.241382
21
26.807856
0
LINE
8
Layer 1
10
27.241382
20
26.807856
11
26.861360
21
26.730080
0
LINE
8
Layer 1
10
26.861360
20
26.730080
11
26.480813
21
26.805728
0
LINE
8
Layer 1
10
26.480813
20
26.805728
11
26.169964
21
27.013613
0
LINE
8
Layer 1
10
26.169964
20
27.013613
11
25.960183
21
27.322893
0
LINE
8
Layer 1
10
25.960183
20
27.322893
11
25.882840
21
27.702730
0
LINE
8
Layer 1
10
25.882840
20
27.702730
11
25.958467
21
28.082883
0
LINE
8
Layer 1
10
25.958467
20
28.082883
11
26.166317
21
28.392626
0
LINE
8
Layer 1
10
26.166317
20
28.392626
11
26.475594
21
28.601564
0
LINE
8
Layer 1
10
26.475594
20
28.601564
11
26.855500
21
28.679300
0
LINE
8
Layer 1
10
26.855500
20
28.679300
11
26.855500
21
28.679300
0
LINE
8
Layer 1
10
78.417500
20
12.296300
11
78.798206
21
12.220603
0
LINE
8
Layer 1
10
78.798206
20
12.220603
11
79.109034
21
12.012635
0
LINE
8
Layer 1
10
79.109034
20
12.012635
11
79.318722
21
11.703335
0
LINE
8
Layer 1
10
79.318722
20
11.703335
11
79.396010
21
11.323640
0
LINE
8
Layer 1
10
79.396010
20
11.323640
11
79.320425
21
10.943627
0
LINE
8
Layer 1
10
79.320425
20
10.943627
11
79.112646
21
10.633869
0
LINE
8
Layer 1
10
79.112646
20
10.633869
11
78.803387
21
10.424856
0
LINE
8
Layer 1
10
78.803387
20
10.424856
11
78.423360
21
10.347080
0
LINE
8
Layer 1
10
78.423360
20
10.347080
11
78.042817
21
10.422728
0
LINE
8
Layer 1
10
78.042817
20
10.422728
11
77.731967
21
10.630613
0
LINE
8
Layer 1
10
77.731967
20
10.630613
11
77.522184
21
10.939893
0
LINE
8
Layer 1
10
77.522184
20
10.939893
11
77.444840
21
11.319730
0
LINE
8
Layer 1
10
77.444840
20
11.319730
11
77.520467
21
11.699883
0
LINE
8
Layer 1
10
77.520467
20
11.699883
11
77.728317
21
12.009626
0
LINE
8
Layer 1
10
77.728317
20
12.009626
11
78.037594
21
12.218564
0
LINE
8
Layer 1
10
78.037594
20
12.218564
11
78.417500
21
12.296300
0
LINE
8
Layer 1
10
78.417500
20
12.296300
11
78.417500
21
12.296300
0
LINE
8
Layer 1
10
155.549000
20
12.338700
11
155.929706
21
12.263002
0
LINE
8
Layer 1
10
155.929706
20
12.263002
11
156.240534
21
12.055035
0
LINE
8
Layer 1
10
156.240534
20
12.055035
11
156.450222
21
11.745735
0
LINE
8
Layer 1
10
156.450222
20
11.745735
11
156.527510
21
11.366040
0
LINE
8
Layer 1
10
156.527510
20
11.366040
11
156.451925
21
10.986027
0
LINE
8
Layer 1
10
156.451925
20
10.986027
11
156.244146
21
10.676269
0
LINE
8
Layer 1
10
156.244146
20
10.676269
11
155.934887
21
10.467256
0
LINE
8
Layer 1
10
155.934887
20
10.467256
11
155.554860
21
10.389480
0
LINE
8
Layer 1
10
155.554860
20
10.389480
11
155.174317
21
10.465128
0
LINE
8
Layer 1
10
155.174317
20
10.465128
11
154.863468
21
10.673013
0
LINE
8
Layer 1
10
154.863468
20
10.673013
11
154.653684
21
10.982293
0
LINE
8
Layer 1
10
154.653684
20
10.982293
11
154.576340
21
11.362130
0
LINE
8
Layer 1
10
154.576340
20
11.362130
11
154.651967
21
11.742283
0
LINE
8
Layer 1
10
154.651967
20
11.742283
11
154.859818
21
12.052026
0
LINE
8
Layer 1
10
154.859818
20
12.052026
11
155.169094
21
12.260964
0
LINE
8
Layer 1
10
155.169094
20
12.260964
11
155.549000
21
12.338700
0
LINE
8
Layer 1
10
155.549000
20
12.338700
11
155.549000
21
12.338700
0
LINE
8
Layer 1
10
207.026000
20
28.721700
11
207.406708
21
28.646003
0
LINE
8
Layer 1
10
207.406708
20
28.646003
11
207.717540
21
28.438035
0
LINE
8
Layer 1
10
207.717540
20
28.438035
11
207.927235
21
28.128735
0
LINE
8
Layer 1
10
207.927235
20
28.128735
11
208.004530
21
27.749040
0
LINE
8
Layer 1
10
208.004530
20
27.749040
11
207.928522
21
27.369027
0
LINE
8
Layer 1
10
207.928522
20
27.369027
11
207.720786
21
27.059269
0
LINE
8
Layer 1
10
207.720786
20
27.059269
11
207.411758
21
26.850256
0
LINE
8
Layer 1
10
207.411758
20
26.850256
11
207.031870
21
26.772480
0
LINE
8
Layer 1
10
207.031870
20
26.772480
11
206.651327
21
26.848128
0
LINE
8
Layer 1
10
206.651327
20
26.848128
11
206.340479
21
27.056012
0
LINE
8
Layer 1
10
206.340479
20
27.056012
11
206.130699
21
27.365293
0
LINE
8
Layer 1
10
206.130699
20
27.365293
11
206.053360
21
27.745130
0
LINE
8
Layer 1
10
206.053360
20
27.745130
11
206.129406
21
28.125283
0
LINE
8
Layer 1
10
206.129406
20
28.125283
11
206.337203
21
28.435026
0
LINE
8
Layer 1
10
206.337203
20
28.435026
11
206.646238
21
28.643964
0
LINE
8
Layer 1
10
206.646238
20
28.643964
11
207.026000
21
28.721700
0
LINE
8
Layer 1
10
207.026000
20
28.721700
11
207.026000
21
28.721700
0
LINE
8
Layer 1
10
215.281000
20
86.337300
11
215.661707
21
86.261602
0
LINE
8
Layer 1
10
215.661707
20
86.261602
11
215.972536
21
86.053635
0
LINE
8
Layer 1
10
215.972536
20
86.053635
11
216.182222
21
85.744335
0
LINE
8
Layer 1
10
216.182222
20
85.744335
11
216.259500
21
85.364640
0
LINE
8
Layer 1
10
216.259500
20
85.364640
11
216.183496
21
84.984627
0
LINE
8
Layer 1
10
216.183496
20
84.984627
11
215.975771
21
84.674869
0
LINE
8
Layer 1
10
215.975771
20
84.674869
11
215.666753
21
84.465856
0
LINE
8
Layer 1
10
215.666753
20
84.465856
11
215.286870
21
84.388080
0
LINE
8
Layer 1
10
215.286870
20
84.388080
11
214.906327
21
84.463728
0
LINE
8
Layer 1
10
214.906327
20
84.463728
11
214.595476
21
84.671612
0
LINE
8
Layer 1
10
214.595476
20
84.671612
11
214.385690
21
84.980893
0
LINE
8
Layer 1
10
214.385690
20
84.980893
11
214.308340
21
85.360730
0
LINE
8
Layer 1
10
214.308340
20
85.360730
11
214.384389
21
85.740883
0
LINE
8
Layer 1
10
214.384389
20
85.740883
11
214.592192
21
86.050626
0
LINE
8
Layer 1
10
214.592192
20
86.050626
11
214.901235
21
86.259564
0
LINE
8
Layer 1
10
214.901235
20
86.259564
11
215.281000
21
86.337300
0
LINE
8
Layer 1
10
215.281000
20
86.337300
11
215.281000
21
86.337300
0
LINE
8
Layer 1
10
129.387000
20
84.940600
11
129.767706
21
84.864927
0
LINE
8
Layer 1
10
129.767706
20
84.864927
11
130.078533
21
84.656958
0
LINE
8
Layer 1
10
130.078533
20
84.656958
11
130.288221
21
84.347645
0
LINE
8
Layer 1
10
130.288221
20
84.347645
11
130.365510
21
83.967943
0
LINE
8
Layer 1
10
130.365510
20
83.967943
11
130.289950
21
83.587930
0
LINE
8
Layer 1
10
130.289950
20
83.587930
11
130.082168
21
83.278173
0
LINE
8
Layer 1
10
130.082168
20
83.278173
11
129.772895
21
83.069160
0
LINE
8
Layer 1
10
129.772895
20
83.069160
11
129.392861
21
82.991383
0
LINE
8
Layer 1
10
129.392861
20
82.991383
11
129.012318
21
83.067007
0
LINE
8
Layer 1
10
129.012318
20
83.067007
11
128.701469
21
83.274894
0
LINE
8
Layer 1
10
128.701469
20
83.274894
11
128.491687
21
83.584188
0
LINE
8
Layer 1
10
128.491687
20
83.584188
11
128.414343
21
83.964032
0
LINE
8
Layer 1
10
128.414343
20
83.964032
11
128.489945
21
84.344184
0
LINE
8
Layer 1
10
128.489945
20
84.344184
11
128.697798
21
84.653927
0
LINE
8
Layer 1
10
128.697798
20
84.653927
11
129.007087
21
84.862865
0
LINE
8
Layer 1
10
129.007087
20
84.862865
11
129.387000
21
84.940600
0
LINE
8
Layer 1
10
129.387000
20
84.940600
11
129.387000
21
84.940600
0
LINE
8
Layer 1
10
104.410000
20
84.940600
11
104.790706
21
84.864927
0
LINE
8
Layer 1
10
104.790706
20
84.864927
11
105.101533
21
84.656958
0
LINE
8
Layer 1
10
105.101533
20
84.656958
11
105.311221
21
84.347645
0
LINE
8
Layer 1
10
105.311221
20
84.347645
11
105.388510
21
83.967943
0
LINE
8
Layer 1
10
105.388510
20
83.967943
11
105.312950
21
83.587930
0
LINE
8
Layer 1
10
105.312950
20
83.587930
11
105.105168
21
83.278173
0
LINE
8
Layer 1
10
105.105168
20
83.278173
11
104.795895
21
83.069160
0
LINE
8
Layer 1
10
104.795895
20
83.069160
11
104.415861
21
82.991383
0
LINE
8
Layer 1
10
104.415861
20
82.991383
11
104.035319
21
83.067007
0
LINE
8
Layer 1
10
104.035319
20
83.067007
11
103.724470
21
83.274894
0
LINE
8
Layer 1
10
103.724470
20
83.274894
11
103.514687
21
83.584188
0
LINE
8
Layer 1
10
103.514687
20
83.584188
11
103.437343
21
83.964032
0
LINE
8
Layer 1
10
103.437343
20
83.964032
11
103.512945
21
84.344184
0
LINE
8
Layer 1
10
103.512945
20
84.344184
11
103.720798
21
84.653927
0
LINE
8
Layer 1
10
103.720798
20
84.653927
11
104.030087
21
84.862865
0
LINE
8
Layer 1
10
104.030087
20
84.862865
11
104.410000
21
84.940600
0
LINE
8
Layer 1
10
104.410000
20
84.940600
11
104.410000
21
84.940600
 0 
ENDSEC
 0 
EOF