<?xml version="1.0" encoding="UTF-8" standalone="no"?>
<!-- Created with Inkscape (http://www.inkscape.org/) -->

<svg
   width="233.97234mm"
   height="91.689995mm"
   viewBox="0 0 233.97234 91.689995"
   version="1.1"
   id="svg174597"
   style="background-color:white"
   inkscape:version="1.2.2 (732a01da63, 2022-12-09)"
   sodipodi:docname="bottom-plate.svg"
   xmlns:inkscape="http://www.inkscape.org/namespaces/inkscape"
   xmlns:sodipodi="http://sodipodi.sourceforge.net/DTD/sodipodi-0.dtd"
   xmlns="http://www.w3.org/2000/svg"
   xmlns:svg="http://www.w3.org/2000/svg">
  <sodipodi:namedview
     id="namedview174599"
     pagecolor="#505050"
     bordercolor="#eeeeee"
     borderopacity="1"
     inkscape:showpageshadow="0"
     inkscape:pageopacity="0"
     inkscape:pagecheckerboard="0"
     inkscape:deskcolor="#505050"
     inkscape:document-units="mm"
     showgrid="false"
     inkscape:zoom="0.4204826"
     inkscape:cx="1054.7404"
     inkscape:cy="112.96543"
     inkscape:window-width="1920"
     inkscape:window-height="991"
     inkscape:window-x="-9"
     inkscape:window-y="-9"
     inkscape:window-maximized="1"
     inkscape:current-layer="layer1" />
  <defs
     id="defs174594" />
  <g
     inkscape:label="Katman 1"
     inkscape:groupmode="layer"
     id="layer1"
     transform="translate(606.04325,92.408548)">
    <g
       id="g1848"
       transform="translate(-510.45115,-296.99999)">
      <g
         id="g16"
         transform="matrix(0.26458333,0,0,0.26458333,-188.60043,101.67711)"
         style="fill:none;stroke:#070202;stroke-width:0.944882;stroke-dasharray:none;stroke-opacity:1">
        <path
           d="m 362.39999,658.08002 c -2.72,0.15997 -5.27999,-0.96002 -7.19998,-2.88001 C 353.28,653.44 352,650.56 352,648"
           style="fill:none;stroke:#070202;stroke-width:0.944882;stroke-linecap:round;stroke-linejoin:round;stroke-miterlimit:10;stroke-dasharray:none;stroke-opacity:1"
           id="path18"
           sodipodi:nodetypes="ccc" />
      </g>
      <g
         id="g20"
         transform="matrix(0.26458333,0,0,0.26458333,-188.60043,101.67711)"
         style="fill:none;stroke:#070202;stroke-width:0.944882;stroke-dasharray:none;stroke-opacity:1">
        <path
           d="M 451.04001,653.28003 455.84,649.59998"
           style="fill:none;stroke:#070202;stroke-width:0.944882;stroke-linecap:round;stroke-linejoin:round;stroke-miterlimit:10;stroke-dasharray:none;stroke-opacity:1"
           id="path22" />
      </g>
      <g
         id="g24"
         transform="matrix(0.26458333,0,0,0.26458333,-188.60043,101.67711)"
         style="fill:none;stroke:#070202;stroke-width:0.944882;stroke-dasharray:none;stroke-opacity:1">
        <path
           d="m 362.39999,658.08002 77.28,0.15997"
           style="fill:none;stroke:#070202;stroke-width:0.944882;stroke-linecap:round;stroke-linejoin:round;stroke-miterlimit:10;stroke-dasharray:none;stroke-opacity:1"
           id="path26" />
      </g>
      <g
         id="g28"
         transform="matrix(0.26458333,0,0,0.26458333,-188.60043,101.67711)"
         style="fill:none;stroke:#070202;stroke-width:0.944882;stroke-dasharray:none;stroke-opacity:1">
        <path
           d="m 455.84,649.59998 18.55999,-14.39997"
           style="fill:none;stroke:#070202;stroke-width:0.944882;stroke-linecap:round;stroke-linejoin:round;stroke-miterlimit:10;stroke-dasharray:none;stroke-opacity:1"
           id="path30" />
      </g>
      <g
         id="g32"
         transform="matrix(0.26458333,0,0,0.26458333,-188.60043,101.67711)"
         style="fill:none;stroke:#070202;stroke-width:0.944882;stroke-dasharray:none;stroke-opacity:1">
        <path
           d="m 474.39999,635.20001 c 0.61811,-0.45116 1.83034,-0.83372 2.88001,-0.79999"
           style="fill:none;stroke:#070202;stroke-width:0.944882;stroke-linecap:round;stroke-linejoin:round;stroke-miterlimit:10;stroke-dasharray:none;stroke-opacity:1"
           id="path34"
           sodipodi:nodetypes="cc" />
      </g>
      <g
         id="g36"
         transform="matrix(0.26458333,0,0,0.26458333,-188.60043,101.67711)"
         style="fill:none;stroke:#070202;stroke-width:0.944882;stroke-dasharray:none;stroke-opacity:1">
        <path
           d="m 451.04001,653.28003 c -3.20001,2.55999 -7.20002,4.31994 -11.36002,4.95996"
           style="fill:none;stroke:#070202;stroke-width:0.944882;stroke-linecap:round;stroke-linejoin:round;stroke-miterlimit:10;stroke-dasharray:none;stroke-opacity:1"
           id="path38"
           sodipodi:nodetypes="cc" />
      </g>
      <g
         id="g40"
         transform="matrix(0.26458333,0,0,0.26458333,-188.60043,101.67711)"
         style="fill:none;stroke:#070202;stroke-width:0.944882;stroke-dasharray:none;stroke-opacity:1">
        <path
           d="m 1147.84,658.23999 c -4.2948,-0.0615 -8.1599,-2.23999 -11.5201,-4.95996"
           style="fill:none;stroke:#070202;stroke-width:0.944882;stroke-linecap:round;stroke-linejoin:round;stroke-miterlimit:10;stroke-dasharray:none;stroke-opacity:1"
           id="path42"
           sodipodi:nodetypes="cc" />
      </g>
      <g
         id="g44"
         transform="matrix(0.26458333,0,0,0.26458333,-188.60043,101.67711)"
         style="fill:none;stroke:#070202;stroke-width:0.944882;stroke-dasharray:none;stroke-opacity:1">
        <path
           d="m 1023.04,638.71997 c 0,-2.23999 1.76,-4.15997 4,-4.31995"
           style="fill:none;stroke:#070202;stroke-width:0.944882;stroke-linecap:round;stroke-linejoin:round;stroke-miterlimit:10;stroke-dasharray:none;stroke-opacity:1"
           id="path46"
           sodipodi:nodetypes="cc" />
      </g>
      <g
         id="g48"
         transform="matrix(0.26458333,0,0,0.26458333,-188.60043,101.67711)"
         style="fill:none;stroke:#070202;stroke-width:0.944882;stroke-dasharray:none;stroke-opacity:1">
        <path
           d="m 1147.6801,658.23999 77.2799,-0.15997"
           style="fill:none;stroke:#070202;stroke-width:0.944882;stroke-linecap:round;stroke-linejoin:round;stroke-miterlimit:10;stroke-dasharray:none;stroke-opacity:1"
           id="path50" />
      </g>
      <g
         id="g52"
         transform="matrix(0.26458333,0,0,0.26458333,-188.60043,101.67711)"
         style="fill:none;stroke:#070202;stroke-width:0.944882;stroke-dasharray:none;stroke-opacity:1">
        <path
           d="m 1112.8,635.20001 23.5199,18.08002"
           style="fill:none;stroke:#070202;stroke-width:0.944882;stroke-linecap:round;stroke-linejoin:round;stroke-miterlimit:10;stroke-dasharray:none;stroke-opacity:1"
           id="path54" />
      </g>
      <g
         id="g56"
         transform="matrix(0.26458333,0,0,0.26458333,-188.60043,101.67711)"
         style="fill:none;stroke:#070202;stroke-width:0.944882;stroke-dasharray:none;stroke-opacity:1">
        <path
           d="m 1235.36,648 c -0.16,5.59998 -4.7999,10.08002 -10.4,10.08002"
           style="fill:none;stroke:#070202;stroke-width:0.944882;stroke-linecap:round;stroke-linejoin:round;stroke-miterlimit:10;stroke-dasharray:none;stroke-opacity:1"
           id="path58" />
      </g>
      <g
         id="g60"
         transform="matrix(0.26458333,0,0,0.26458333,-188.60043,101.67711)"
         style="fill:none;stroke:#070202;stroke-width:0.944882;stroke-dasharray:none;stroke-opacity:1">
        <path
           d="m 1027.04,634.40002 h 82.88"
           style="fill:none;stroke:#070202;stroke-width:0.944882;stroke-linecap:round;stroke-linejoin:round;stroke-miterlimit:10;stroke-dasharray:none;stroke-opacity:1"
           id="path62" />
      </g>
      <g
         id="g64"
         transform="matrix(0.26458333,0,0,0.26458333,-188.60043,101.67711)"
         style="fill:none;stroke:#070202;stroke-width:0.944882;stroke-dasharray:none;stroke-opacity:1">
        <path
           d="m 1109.92,634.40002 c 1.0756,-0.0699 1.998,0.19523 2.88,0.79999"
           style="fill:none;stroke:#070202;stroke-width:0.944882;stroke-linecap:round;stroke-linejoin:round;stroke-miterlimit:10;stroke-dasharray:none;stroke-opacity:1"
           id="path66"
           sodipodi:nodetypes="cc" />
      </g>
      <g
         id="g76"
         transform="matrix(0.26458333,0,0,0.26458333,-188.60043,101.67711)"
         style="fill:none;stroke:#070202;stroke-width:0.944882;stroke-dasharray:none;stroke-opacity:1">
        <path
           d="M 1151.84,389.44 H 794.40002 435.51999"
           style="fill:none;stroke:#070202;stroke-width:0.944882;stroke-linecap:round;stroke-linejoin:round;stroke-miterlimit:10;stroke-dasharray:none;stroke-opacity:1"
           id="path78"
           sodipodi:nodetypes="ccc" />
      </g>
      <g
         id="g92"
         transform="matrix(0.26458333,0,0,0.26458333,-188.60043,101.67711)"
         style="fill:none;stroke:#070202;stroke-width:0.944882;stroke-dasharray:none;stroke-opacity:1">
        <path
           d="m 718.88,735.03998 h 94.24"
           style="fill:none;stroke:#070202;stroke-width:0.944882;stroke-linecap:round;stroke-linejoin:round;stroke-miterlimit:10;stroke-dasharray:none;stroke-opacity:1"
           id="path94" />
      </g>
      <g
         id="g96"
         transform="matrix(0.26458333,0,0,0.26458333,-188.60043,101.67711)"
         style="fill:none;stroke:#070202;stroke-width:0.944882;stroke-dasharray:none;stroke-opacity:1">
        <path
           d="m 564.32001,638.71997 -0.16004,65.60004"
           style="fill:none;stroke:#070202;stroke-width:0.944882;stroke-linecap:round;stroke-linejoin:round;stroke-miterlimit:10;stroke-dasharray:none;stroke-opacity:1"
           id="path98" />
      </g>
      <g
         id="g100"
         transform="matrix(0.26458333,0,0,0.26458333,-188.60043,101.67711)"
         style="fill:none;stroke:#070202;stroke-width:0.944882;stroke-dasharray:none;stroke-opacity:1">
        <path
           d="m 560.32001,634.40002 c 2.23999,0.15998 4,2.07996 4,4.31995"
           style="fill:none;stroke:#070202;stroke-width:0.944882;stroke-linecap:round;stroke-linejoin:round;stroke-miterlimit:10;stroke-dasharray:none;stroke-opacity:1"
           id="path102" />
      </g>
      <g
         id="g104"
         transform="matrix(0.26458333,0,0,0.26458333,-188.60043,101.67711)"
         style="fill:none;stroke:#070202;stroke-width:0.944882;stroke-dasharray:none;stroke-opacity:1">
        <path
           d="m 477.28,634.40002 h 83.04001"
           style="fill:none;stroke:#070202;stroke-width:0.944882;stroke-linecap:round;stroke-linejoin:round;stroke-miterlimit:10;stroke-dasharray:none;stroke-opacity:1"
           id="path106" />
      </g>
      <g
         id="g108"
         transform="matrix(0.26458333,0,0,0.26458333,-188.60043,101.67711)"
         style="fill:none;stroke:#070202;stroke-width:0.944882;stroke-dasharray:none;stroke-opacity:1">
        <path
           d="M 703.84003,720.79999 718.88,735.03998"
           style="fill:none;stroke:#070202;stroke-width:0.944882;stroke-linecap:round;stroke-linejoin:round;stroke-miterlimit:10;stroke-dasharray:none;stroke-opacity:1"
           id="path110" />
      </g>
      <g
         id="g112"
         transform="matrix(0.26458333,0,0,0.26458333,-188.60043,101.67711)"
         style="fill:none;stroke:#070202;stroke-width:0.944882;stroke-dasharray:none;stroke-opacity:1">
        <path
           d="m 567.20001,707.84003 136.64002,12.95996"
           style="fill:none;stroke:#070202;stroke-width:0.944882;stroke-linecap:round;stroke-linejoin:round;stroke-miterlimit:10;stroke-dasharray:none;stroke-opacity:1"
           id="path114" />
      </g>
      <g
         id="g120"
         transform="matrix(0.26458333,0,0,0.26458333,-188.60043,101.67711)"
         style="fill:none;stroke:#070202;stroke-width:0.944882;stroke-dasharray:none;stroke-opacity:1">
        <path
           d="m 567.20001,707.84003 c -1.75995,-0.15997 -3.04004,-1.76001 -3.04004,-3.52002"
           style="fill:none;stroke:#070202;stroke-width:0.944882;stroke-linecap:round;stroke-linejoin:round;stroke-miterlimit:10;stroke-dasharray:none;stroke-opacity:1"
           id="path122"
           sodipodi:nodetypes="cc" />
      </g>
      <g
         id="g124"
         transform="matrix(0.26458333,0,0,0.26458333,-188.60043,101.67711)"
         style="fill:none;stroke:#070202;stroke-width:0.944882;stroke-dasharray:none;stroke-opacity:1">
        <path
           d="M 352.16,431.51999 352,648"
           style="fill:none;stroke:#070202;stroke-width:0.944882;stroke-linecap:round;stroke-linejoin:round;stroke-miterlimit:10;stroke-dasharray:none;stroke-opacity:1"
           id="path126" />
      </g>
      <g
         id="g128"
         transform="matrix(0.26458333,0,0,0.26458333,-188.60043,101.67711)"
         style="fill:none;stroke:#070202;stroke-width:0.944882;stroke-dasharray:none;stroke-opacity:1">
        <path
           d="M 424.79999,392 360.16,419.84"
           style="fill:none;stroke:#070202;stroke-width:0.944882;stroke-linecap:round;stroke-linejoin:round;stroke-miterlimit:10;stroke-dasharray:none;stroke-opacity:1"
           id="path130" />
      </g>
      <g
         id="g132"
         transform="matrix(0.26458333,0,0,0.26458333,-188.60043,101.67711)"
         style="fill:none;stroke:#070202;stroke-width:0.944882;stroke-dasharray:none;stroke-opacity:1">
        <path
           d="M 425.58896,391.66915 424.79999,392"
           style="fill:none;stroke:#070202;stroke-width:0.944882;stroke-linecap:round;stroke-linejoin:round;stroke-miterlimit:10;stroke-dasharray:none;stroke-opacity:1"
           id="path134"
           sodipodi:nodetypes="cc" />
      </g>
      <g
         id="g136"
         transform="matrix(0.26458333,0,0,0.26458333,-188.60043,101.67711)"
         style="fill:none;stroke:#070202;stroke-width:0.944882;stroke-dasharray:none;stroke-opacity:1">
        <path
           d="m 352.16,431.51999 c 0.16,-5.12 3.19999,-9.59997 8,-11.67999"
           style="fill:none;stroke:#070202;stroke-width:0.944882;stroke-linecap:round;stroke-linejoin:round;stroke-miterlimit:10;stroke-dasharray:none;stroke-opacity:1"
           id="path138"
           sodipodi:nodetypes="cc" />
      </g>
      <g
         id="g140"
         transform="matrix(0.26458333,0,0,0.26458333,-188.60043,101.67711)"
         style="fill:none;stroke:#070202;stroke-width:0.944882;stroke-dasharray:none;stroke-opacity:1">
        <path
           d="m 425.53249,391.69696 c 3.04,-1.44 6.62751,-2.25696 9.9875,-2.25696"
           style="fill:none;stroke:#070202;stroke-width:0.944882;stroke-linecap:round;stroke-linejoin:round;stroke-miterlimit:10;stroke-dasharray:none;stroke-opacity:1"
           id="path142"
           sodipodi:nodetypes="cc" />
      </g>
      <g
         id="g144"
         transform="matrix(0.26458333,0,0,0.26458333,-188.60043,101.67711)"
         style="fill:none;stroke:#070202;stroke-width:0.944882;stroke-dasharray:none;stroke-opacity:1">
        <path
           d="M 1235.36,648.15997 1235.2,431.51999"
           style="fill:none;stroke:#070202;stroke-width:0.944882;stroke-linecap:round;stroke-linejoin:round;stroke-miterlimit:10;stroke-dasharray:none;stroke-opacity:1"
           id="path146" />
      </g>
      <g
         id="g148"
         transform="matrix(0.26458333,0,0,0.26458333,-188.60043,101.67711)"
         style="fill:none;stroke:#070202;stroke-width:0.944882;stroke-dasharray:none;stroke-opacity:1">
        <path
           d="m 1151.84,389.44 c 3.8399,0 7.3601,0.79999 10.7201,2.56"
           style="fill:none;stroke:#070202;stroke-width:0.944882;stroke-linecap:round;stroke-linejoin:round;stroke-miterlimit:10;stroke-dasharray:none;stroke-opacity:1"
           id="path150"
           sodipodi:nodetypes="cc" />
      </g>
      <g
         id="g152"
         transform="matrix(0.26458333,0,0,0.26458333,-188.60043,101.67711)"
         style="fill:none;stroke:#070202;stroke-width:0.944882;stroke-dasharray:none;stroke-opacity:1">
        <path
           d="m 1227.2,419.84 c 4.4801,2.23999 7.52,6.72 8,11.67999"
           style="fill:none;stroke:#070202;stroke-width:0.944882;stroke-linecap:round;stroke-linejoin:round;stroke-miterlimit:10;stroke-dasharray:none;stroke-opacity:1"
           id="path154" />
      </g>
      <g
         id="g156"
         transform="matrix(0.26458333,0,0,0.26458333,-188.60043,101.67711)"
         style="fill:none;stroke:#070202;stroke-width:0.944882;stroke-dasharray:none;stroke-opacity:1">
        <path
           d="M 1227.2,419.84 1162.5601,392"
           style="fill:none;stroke:#070202;stroke-width:0.944882;stroke-linecap:round;stroke-linejoin:round;stroke-miterlimit:10;stroke-dasharray:none;stroke-opacity:1"
           id="path158" />
      </g>
      <g
         id="g160"
         transform="matrix(0.26458333,0,0,0.26458333,-188.60043,101.67711)"
         style="fill:none;stroke:#070202;stroke-width:0.944882;stroke-dasharray:none;stroke-opacity:1">
        <path
           d="M 883.52002,720.79999 1020.16,707.84003"
           style="fill:none;stroke:#070202;stroke-width:0.944882;stroke-linecap:round;stroke-linejoin:round;stroke-miterlimit:10;stroke-dasharray:none;stroke-opacity:1"
           id="path162" />
      </g>
      <g
         id="g164"
         transform="matrix(0.26458333,0,0,0.26458333,-188.60043,101.67711)"
         style="fill:none;stroke:#070202;stroke-width:0.944882;stroke-dasharray:none;stroke-opacity:1">
        <path
           d="m 1023.2,704.32001 -0.16,-65.60004"
           style="fill:none;stroke:#070202;stroke-width:0.944882;stroke-linecap:round;stroke-linejoin:round;stroke-miterlimit:10;stroke-dasharray:none;stroke-opacity:1"
           id="path166" />
      </g>
      <g
         id="g168"
         transform="matrix(0.26458333,0,0,0.26458333,-188.60043,101.67711)"
         style="fill:none;stroke:#070202;stroke-width:0.944882;stroke-dasharray:none;stroke-opacity:1">
        <path
           d="m 1023.2,704.32001 c -0.16,1.59997 -1.28,3.20001 -3.04,3.52002"
           style="fill:none;stroke:#070202;stroke-width:0.944882;stroke-linecap:round;stroke-linejoin:round;stroke-miterlimit:10;stroke-dasharray:none;stroke-opacity:1"
           id="path170"
           sodipodi:nodetypes="cc" />
      </g>
      <g
         id="g172"
         transform="matrix(0.26458333,0,0,0.26458333,-188.60043,101.67711)"
         style="fill:none;stroke:#070202;stroke-width:0.944882;stroke-dasharray:none;stroke-opacity:1">
        <path
           d="m 813.12,735.03998 h 55.35998"
           style="fill:none;stroke:#070202;stroke-width:0.944882;stroke-linecap:round;stroke-linejoin:round;stroke-miterlimit:10;stroke-dasharray:none;stroke-opacity:1"
           id="path174" />
      </g>
      <g
         id="g176"
         transform="matrix(0.26458333,0,0,0.26458333,-188.60043,101.67711)"
         style="fill:none;stroke:#070202;stroke-width:0.944882;stroke-dasharray:none;stroke-opacity:1">
        <path
           d="m 868.47998,735.03998 15.04004,-14.23999"
           style="fill:none;stroke:#070202;stroke-width:0.944882;stroke-linecap:round;stroke-linejoin:round;stroke-miterlimit:10;stroke-dasharray:none;stroke-opacity:1"
           id="path178" />
      </g>
      <path
         style="color:#000000;fill:none;stroke:#070202;stroke-width:0.25;stroke-miterlimit:10;stroke-dasharray:none;stroke-opacity:1"
         d="m -76.99153,209.98601 c 0.5403,-0.001 0.97762,0.43321 0.97851,0.97265 10e-4,0.53997 -0.43242,0.9739 -0.97265,0.97656 -0.53991,0.001 -0.97763,-0.43287 -0.97852,-0.97265 -0.001,-0.5403 0.43272,-0.9739 0.97266,-0.97656 z"
         id="path63698-0-2-7-6-4-5"
         sodipodi:nodetypes="ccccc" />
      <path
         style="color:#000000;fill:none;stroke:#070202;stroke-width:0.25;stroke-miterlimit:10;stroke-dasharray:none;stroke-opacity:1"
         d="m -68.73652,267.60167 c 0.5403,-0.001 0.97762,0.43322 0.97851,0.97266 0.001,0.53997 -0.43243,0.9739 -0.97265,0.97656 -0.53992,0.001 -0.97763,-0.43287 -0.97852,-0.97265 -10e-4,-0.5403 0.43272,-0.9739 0.97266,-0.97657 z"
         id="path63698-0-2-7-6-4-5-8"
         sodipodi:nodetypes="ccccc" />
      <path
         style="color:#000000;fill:none;stroke:#070202;stroke-width:0.25;stroke-miterlimit:10;stroke-dasharray:none;stroke-opacity:1"
         d="m -17.17453,283.98467 c 0.5403,-10e-4 0.97762,0.43322 0.97851,0.97266 0.001,0.53997 -0.43242,0.9739 -0.97265,0.97656 -0.53991,10e-4 -0.97763,-0.43287 -0.97852,-0.97265 -0.001,-0.5403 0.43272,-0.9739 0.97266,-0.97657 z"
         id="path63698-0-2-7-6-4-5-4"
         sodipodi:nodetypes="ccccc" />
      <path
         style="color:#000000;fill:none;stroke:#070202;stroke-width:0.25;stroke-miterlimit:10;stroke-dasharray:none;stroke-opacity:1"
         d="m 59.95681,283.94234 c 0.5403,-10e-4 0.97762,0.43322 0.97851,0.97266 0.001,0.53997 -0.43242,0.9739 -0.97265,0.97656 -0.53991,10e-4 -0.97763,-0.43287 -0.97852,-0.97265 -10e-4,-0.5403 0.43272,-0.9739 0.97266,-0.97657 z"
         id="path63698-0-2-7-6-4-5-6"
         sodipodi:nodetypes="ccccc" />
      <path
         style="color:#000000;fill:none;stroke:#070202;stroke-width:0.25;stroke-miterlimit:10;stroke-dasharray:none;stroke-opacity:1"
         d="m 111.43413,267.55933 c 0.5403,-10e-4 0.97763,0.43322 0.97853,0.97266 0,0.53997 -0.43243,0.9739 -0.97266,0.97656 -0.53991,10e-4 -0.97763,-0.43287 -0.97851,-0.97265 0,-0.5403 0.4327,-0.9739 0.97264,-0.97657 z"
         id="path63698-0-2-7-6-4-5-0"
         sodipodi:nodetypes="ccccc" />
      <path
         style="color:#000000;fill:none;stroke:#070202;stroke-width:0.25;stroke-miterlimit:10;stroke-dasharray:none;stroke-opacity:1"
         d="m 119.68913,209.94367 c 0.5403,-0.001 0.97763,0.43322 0.9785,0.97266 0,0.53997 -0.4324,0.9739 -0.97263,0.97656 -0.53991,0.001 -0.97763,-0.43287 -0.97853,-0.97265 0,-0.5403 0.43272,-0.9739 0.97266,-0.97657 z"
         id="path63698-0-2-7-6-4-5-5"
         sodipodi:nodetypes="ccccc" />
      <g
         id="g17926"
         transform="matrix(0.26458333,0,0,0.26458333,-188.60043,101.67711)"
         style="fill:none;stroke:#070202;stroke-width:0.944882;stroke-dasharray:none;stroke-opacity:1">
        <path
           style="color:#000000;fill:none;stroke:#070202;stroke-width:0.944882;stroke-miterlimit:10;stroke-dasharray:none;stroke-opacity:1"
           d="m 840.54896,414.47643 c 2.04208,-0.004 3.69494,1.63736 3.69831,3.67619 0.004,2.04083 -1.63435,3.68088 -3.67616,3.69094 -2.04061,0.004 -3.69498,-1.63605 -3.69834,-3.67616 -0.004,-2.04208 1.63547,-3.68088 3.67619,-3.69097 z"
           id="path63698-0-2-7-6-4-5-89"
           sodipodi:nodetypes="ccccc" />
        <path
           style="color:#000000;fill:none;stroke:#070202;stroke-width:0.944882;stroke-miterlimit:10;stroke-dasharray:none;stroke-opacity:1"
           d="m 746.14893,414.47643 c 2.04208,-0.004 3.69494,1.63736 3.69831,3.67619 0.004,2.04083 -1.63435,3.68088 -3.67616,3.69094 -2.0406,0.004 -3.69498,-1.63605 -3.69834,-3.67616 -0.004,-2.04208 1.63547,-3.68088 3.67619,-3.69097 z"
           id="path63698-0-2-7-6-4-5-9"
           sodipodi:nodetypes="ccccc" />
      </g>
    </g>
  </g>
</svg>
