999
"DXF R12 Output" (www.mydxf.blogspot.com)
 0 
SECTION
 2 
HEADER
 9 
$ACADVER
 1 
AC1009
 9 
$EXTMIN
 10 
 0 
 20 
 0 
 9 
$EXTMAX
 10 
 8.5 
 20 
 11 
 0 
ENDSEC
 0 
SECTION
 2 
ENTITIES
0
LINE
8
Layer 1
10
131.890000
20
83.966100
11
131.699699
21
83.009391
0
LINE
8
Layer 1
10
131.699699
20
83.009391
11
131.157767
21
82.198333
0
LINE
8
Layer 1
10
131.157767
20
82.198333
11
130.346709
21
81.656401
0
LINE
8
Layer 1
10
130.346709
20
81.656401
11
129.390000
21
81.466100
0
LINE
8
Layer 1
10
129.390000
20
81.466100
11
128.433291
21
81.656401
0
LINE
8
Layer 1
10
128.433291
20
81.656401
11
127.622233
21
82.198333
0
LINE
8
Layer 1
10
127.622233
20
82.198333
11
127.080301
21
83.009391
0
LINE
8
Layer 1
10
127.080301
20
83.009391
11
126.890000
21
83.966100
0
LINE
8
Layer 1
10
126.890000
20
83.966100
11
127.080301
21
84.922809
0
LINE
8
Layer 1
10
127.080301
20
84.922809
11
127.622233
21
85.733867
0
LINE
8
Layer 1
10
127.622233
20
85.733867
11
128.433291
21
86.275799
0
LINE
8
Layer 1
10
128.433291
20
86.275799
11
129.390000
21
86.466100
0
LINE
8
Layer 1
10
129.390000
20
86.466100
11
130.346709
21
86.275799
0
LINE
8
Layer 1
10
130.346709
20
86.275799
11
131.157767
21
85.733867
0
LINE
8
Layer 1
10
131.157767
20
85.733867
11
131.699699
21
84.922809
0
LINE
8
Layer 1
10
131.699699
20
84.922809
11
131.890000
21
83.966100
0
LINE
8
Layer 1
10
131.890000
20
83.966100
11
131.890000
21
83.966100
0
LINE
8
Layer 1
10
21.103500
20
85.320800
11
20.907038
21
84.347687
0
LINE
8
Layer 1
10
20.907038
20
84.347687
11
20.371267
21
83.553033
0
LINE
8
Layer 1
10
20.371267
20
83.553033
11
19.576613
21
83.017262
0
LINE
8
Layer 1
10
19.576613
20
83.017262
11
18.603500
21
82.820800
0
LINE
8
Layer 1
10
18.603500
20
82.820800
11
17.646791
21
83.011101
0
LINE
8
Layer 1
10
17.646791
20
83.011101
11
16.835733
21
83.553033
0
LINE
8
Layer 1
10
16.835733
20
83.553033
11
16.293801
21
84.364091
0
LINE
8
Layer 1
10
16.293801
20
84.364091
11
16.103500
21
85.320800
0
LINE
8
Layer 1
10
16.103500
20
85.320800
11
16.293801
21
86.277509
0
LINE
8
Layer 1
10
16.293801
20
86.277509
11
16.835733
21
87.088567
0
LINE
8
Layer 1
10
16.835733
20
87.088567
11
17.646791
21
87.630499
0
LINE
8
Layer 1
10
17.646791
20
87.630499
11
18.603500
21
87.820800
0
LINE
8
Layer 1
10
18.603500
20
87.820800
11
19.576613
21
87.624338
0
LINE
8
Layer 1
10
19.576613
20
87.624338
11
20.371267
21
87.088567
0
LINE
8
Layer 1
10
20.371267
20
87.088567
11
20.907038
21
86.293913
0
LINE
8
Layer 1
10
20.907038
20
86.293913
11
21.103500
21
85.320800
0
LINE
8
Layer 1
10
21.103500
20
85.320800
11
21.103500
21
85.320800
0
LINE
8
Layer 1
10
2.876480
20
20.487200
11
1.844606
21
20.661830
0
LINE
8
Layer 1
10
1.844606
20
20.661830
11
0.971490
21
21.249202
0
LINE
8
Layer 1
10
0.971490
20
21.249202
11
0.378817
21
22.101200
0
LINE
8
Layer 1
10
0.378817
20
22.101200
11
0.167149
21
23.111900
0
LINE
8
Layer 1
10
26.329100
20
21.757200
11
27.599100
21
22.730900
0
LINE
8
Layer 1
10
2.876480
20
20.487200
11
23.323480
21
20.444875
0
LINE
8
Layer 1
10
27.599100
20
22.730900
11
32.509760
21
26.540890
0
LINE
8
Layer 1
10
32.467400
20
26.583200
11
33.229400
21
26.752500
0
LINE
8
Layer 1
10
26.286800
20
21.799600
11
24.879216
21
20.952934
0
LINE
8
Layer 1
10
24.879216
20
20.952934
11
23.281130
21
20.487260
0
LINE
8
Layer 1
10
210.691000
20
20.444900
11
209.071759
21
20.894690
0
LINE
8
Layer 1
10
209.071759
20
20.894690
11
207.642980
21
21.757220
0
LINE
8
Layer 1
10
177.671000
20
25.651900
11
177.753021
21
26.067955
0
LINE
8
Layer 1
10
177.753021
20
26.067955
11
177.977916
21
26.408605
0
LINE
8
Layer 1
10
177.977916
20
26.408605
11
178.313936
21
26.646067
0
LINE
8
Layer 1
10
178.313936
20
26.646067
11
178.729330
21
26.752560
0
LINE
8
Layer 1
10
210.648000
20
20.444900
11
231.094900
21
20.487225
0
LINE
8
Layer 1
10
201.420000
20
26.540900
11
207.642970
21
21.757230
0
LINE
8
Layer 1
10
233.847000
20
23.154200
11
233.607556
21
22.112406
0
LINE
8
Layer 1
10
233.607556
20
22.112406
11
233.010929
21
21.265078
0
LINE
8
Layer 1
10
233.010929
20
21.265078
11
232.144422
21
20.695560
0
LINE
8
Layer 1
10
232.144422
20
20.695560
11
231.095340
21
20.487200
0
LINE
8
Layer 1
10
178.729000
20
26.752500
11
200.658000
21
26.752500
0
LINE
8
Layer 1
10
200.615000
20
26.752500
11
201.419332
21
26.583177
0
LINE
8
Layer 1
10
211.749000
20
91.564800
11
121.791000
21
91.564800
0
LINE
8
Layer 1
10
121.791000
20
91.564800
11
112.562000
21
91.564800
0
LINE
8
Layer 1
10
112.562000
20
91.564800
11
22.222800
21
91.564800
0
LINE
8
Layer 1
10
97.195000
20
0.124917
11
122.129000
21
0.124917
0
LINE
8
Layer 1
10
56.301100
20
25.609600
11
56.258756
21
8.252900
0
LINE
8
Layer 1
10
55.242700
20
26.752500
11
55.658094
21
26.639395
0
LINE
8
Layer 1
10
55.658094
20
26.639395
11
55.994114
21
26.387383
0
LINE
8
Layer 1
10
55.994114
20
26.387383
11
56.219009
21
26.032182
0
LINE
8
Layer 1
10
56.219009
20
26.032182
11
56.301030
21
25.609510
0
LINE
8
Layer 1
10
33.271800
20
26.752500
11
55.242700
21
26.752500
0
LINE
8
Layer 1
10
93.215700
20
3.892580
11
97.195000
21
0.124917
0
LINE
8
Layer 1
10
57.063100
20
7.321560
11
93.215700
21
3.892570
0
LINE
8
Layer 1
10
57.020700
20
7.363910
11
56.443950
21
7.670819
0
LINE
8
Layer 1
10
56.443950
20
7.670819
11
56.216400
21
8.295240
0
LINE
8
Layer 1
10
0.167149
20
80.431100
11
0.124816
21
23.154200
0
LINE
8
Layer 1
10
19.386500
20
90.887500
11
2.283810
21
83.521500
0
LINE
8
Layer 1
10
19.598100
20
91.014500
11
19.386500
21
90.887500
0
LINE
8
Layer 1
10
0.124816
20
80.431100
11
0.301425
21
81.414684
0
LINE
8
Layer 1
10
0.301425
20
81.414684
11
0.743939
21
82.299050
0
LINE
8
Layer 1
10
0.743939
20
82.299050
11
1.416642
21
83.032606
0
LINE
8
Layer 1
10
1.416642
20
83.032606
11
2.283816
21
83.563760
0
LINE
8
Layer 1
10
19.598100
20
90.972100
11
20.878679
21
91.411306
0
LINE
8
Layer 1
10
20.878679
20
91.411306
11
22.222760
21
91.564763
0
LINE
8
Layer 1
10
233.847000
20
23.111900
11
233.805000
21
80.431100
0
LINE
8
Layer 1
10
211.707000
20
91.607100
11
213.172764
21
91.443060
0
LINE
8
Layer 1
10
213.172764
20
91.443060
11
214.543300
21
90.929768
0
LINE
8
Layer 1
10
231.688000
20
83.521500
11
232.500942
21
82.973153
0
LINE
8
Layer 1
10
232.500942
20
82.973153
11
233.143215
21
82.246210
0
LINE
8
Layer 1
10
233.143215
20
82.246210
11
233.587045
21
81.384330
0
LINE
8
Layer 1
10
233.587045
20
81.384330
11
233.804660
21
80.431170
0
LINE
8
Layer 1
10
231.688000
20
83.521500
11
214.585000
21
90.887500
0
LINE
8
Layer 1
10
140.756000
20
3.892580
11
176.909000
21
7.321560
0
LINE
8
Layer 1
10
177.713000
20
8.252900
11
177.670667
21
25.609600
0
LINE
8
Layer 1
10
177.713000
20
8.252900
11
177.448417
21
7.681407
0
LINE
8
Layer 1
10
177.448417
20
7.681407
11
176.866334
21
7.363906
0
LINE
8
Layer 1
10
122.129000
20
0.124917
11
136.777000
21
0.124917
0
LINE
8
Layer 1
10
136.777000
20
0.124917
11
140.756340
21
3.892577
0
LINE
8
Layer 1
10
61.157600
20
86.313400
11
61.157600
21
71.797400
0
LINE
8
Layer 1
10
61.157600
20
71.797400
11
75.176400
21
71.797400
0
LINE
8
Layer 1
10
75.176400
20
71.797400
11
75.176400
21
69.893200
0
LINE
8
Layer 1
10
75.176400
20
69.893200
11
75.176400
21
67.989400
0
LINE
8
Layer 1
10
75.176400
20
67.989400
11
75.176400
21
67.263400
0
LINE
8
Layer 1
10
75.176400
20
67.263400
11
61.157600
21
67.263400
0
LINE
8
Layer 1
10
61.157600
20
67.263400
11
61.157600
21
52.747400
0
LINE
8
Layer 1
10
61.157600
20
52.747400
11
77.776300
21
52.747400
0
LINE
8
Layer 1
10
77.776300
20
52.747400
11
77.776300
21
64.633500
0
LINE
8
Layer 1
10
77.776300
20
64.633500
11
80.207600
21
64.633500
0
LINE
8
Layer 1
10
80.207600
20
64.633500
11
80.207600
21
52.747400
0
LINE
8
Layer 1
10
80.207600
20
52.747400
11
96.826300
21
52.747400
0
LINE
8
Layer 1
10
96.826300
20
52.747400
11
96.826300
21
67.263400
0
LINE
8
Layer 1
10
96.826300
20
67.263400
11
82.934600
21
67.263400
0
LINE
8
Layer 1
10
82.934600
20
67.263400
11
82.934600
21
67.989400
0
LINE
8
Layer 1
10
82.934600
20
67.989400
11
82.934600
21
69.893200
0
LINE
8
Layer 1
10
82.934600
20
69.893200
11
82.934600
21
71.797400
0
LINE
8
Layer 1
10
82.934600
20
71.797400
11
96.826300
21
71.797400
0
LINE
8
Layer 1
10
96.826300
20
71.797400
11
96.826300
21
86.313400
0
LINE
8
Layer 1
10
96.826300
20
86.313400
11
80.207600
21
86.313400
0
LINE
8
Layer 1
10
80.207600
20
86.313400
11
80.207600
21
74.246400
0
LINE
8
Layer 1
10
80.207600
20
74.246400
11
77.776300
21
74.246400
0
LINE
8
Layer 1
10
77.776300
20
74.246400
11
77.776300
21
86.313400
0
LINE
8
Layer 1
10
77.776300
20
86.313400
11
61.157600
21
86.313400
0
LINE
8
Layer 1
10
61.157600
20
48.213400
11
61.157600
21
33.697400
0
LINE
8
Layer 1
10
61.157600
20
33.697400
11
75.006900
21
33.697400
0
LINE
8
Layer 1
10
75.006900
20
33.697400
11
75.006900
21
30.566900
0
LINE
8
Layer 1
10
75.006900
20
30.566900
11
82.765600
21
30.566900
0
LINE
8
Layer 1
10
82.765600
20
30.566900
11
82.765600
21
33.697400
0
LINE
8
Layer 1
10
82.765600
20
33.697400
11
96.826300
21
33.697400
0
LINE
8
Layer 1
10
96.826300
20
33.697400
11
96.826300
21
48.213400
0
LINE
8
Layer 1
10
96.826300
20
48.213400
11
80.207600
21
48.213400
0
LINE
8
Layer 1
10
80.207600
20
48.213400
11
80.207600
21
36.823900
0
LINE
8
Layer 1
10
80.207600
20
36.823900
11
77.776300
21
36.823900
0
LINE
8
Layer 1
10
77.776300
20
36.823900
11
77.776300
21
48.213400
0
LINE
8
Layer 1
10
77.776300
20
48.213400
11
61.157600
21
48.213400
0
LINE
8
Layer 1
10
42.107800
20
86.313500
11
58.726200
21
86.313500
0
LINE
8
Layer 1
10
58.726200
20
86.313500
11
58.726200
21
71.797400
0
LINE
8
Layer 1
10
58.726200
20
71.797400
11
42.107800
21
71.797400
0
LINE
8
Layer 1
10
42.107800
20
71.797400
11
42.107800
21
86.313500
0
LINE
8
Layer 1
10
42.107800
20
67.263400
11
58.726200
21
67.263400
0
LINE
8
Layer 1
10
58.726200
20
67.263400
11
58.726200
21
52.747300
0
LINE
8
Layer 1
10
58.726200
20
52.747300
11
42.107800
21
52.747300
0
LINE
8
Layer 1
10
42.107800
20
52.747300
11
42.107800
21
67.263400
0
LINE
8
Layer 1
10
42.107800
20
48.213500
11
58.726200
21
48.213500
0
LINE
8
Layer 1
10
58.726200
20
48.213500
11
58.726200
21
33.697400
0
LINE
8
Layer 1
10
58.726200
20
33.697400
11
42.107800
21
33.697400
0
LINE
8
Layer 1
10
42.107800
20
33.697400
11
42.107800
21
48.213500
0
LINE
8
Layer 1
10
106.509000
20
28.996300
11
106.339006
21
28.183369
0
LINE
8
Layer 1
10
106.339006
20
28.183369
11
105.879293
21
27.509345
0
LINE
8
Layer 1
10
105.879293
20
27.509345
11
105.205269
21
27.049634
0
LINE
8
Layer 1
10
105.205269
20
27.049634
11
104.392340
21
26.879640
0
LINE
8
Layer 1
10
104.392340
20
26.879640
11
103.554935
21
27.049634
0
LINE
8
Layer 1
10
103.554935
20
27.049634
11
102.868341
21
27.509347
0
LINE
8
Layer 1
10
102.868341
20
27.509347
11
102.403997
21
28.183371
0
LINE
8
Layer 1
10
102.403997
20
28.183371
11
102.233340
21
28.996300
0
LINE
8
Layer 1
10
102.233340
20
28.996300
11
102.403996
21
29.833705
0
LINE
8
Layer 1
10
102.403996
20
29.833705
11
102.868339
21
30.520299
0
LINE
8
Layer 1
10
102.868339
20
30.520299
11
103.554933
21
30.984643
0
LINE
8
Layer 1
10
103.554933
20
30.984643
11
104.392340
21
31.155300
0
LINE
8
Layer 1
10
104.392340
20
31.155300
11
105.205271
21
30.984644
0
LINE
8
Layer 1
10
105.205271
20
30.984644
11
105.879295
21
30.520301
0
LINE
8
Layer 1
10
105.879295
20
30.520301
11
106.339006
21
29.833707
0
LINE
8
Layer 1
10
106.339006
20
29.833707
11
106.509000
21
28.996300
0
LINE
8
Layer 1
10
106.509000
20
28.996300
11
106.509000
21
28.996300
0
LINE
8
Layer 1
10
106.509000
20
74.504600
11
106.339006
21
73.691669
0
LINE
8
Layer 1
10
106.339006
20
73.691669
11
105.879293
21
73.017645
0
LINE
8
Layer 1
10
105.879293
20
73.017645
11
105.205269
21
72.557934
0
LINE
8
Layer 1
10
105.205269
20
72.557934
11
104.392340
21
72.387940
0
LINE
8
Layer 1
10
104.392340
20
72.387940
11
103.554935
21
72.557934
0
LINE
8
Layer 1
10
103.554935
20
72.557934
11
102.868341
21
73.017647
0
LINE
8
Layer 1
10
102.868341
20
73.017647
11
102.403997
21
73.691671
0
LINE
8
Layer 1
10
102.403997
20
73.691671
11
102.233340
21
74.504600
0
LINE
8
Layer 1
10
102.233340
20
74.504600
11
102.403996
21
75.342005
0
LINE
8
Layer 1
10
102.403996
20
75.342005
11
102.868339
21
76.028599
0
LINE
8
Layer 1
10
102.868339
20
76.028599
11
103.554933
21
76.492943
0
LINE
8
Layer 1
10
103.554933
20
76.492943
11
104.392340
21
76.663600
0
LINE
8
Layer 1
10
104.392340
20
76.663600
11
105.205271
21
76.492944
0
LINE
8
Layer 1
10
105.205271
20
76.492944
11
105.879295
21
76.028601
0
LINE
8
Layer 1
10
105.879295
20
76.028601
11
106.339006
21
75.342007
0
LINE
8
Layer 1
10
106.339006
20
75.342007
11
106.509000
21
74.504600
0
LINE
8
Layer 1
10
106.509000
20
74.504600
11
106.509000
21
74.504600
0
LINE
8
Layer 1
10
131.612000
20
74.546900
11
131.442006
21
73.733969
0
LINE
8
Layer 1
10
131.442006
20
73.733969
11
130.982293
21
73.059945
0
LINE
8
Layer 1
10
130.982293
20
73.059945
11
130.308269
21
72.600234
0
LINE
8
Layer 1
10
130.308269
20
72.600234
11
129.495340
21
72.430240
0
LINE
8
Layer 1
10
129.495340
20
72.430240
11
128.657935
21
72.600234
0
LINE
8
Layer 1
10
128.657935
20
72.600234
11
127.971341
21
73.059947
0
LINE
8
Layer 1
10
127.971341
20
73.059947
11
127.506997
21
73.733971
0
LINE
8
Layer 1
10
127.506997
20
73.733971
11
127.336340
21
74.546900
0
LINE
8
Layer 1
10
127.336340
20
74.546900
11
127.506996
21
75.384305
0
LINE
8
Layer 1
10
127.506996
20
75.384305
11
127.971339
21
76.070899
0
LINE
8
Layer 1
10
127.971339
20
76.070899
11
128.657933
21
76.535243
0
LINE
8
Layer 1
10
128.657933
20
76.535243
11
129.495340
21
76.705900
0
LINE
8
Layer 1
10
129.495340
20
76.705900
11
130.308271
21
76.535244
0
LINE
8
Layer 1
10
130.308271
20
76.535244
11
130.982295
21
76.070901
0
LINE
8
Layer 1
10
130.982295
20
76.070901
11
131.442006
21
75.384307
0
LINE
8
Layer 1
10
131.442006
20
75.384307
11
131.612000
21
74.546900
0
LINE
8
Layer 1
10
131.612000
20
74.546900
11
131.612000
21
74.546900
0
LINE
8
Layer 1
10
131.612000
20
28.996300
11
131.442006
21
28.183369
0
LINE
8
Layer 1
10
131.442006
20
28.183369
11
130.982293
21
27.509345
0
LINE
8
Layer 1
10
130.982293
20
27.509345
11
130.308269
21
27.049634
0
LINE
8
Layer 1
10
130.308269
20
27.049634
11
129.495340
21
26.879640
0
LINE
8
Layer 1
10
129.495340
20
26.879640
11
128.657935
21
27.049634
0
LINE
8
Layer 1
10
128.657935
20
27.049634
11
127.971341
21
27.509347
0
LINE
8
Layer 1
10
127.971341
20
27.509347
11
127.506997
21
28.183371
0
LINE
8
Layer 1
10
127.506997
20
28.183371
11
127.336340
21
28.996300
0
LINE
8
Layer 1
10
127.336340
20
28.996300
11
127.506996
21
29.833705
0
LINE
8
Layer 1
10
127.506996
20
29.833705
11
127.971339
21
30.520299
0
LINE
8
Layer 1
10
127.971339
20
30.520299
11
128.657933
21
30.984643
0
LINE
8
Layer 1
10
128.657933
20
30.984643
11
129.495340
21
31.155300
0
LINE
8
Layer 1
10
129.495340
20
31.155300
11
130.308271
21
30.984644
0
LINE
8
Layer 1
10
130.308271
20
30.984644
11
130.982295
21
30.520301
0
LINE
8
Layer 1
10
130.982295
20
30.520301
11
131.442006
21
29.833707
0
LINE
8
Layer 1
10
131.442006
20
29.833707
11
131.612000
21
28.996300
0
LINE
8
Layer 1
10
131.612000
20
28.996300
11
131.612000
21
28.996300
0
LINE
8
Layer 1
10
113.276000
20
81.993400
11
121.035000
21
81.993400
0
LINE
8
Layer 1
10
121.035000
20
81.993400
11
121.035000
21
75.736500
0
LINE
8
Layer 1
10
121.035000
20
75.736500
11
113.276000
21
75.736500
0
LINE
8
Layer 1
10
113.276000
20
75.736500
11
113.276000
21
81.993400
0
LINE
8
Layer 1
10
137.400000
20
86.313400
11
137.400000
21
71.797400
0
LINE
8
Layer 1
10
137.400000
20
71.797400
11
151.376000
21
71.797400
0
LINE
8
Layer 1
10
151.376000
20
71.797400
11
151.376000
21
69.936100
0
LINE
8
Layer 1
10
151.376000
20
69.936100
11
151.376000
21
68.074200
0
LINE
8
Layer 1
10
151.376000
20
68.074200
11
151.376000
21
67.263400
0
LINE
8
Layer 1
10
151.376000
20
67.263400
11
137.400000
21
67.263400
0
LINE
8
Layer 1
10
137.400000
20
67.263400
11
137.400000
21
52.747400
0
LINE
8
Layer 1
10
137.400000
20
52.747400
11
154.019000
21
52.747400
0
LINE
8
Layer 1
10
154.019000
20
52.747400
11
154.019000
21
63.679600
0
LINE
8
Layer 1
10
154.019000
20
63.679600
11
156.440000
21
63.679600
0
LINE
8
Layer 1
10
156.440000
20
63.679600
11
156.440000
21
52.747400
0
LINE
8
Layer 1
10
156.440000
20
52.747400
11
173.058000
21
52.747400
0
LINE
8
Layer 1
10
173.058000
20
52.747400
11
173.058000
21
67.263400
0
LINE
8
Layer 1
10
173.058000
20
67.263400
11
159.135000
21
67.263400
0
LINE
8
Layer 1
10
159.135000
20
67.263400
11
159.135000
21
68.074200
0
LINE
8
Layer 1
10
159.135000
20
68.074200
11
159.135000
21
69.936000
0
LINE
8
Layer 1
10
159.135000
20
69.936000
11
159.135000
21
71.797400
0
LINE
8
Layer 1
10
159.135000
20
71.797400
11
173.058000
21
71.797400
0
LINE
8
Layer 1
10
173.058000
20
71.797400
11
173.058000
21
86.313400
0
LINE
8
Layer 1
10
173.058000
20
86.313400
11
156.440000
21
86.313400
0
LINE
8
Layer 1
10
156.440000
20
86.313400
11
156.440000
21
74.331100
0
LINE
8
Layer 1
10
156.440000
20
74.331100
11
154.019000
21
74.331100
0
LINE
8
Layer 1
10
154.019000
20
74.331100
11
154.019000
21
86.313400
0
LINE
8
Layer 1
10
154.019000
20
86.313400
11
137.400000
21
86.313400
0
LINE
8
Layer 1
10
194.550000
20
48.213400
11
194.550000
21
33.697400
0
LINE
8
Layer 1
10
194.550000
20
33.697400
11
204.843000
21
33.697400
0
LINE
8
Layer 1
10
204.843000
20
33.697400
11
204.843000
21
30.609300
0
LINE
8
Layer 1
10
204.843000
20
30.609300
11
212.602000
21
30.609300
0
LINE
8
Layer 1
10
212.602000
20
30.609300
11
212.602000
21
36.866200
0
LINE
8
Layer 1
10
212.602000
20
36.866200
11
211.169000
21
36.866200
0
LINE
8
Layer 1
10
211.169000
20
36.866200
11
211.169000
21
48.213400
0
LINE
8
Layer 1
10
211.169000
20
48.213400
11
194.550000
21
48.213400
0
LINE
8
Layer 1
10
23.057600
20
86.313400
11
23.057600
21
74.302200
0
LINE
8
Layer 1
10
23.057600
20
74.302200
11
20.626200
21
74.302200
0
LINE
8
Layer 1
10
20.626200
20
74.302200
11
20.626200
21
79.561300
0
LINE
8
Layer 1
10
20.626200
20
79.561300
11
4.007630
21
79.561300
0
LINE
8
Layer 1
10
4.007630
20
79.561300
11
4.007630
21
65.045400
0
LINE
8
Layer 1
10
4.007630
20
65.045400
11
20.626200
21
65.045400
0
LINE
8
Layer 1
10
20.626200
20
65.045400
11
20.626200
21
68.045200
0
LINE
8
Layer 1
10
20.626200
20
68.045200
11
27.045500
21
68.045200
0
LINE
8
Layer 1
10
27.045500
20
68.045200
11
27.045500
21
71.797400
0
LINE
8
Layer 1
10
27.045500
20
71.797400
11
39.676200
21
71.797400
0
LINE
8
Layer 1
10
39.676200
20
71.797400
11
39.676200
21
86.313400
0
LINE
8
Layer 1
10
39.676200
20
86.313400
11
23.057600
21
86.313400
0
LINE
8
Layer 1
10
4.007790
20
60.511300
11
20.626200
21
60.511300
0
LINE
8
Layer 1
10
20.626200
20
60.511300
11
20.626200
21
45.995200
0
LINE
8
Layer 1
10
20.626200
20
45.995200
11
4.007790
21
45.995200
0
LINE
8
Layer 1
10
4.007790
20
45.995200
11
4.007790
21
60.511300
0
LINE
8
Layer 1
10
23.057600
20
48.213400
11
23.057600
21
36.823900
0
LINE
8
Layer 1
10
23.057600
20
36.823900
11
20.626200
21
36.823900
0
LINE
8
Layer 1
10
20.626200
20
36.823900
11
20.626200
21
41.461300
0
LINE
8
Layer 1
10
20.626200
20
41.461300
11
4.007630
21
41.461300
0
LINE
8
Layer 1
10
4.007630
20
41.461300
11
4.007630
21
26.945400
0
LINE
8
Layer 1
10
4.007630
20
26.945400
11
20.626200
21
26.945400
0
LINE
8
Layer 1
10
20.626200
20
26.945400
11
20.626200
21
30.566900
0
LINE
8
Layer 1
10
20.626200
20
30.566900
11
26.504400
21
30.566900
0
LINE
8
Layer 1
10
26.504400
20
30.566900
11
26.504400
21
33.697400
0
LINE
8
Layer 1
10
26.504400
20
33.697400
11
39.676200
21
33.697400
0
LINE
8
Layer 1
10
39.676200
20
33.697400
11
39.676200
21
48.213400
0
LINE
8
Layer 1
10
39.676200
20
48.213400
11
23.057600
21
48.213400
0
LINE
8
Layer 1
10
23.057800
20
67.263500
11
39.676200
21
67.263500
0
LINE
8
Layer 1
10
39.676200
20
67.263500
11
39.676200
21
52.747400
0
LINE
8
Layer 1
10
39.676200
20
52.747400
11
23.057800
21
52.747400
0
LINE
8
Layer 1
10
23.057800
20
52.747400
11
23.057800
21
67.263500
0
LINE
8
Layer 1
10
137.400000
20
48.213400
11
137.400000
21
33.697400
0
LINE
8
Layer 1
10
137.400000
20
33.697400
11
151.207000
21
33.697400
0
LINE
8
Layer 1
10
151.207000
20
33.697400
11
151.207000
21
30.545700
0
LINE
8
Layer 1
10
151.207000
20
30.545700
11
158.966000
21
30.545700
0
LINE
8
Layer 1
10
158.966000
20
30.545700
11
158.966000
21
33.697400
0
LINE
8
Layer 1
10
158.966000
20
33.697400
11
173.058000
21
33.697400
0
LINE
8
Layer 1
10
173.058000
20
33.697400
11
173.058000
21
48.213400
0
LINE
8
Layer 1
10
173.058000
20
48.213400
11
156.440000
21
48.213400
0
LINE
8
Layer 1
10
156.440000
20
48.213400
11
156.440000
21
36.802700
0
LINE
8
Layer 1
10
156.440000
20
36.802700
11
154.019000
21
36.802700
0
LINE
8
Layer 1
10
154.019000
20
36.802700
11
154.019000
21
48.213400
0
LINE
8
Layer 1
10
154.019000
20
48.213400
11
137.400000
21
48.213400
0
LINE
8
Layer 1
10
175.500000
20
86.313500
11
192.119000
21
86.313500
0
LINE
8
Layer 1
10
192.119000
20
86.313500
11
192.119000
21
71.797400
0
LINE
8
Layer 1
10
192.119000
20
71.797400
11
175.500000
21
71.797400
0
LINE
8
Layer 1
10
175.500000
20
71.797400
11
175.500000
21
86.313500
0
LINE
8
Layer 1
10
175.500000
20
67.263400
11
192.119000
21
67.263400
0
LINE
8
Layer 1
10
192.119000
20
67.263400
11
192.119000
21
52.747300
0
LINE
8
Layer 1
10
192.119000
20
52.747300
11
175.500000
21
52.747300
0
LINE
8
Layer 1
10
175.500000
20
52.747300
11
175.500000
21
67.263400
0
LINE
8
Layer 1
10
175.500000
20
48.213500
11
192.119000
21
48.213500
0
LINE
8
Layer 1
10
192.119000
20
48.213500
11
192.119000
21
33.697400
0
LINE
8
Layer 1
10
192.119000
20
33.697400
11
175.500000
21
33.697400
0
LINE
8
Layer 1
10
175.500000
20
33.697400
11
175.500000
21
48.213500
0
LINE
8
Layer 1
10
194.550000
20
86.313400
11
194.550000
21
71.797400
0
LINE
8
Layer 1
10
194.550000
20
71.797400
11
204.843000
21
71.797400
0
LINE
8
Layer 1
10
204.843000
20
71.797400
11
204.843000
21
67.819900
0
LINE
8
Layer 1
10
204.843000
20
67.819900
11
204.843000
21
67.263400
0
LINE
8
Layer 1
10
204.843000
20
67.263400
11
194.550000
21
67.263400
0
LINE
8
Layer 1
10
194.550000
20
67.263400
11
194.550000
21
52.747400
0
LINE
8
Layer 1
10
194.550000
20
52.747400
11
211.169000
21
52.747400
0
LINE
8
Layer 1
10
211.169000
20
52.747400
11
211.169000
21
64.507500
0
LINE
8
Layer 1
10
211.169000
20
64.507500
11
212.602000
21
64.507500
0
LINE
8
Layer 1
10
212.602000
20
64.507500
11
212.602000
21
69.808400
0
LINE
8
Layer 1
10
212.602000
20
69.808400
11
212.602000
21
74.076900
0
LINE
8
Layer 1
10
212.602000
20
74.076900
11
211.169000
21
74.076900
0
LINE
8
Layer 1
10
211.169000
20
74.076900
11
211.169000
21
86.313400
0
LINE
8
Layer 1
10
211.169000
20
86.313400
11
194.550000
21
86.313400
0
LINE
8
Layer 1
10
213.579000
20
79.539500
11
230.198000
21
79.539500
0
LINE
8
Layer 1
10
230.198000
20
79.539500
11
230.198000
21
65.023400
0
LINE
8
Layer 1
10
230.198000
20
65.023400
11
213.579000
21
65.023400
0
LINE
8
Layer 1
10
213.579000
20
65.023400
11
213.579000
21
79.539500
0
LINE
8
Layer 1
10
213.579000
20
60.490400
11
230.198000
21
60.490400
0
LINE
8
Layer 1
10
230.198000
20
60.490400
11
230.198000
21
45.974300
0
LINE
8
Layer 1
10
230.198000
20
45.974300
11
213.579000
21
45.974300
0
LINE
8
Layer 1
10
213.579000
20
45.974300
11
213.579000
21
60.490400
0
LINE
8
Layer 1
10
213.579000
20
41.440500
11
230.198000
21
41.440500
0
LINE
8
Layer 1
10
230.198000
20
41.440500
11
230.198000
21
26.924400
0
LINE
8
Layer 1
10
230.198000
20
26.924400
11
213.579000
21
26.924400
0
LINE
8
Layer 1
10
213.579000
20
26.924400
11
213.579000
21
41.440500
0
LINE
8
Layer 1
10
61.136600
20
29.184600
11
77.755000
21
29.184600
0
LINE
8
Layer 1
10
77.755000
20
29.184600
11
77.755000
21
14.668500
0
LINE
8
Layer 1
10
77.755000
20
14.668500
11
61.136600
21
14.668500
0
LINE
8
Layer 1
10
61.136600
20
14.668500
11
61.136600
21
29.184600
0
LINE
8
Layer 1
10
80.228800
20
26.877700
11
80.228800
21
13.048100
0
LINE
8
Layer 1
10
80.228800
20
13.048100
11
79.404049
21
13.620453
0
LINE
8
Layer 1
10
79.404049
20
13.620453
11
78.420640
21
13.822220
0
LINE
8
Layer 1
10
78.420640
20
13.822220
11
77.463875
21
13.631937
0
LINE
8
Layer 1
10
77.463875
20
13.631937
11
76.652770
21
13.089983
0
LINE
8
Layer 1
10
76.652770
20
13.089983
11
76.110819
21
12.278875
0
LINE
8
Layer 1
10
76.110819
20
12.278875
11
75.920540
21
11.322110
0
LINE
8
Layer 1
10
75.920540
20
11.322110
11
76.110822
21
10.365348
0
LINE
8
Layer 1
10
76.110822
20
10.365348
11
76.652773
21
9.554243
0
LINE
8
Layer 1
10
76.652773
20
9.554243
11
77.463878
21
9.012292
0
LINE
8
Layer 1
10
77.463878
20
9.012292
11
78.420640
21
8.822010
0
LINE
8
Layer 1
10
78.420640
20
8.822010
11
79.393645
21
9.018601
0
LINE
8
Layer 1
10
79.393645
20
9.018601
11
80.188177
21
9.554423
0
LINE
8
Layer 1
10
80.188177
20
9.554423
11
80.723838
21
10.349064
0
LINE
8
Layer 1
10
80.723838
20
10.349064
11
80.920230
21
11.322110
0
LINE
8
Layer 1
10
80.920230
20
11.322110
11
80.693888
21
12.361320
0
LINE
8
Layer 1
10
80.693888
20
12.361320
11
96.847400
21
12.361300
0
LINE
8
Layer 1
10
96.847400
20
12.361300
11
96.847400
21
26.877700
0
LINE
8
Layer 1
10
96.847400
20
26.877700
11
80.228800
21
26.877700
0
LINE
8
Layer 1
10
99.321200
20
21.797400
11
99.321200
21
7.281480
0
LINE
8
Layer 1
10
99.321200
20
7.281480
11
113.149000
21
7.281480
0
LINE
8
Layer 1
10
113.149000
20
7.281480
11
115.940000
21
7.281480
0
LINE
8
Layer 1
10
115.940000
20
7.281480
11
118.350000
21
7.281480
0
LINE
8
Layer 1
10
118.350000
20
7.281480
11
120.908000
21
7.281480
0
LINE
8
Layer 1
10
120.908000
20
7.281480
11
134.969000
21
7.281480
0
LINE
8
Layer 1
10
134.969000
20
7.281480
11
134.969000
21
21.797400
0
LINE
8
Layer 1
10
134.969000
20
21.797400
11
118.350000
21
21.797400
0
LINE
8
Layer 1
10
118.350000
20
21.797400
11
118.350000
21
13.921400
0
LINE
8
Layer 1
10
118.350000
20
13.921400
11
115.940000
21
13.921400
0
LINE
8
Layer 1
10
115.940000
20
13.921400
11
115.940000
21
21.797400
0
LINE
8
Layer 1
10
115.940000
20
21.797400
11
99.321200
21
21.797400
0
LINE
8
Layer 1
10
137.400000
20
26.877700
11
137.400000
21
12.361300
0
LINE
8
Layer 1
10
137.400000
20
12.361300
11
153.261000
21
12.361300
0
LINE
8
Layer 1
10
153.261000
20
12.361300
11
153.051710
21
11.364470
0
LINE
8
Layer 1
10
153.051710
20
11.364470
11
153.241989
21
10.407705
0
LINE
8
Layer 1
10
153.241989
20
10.407705
11
153.783940
21
9.596597
0
LINE
8
Layer 1
10
153.783940
20
9.596597
11
154.595045
21
9.054643
0
LINE
8
Layer 1
10
154.595045
20
9.054643
11
155.551810
21
8.864360
0
LINE
8
Layer 1
10
155.551810
20
8.864360
11
156.508578
21
9.054640
0
LINE
8
Layer 1
10
156.508578
20
9.054640
11
157.319687
21
9.596593
0
LINE
8
Layer 1
10
157.319687
20
9.596593
11
157.861640
21
10.407702
0
LINE
8
Layer 1
10
157.861640
20
10.407702
11
158.051920
21
11.364470
0
LINE
8
Layer 1
10
158.051920
20
11.364470
11
157.861637
21
12.321235
0
LINE
8
Layer 1
10
157.861637
20
12.321235
11
157.319683
21
13.132340
0
LINE
8
Layer 1
10
157.319683
20
13.132340
11
156.508575
21
13.674291
0
LINE
8
Layer 1
10
156.508575
20
13.674291
11
155.551810
21
13.864570
0
LINE
8
Layer 1
10
155.551810
20
13.864570
11
154.741274
21
13.728764
0
LINE
8
Layer 1
10
154.741274
20
13.728764
11
154.018570
21
13.337470
0
LINE
8
Layer 1
10
154.018570
20
13.337470
11
154.019000
21
26.877700
0
LINE
8
Layer 1
10
154.019000
20
26.877700
11
137.400000
21
26.877700
0
LINE
8
Layer 1
10
156.471000
20
29.184600
11
173.090000
21
29.184600
0
LINE
8
Layer 1
10
173.090000
20
29.184600
11
173.090000
21
14.668500
0
LINE
8
Layer 1
10
173.090000
20
14.668500
11
156.471000
21
14.668500
0
LINE
8
Layer 1
10
156.471000
20
14.668500
11
156.471000
21
29.184600
0
LINE
8
Layer 1
10
29.358500
20
27.705100
11
29.168199
21
26.748391
0
LINE
8
Layer 1
10
29.168199
20
26.748391
11
28.626267
21
25.937333
0
LINE
8
Layer 1
10
28.626267
20
25.937333
11
27.815209
21
25.395401
0
LINE
8
Layer 1
10
27.815209
20
25.395401
11
26.858500
21
25.205100
0
LINE
8
Layer 1
10
26.858500
20
25.205100
11
25.901791
21
25.395401
0
LINE
8
Layer 1
10
25.901791
20
25.395401
11
25.090733
21
25.937333
0
LINE
8
Layer 1
10
25.090733
20
25.937333
11
24.548801
21
26.748391
0
LINE
8
Layer 1
10
24.548801
20
26.748391
11
24.358500
21
27.705100
0
LINE
8
Layer 1
10
24.358500
20
27.705100
11
24.548801
21
28.661809
0
LINE
8
Layer 1
10
24.548801
20
28.661809
11
25.090733
21
29.472867
0
LINE
8
Layer 1
10
25.090733
20
29.472867
11
25.901791
21
30.014799
0
LINE
8
Layer 1
10
25.901791
20
30.014799
11
26.858500
21
30.205100
0
LINE
8
Layer 1
10
26.858500
20
30.205100
11
27.815209
21
30.014799
0
LINE
8
Layer 1
10
27.815209
20
30.014799
11
28.626267
21
29.472867
0
LINE
8
Layer 1
10
28.626267
20
29.472867
11
29.168199
21
28.661809
0
LINE
8
Layer 1
10
29.168199
20
28.661809
11
29.358500
21
27.705100
0
LINE
8
Layer 1
10
29.358500
20
27.705100
11
29.358500
21
27.705100
0
LINE
8
Layer 1
10
209.529000
20
27.747500
11
209.338699
21
26.790791
0
LINE
8
Layer 1
10
209.338699
20
26.790791
11
208.796767
21
25.979733
0
LINE
8
Layer 1
10
208.796767
20
25.979733
11
207.985709
21
25.437801
0
LINE
8
Layer 1
10
207.985709
20
25.437801
11
207.029000
21
25.247500
0
LINE
8
Layer 1
10
207.029000
20
25.247500
11
206.072291
21
25.437801
0
LINE
8
Layer 1
10
206.072291
20
25.437801
11
205.261233
21
25.979733
0
LINE
8
Layer 1
10
205.261233
20
25.979733
11
204.719301
21
26.790791
0
LINE
8
Layer 1
10
204.719301
20
26.790791
11
204.529000
21
27.747500
0
LINE
8
Layer 1
10
204.529000
20
27.747500
11
204.719301
21
28.704209
0
LINE
8
Layer 1
10
204.719301
20
28.704209
11
205.261233
21
29.515267
0
LINE
8
Layer 1
10
205.261233
20
29.515267
11
206.072291
21
30.057199
0
LINE
8
Layer 1
10
206.072291
20
30.057199
11
207.029000
21
30.247500
0
LINE
8
Layer 1
10
207.029000
20
30.247500
11
207.985709
21
30.057199
0
LINE
8
Layer 1
10
207.985709
20
30.057199
11
208.796767
21
29.515267
0
LINE
8
Layer 1
10
208.796767
20
29.515267
11
209.338699
21
28.704209
0
LINE
8
Layer 1
10
209.338699
20
28.704209
11
209.529000
21
27.747500
0
LINE
8
Layer 1
10
209.529000
20
27.747500
11
209.529000
21
27.747500
0
LINE
8
Layer 1
10
217.784000
20
85.363100
11
217.593699
21
84.406391
0
LINE
8
Layer 1
10
217.593699
20
84.406391
11
217.051767
21
83.595333
0
LINE
8
Layer 1
10
217.051767
20
83.595333
11
216.240709
21
83.053401
0
LINE
8
Layer 1
10
216.240709
20
83.053401
11
215.284000
21
82.863100
0
LINE
8
Layer 1
10
215.284000
20
82.863100
11
214.327291
21
83.053401
0
LINE
8
Layer 1
10
214.327291
20
83.053401
11
213.516233
21
83.595333
0
LINE
8
Layer 1
10
213.516233
20
83.595333
11
212.974301
21
84.406391
0
LINE
8
Layer 1
10
212.974301
20
84.406391
11
212.784000
21
85.363100
0
LINE
8
Layer 1
10
212.784000
20
85.363100
11
212.980462
21
86.336213
0
LINE
8
Layer 1
10
212.980462
20
86.336213
11
213.516233
21
87.130867
0
LINE
8
Layer 1
10
213.516233
20
87.130867
11
214.310887
21
87.666638
0
LINE
8
Layer 1
10
214.310887
20
87.666638
11
215.284000
21
87.863100
0
LINE
8
Layer 1
10
215.284000
20
87.863100
11
216.240709
21
87.672799
0
LINE
8
Layer 1
10
216.240709
20
87.672799
11
217.051767
21
87.130867
0
LINE
8
Layer 1
10
217.051767
20
87.130867
11
217.593699
21
86.319809
0
LINE
8
Layer 1
10
217.593699
20
86.319809
11
217.784000
21
85.363100
0
LINE
8
Layer 1
10
217.784000
20
85.363100
11
217.784000
21
85.363100
0
LINE
8
Layer 1
10
106.913000
20
83.966100
11
106.722699
21
83.009391
0
LINE
8
Layer 1
10
106.722699
20
83.009391
11
106.180767
21
82.198333
0
LINE
8
Layer 1
10
106.180767
20
82.198333
11
105.369709
21
81.656401
0
LINE
8
Layer 1
10
105.369709
20
81.656401
11
104.413000
21
81.466100
0
LINE
8
Layer 1
10
104.413000
20
81.466100
11
103.456291
21
81.656401
0
LINE
8
Layer 1
10
103.456291
20
81.656401
11
102.645233
21
82.198333
0
LINE
8
Layer 1
10
102.645233
20
82.198333
11
102.103301
21
83.009391
0
LINE
8
Layer 1
10
102.103301
20
83.009391
11
101.913000
21
83.966100
0
LINE
8
Layer 1
10
101.913000
20
83.966100
11
102.103301
21
84.922809
0
LINE
8
Layer 1
10
102.103301
20
84.922809
11
102.645233
21
85.733867
0
LINE
8
Layer 1
10
102.645233
20
85.733867
11
103.456291
21
86.275799
0
LINE
8
Layer 1
10
103.456291
20
86.275799
11
104.413000
21
86.466100
0
LINE
8
Layer 1
10
104.413000
20
86.466100
11
105.369709
21
86.275799
0
LINE
8
Layer 1
10
105.369709
20
86.275799
11
106.180767
21
85.733867
0
LINE
8
Layer 1
10
106.180767
20
85.733867
11
106.722699
21
84.922809
0
LINE
8
Layer 1
10
106.722699
20
84.922809
11
106.913000
21
83.966100
0
LINE
8
Layer 1
10
106.913000
20
83.966100
11
106.913000
21
83.966100
0
LINE
8
Layer 1
10
111.546000
20
90.706500
11
112.077405
21
90.487065
0
LINE
8
Layer 1
10
112.077405
20
90.487065
11
112.296840
21
89.955660
0
LINE
8
Layer 1
10
112.296840
20
89.955660
11
112.297000
21
85.186500
0
LINE
8
Layer 1
10
112.297000
20
85.186500
11
112.077565
21
84.655100
0
LINE
8
Layer 1
10
112.077565
20
84.655100
11
111.546160
21
84.435670
0
LINE
8
Layer 1
10
111.546160
20
84.435670
11
111.014760
21
84.655100
0
LINE
8
Layer 1
10
111.014760
20
84.655100
11
110.795330
21
85.186500
0
LINE
8
Layer 1
10
110.795330
20
85.186500
11
110.795000
21
89.955700
0
LINE
8
Layer 1
10
110.795000
20
89.955700
11
111.014430
21
90.487105
0
LINE
8
Layer 1
10
111.014430
20
90.487105
11
111.545830
21
90.706540
0
LINE
8
Layer 1
10
111.545830
20
90.706540
11
111.546000
21
90.706500
0
LINE
8
Layer 1
10
122.779000
20
90.706500
11
123.310409
21
90.487065
0
LINE
8
Layer 1
10
123.310409
20
90.487065
11
123.529840
21
89.955660
0
LINE
8
Layer 1
10
123.529840
20
89.955660
11
123.529000
21
85.186500
0
LINE
8
Layer 1
10
123.529000
20
85.186500
11
123.309569
21
84.655100
0
LINE
8
Layer 1
10
123.309569
20
84.655100
11
122.778160
21
84.435670
0
LINE
8
Layer 1
10
122.778160
20
84.435670
11
122.246760
21
84.655100
0
LINE
8
Layer 1
10
122.246760
20
84.655100
11
122.027330
21
85.186500
0
LINE
8
Layer 1
10
122.027330
20
85.186500
11
122.028000
21
89.955700
0
LINE
8
Layer 1
10
122.028000
20
89.955700
11
122.247430
21
90.487105
0
LINE
8
Layer 1
10
122.247430
20
90.487105
11
122.778830
21
90.706540
0
LINE
8
Layer 1
10
122.778830
20
90.706540
11
122.779000
21
90.706500
0
LINE
8
Layer 1
10
109.461000
20
35.328200
11
124.978000
21
35.328200
0
LINE
8
Layer 1
10
124.978000
20
35.328200
11
125.568447
21
35.084388
0
LINE
8
Layer 1
10
125.568447
20
35.084388
11
125.812260
21
34.493940
0
LINE
8
Layer 1
10
125.812260
20
34.493940
11
125.812000
21
27.374900
0
LINE
8
Layer 1
10
125.812000
20
27.374900
11
125.568187
21
26.784453
0
LINE
8
Layer 1
10
125.568187
20
26.784453
11
124.977740
21
26.540640
0
LINE
8
Layer 1
10
124.977740
20
26.540640
11
109.461000
21
26.540600
0
LINE
8
Layer 1
10
109.461000
20
26.540600
11
108.870553
21
26.784413
0
LINE
8
Layer 1
10
108.870553
20
26.784413
11
108.626740
21
27.374860
0
LINE
8
Layer 1
10
108.626740
20
27.374860
11
108.626000
21
34.493900
0
LINE
8
Layer 1
10
108.626000
20
34.493900
11
108.869812
21
35.084347
0
LINE
8
Layer 1
10
108.869812
20
35.084347
11
109.460260
21
35.328160
0
LINE
8
Layer 1
10
109.460260
20
35.328160
11
109.461000
21
35.328200
0
LINE
8
Layer 1
10
98.921000
20
45.839800
11
100.812000
21
45.839800
0
LINE
8
Layer 1
10
100.812000
20
45.839800
11
101.402447
21
45.595987
0
LINE
8
Layer 1
10
101.402447
20
45.595987
11
101.646260
21
45.005540
0
LINE
8
Layer 1
10
101.646260
20
45.005540
11
101.646000
21
33.993300
0
LINE
8
Layer 1
10
101.646000
20
33.993300
11
101.402187
21
33.402852
0
LINE
8
Layer 1
10
101.402187
20
33.402852
11
100.811740
21
33.159040
0
LINE
8
Layer 1
10
100.811740
20
33.159040
11
98.921000
21
33.159100
0
LINE
8
Layer 1
10
98.921000
20
33.159100
11
98.330553
21
33.402912
0
LINE
8
Layer 1
10
98.330553
20
33.402912
11
98.086740
21
33.993360
0
LINE
8
Layer 1
10
98.086740
20
33.993360
11
98.086800
21
45.005600
0
LINE
8
Layer 1
10
98.086800
20
45.005600
11
98.330613
21
45.596047
0
LINE
8
Layer 1
10
98.330613
20
45.596047
11
98.921060
21
45.839860
0
LINE
8
Layer 1
10
98.921060
20
45.839860
11
98.921000
21
45.839800
 0 
ENDSEC
 0 
EOF