<?xml version="1.0" encoding="UTF-8" standalone="no"?>
<!-- Created with Inkscape (http://www.inkscape.org/) -->

<svg
   width="233.97234mm"
   height="91.73233mm"
   viewBox="0 0 233.97234 91.73233"
   version="1.1"
   id="svg5636"
   style="background-color:white"
   inkscape:version="1.2.2 (732a01da63, 2022-12-09)"
   sodipodi:docname="lower-middle-plate.svg"
   xmlns:inkscape="http://www.inkscape.org/namespaces/inkscape"
   xmlns:sodipodi="http://sodipodi.sourceforge.net/DTD/sodipodi-0.dtd"
   xmlns="http://www.w3.org/2000/svg"
   xmlns:svg="http://www.w3.org/2000/svg">
  <sodipodi:namedview
     id="namedview5638"
     pagecolor="#505050"
     bordercolor="#eeeeee"
     borderopacity="1"
     inkscape:showpageshadow="0"
     inkscape:pageopacity="0"
     inkscape:pagecheckerboard="0"
     inkscape:deskcolor="#505050"
     inkscape:document-units="mm"
     showgrid="false"
     inkscape:zoom="0.84096521"
     inkscape:cx="620.12078"
     inkscape:cy="245.55118"
     inkscape:window-width="1920"
     inkscape:window-height="991"
     inkscape:window-x="-9"
     inkscape:window-y="-9"
     inkscape:window-maximized="1"
     inkscape:current-layer="layer1" />
  <defs
     id="defs5633" />
  <g
     inkscape:label="Katman 1"
     inkscape:groupmode="layer"
     id="layer1"
     transform="translate(20.083628,-33.417739)">
    <g
       id="g170067">
      <path
         id="path97118-3-6-0"
         style="fill:none;fill-opacity:0.99361;stroke:#000000;stroke-width:0.25;stroke-linecap:square;stroke-linejoin:bevel;stop-color:#000000"
         d="m 111.80622,41.18389 a 2.5,2.5 0 0 1 -2.5,2.5 2.5,2.5 0 0 1 -2.5,-2.5 2.5,2.5 0 0 1 2.5,-2.5 2.5,2.5 0 0 1 2.5,2.5 z" />
      <path
         id="path97118-28-1"
         style="fill:none;fill-opacity:0.99361;stroke:#000000;stroke-width:0.25;stroke-linecap:square;stroke-linejoin:bevel;stop-color:#000000"
         d="m 1.019887,39.82925 a 2.5,2.5 0 0 1 -2.5,2.5 2.5,2.5 0 0 1 -2.5,-2.5 2.5,2.5 0 0 1 2.5,-2.5 2.5,2.5 0 0 1 2.5,2.5 z" />
      <g
         id="g16-4-9-2"
         transform="matrix(0.26458333,0,0,0.26458333,-113.09196,-69.45426)"
         style="fill:none;stroke:#000000;stroke-width:0.944882;stroke-dasharray:none;stroke-opacity:1">
        <path
           d="m 362.39999,658.08002 c -2.72,0.15997 -5.27999,-0.96002 -7.19998,-2.88001 C 353.28,653.44 352.16,650.71997 352.16,648.15997"
           style="fill:none;stroke:#000000;stroke-width:0.944882;stroke-linecap:round;stroke-linejoin:round;stroke-miterlimit:10;stroke-dasharray:none;stroke-opacity:1"
           id="path18-4-2-0" />
      </g>
      <g
         id="g20-0-7-84"
         transform="matrix(0.26458333,0,0,0.26458333,-113.09196,-69.45426)"
         style="fill:none;stroke:#000000;stroke-width:0.944882;stroke-dasharray:none;stroke-opacity:1">
        <path
           d="M 451.04001,653.28003 455.84,649.59998"
           style="fill:none;stroke:#000000;stroke-width:0.944882;stroke-linecap:round;stroke-linejoin:round;stroke-miterlimit:10;stroke-dasharray:none;stroke-opacity:1"
           id="path22-2-8-5" />
      </g>
      <g
         id="g24-6-5-5"
         transform="matrix(0.26458333,0,0,0.26458333,-113.09196,-69.45426)"
         style="fill:none;stroke:#000000;stroke-width:0.944882;stroke-dasharray:none;stroke-opacity:1">
        <path
           d="m 362.39999,658.08002 77.28,0.15997"
           style="fill:none;stroke:#000000;stroke-width:0.944882;stroke-linecap:round;stroke-linejoin:round;stroke-miterlimit:10;stroke-dasharray:none;stroke-opacity:1"
           id="path26-1-7-8" />
      </g>
      <g
         id="g28-9-9-6"
         transform="matrix(0.26458333,0,0,0.26458333,-113.09196,-69.45426)"
         style="fill:none;stroke:#000000;stroke-width:0.944882;stroke-dasharray:none;stroke-opacity:1">
        <path
           d="m 455.84,649.59998 18.55999,-14.39997"
           style="fill:none;stroke:#000000;stroke-width:0.944882;stroke-linecap:round;stroke-linejoin:round;stroke-miterlimit:10;stroke-dasharray:none;stroke-opacity:1"
           id="path30-2-3-4" />
      </g>
      <g
         id="g32-9-2-4"
         transform="matrix(0.26458333,0,0,0.26458333,-113.09196,-69.45426)"
         style="fill:none;stroke:#000000;stroke-width:0.944882;stroke-dasharray:none;stroke-opacity:1">
        <path
           d="M 474.23999,635.03998 C 475.04001,634.56 476.16,634.23999 477.12,634.40002"
           style="fill:none;stroke:#000000;stroke-width:0.944882;stroke-linecap:round;stroke-linejoin:round;stroke-miterlimit:10;stroke-dasharray:none;stroke-opacity:1"
           id="path34-9-0-7" />
      </g>
      <g
         id="g36-4-9-6"
         transform="matrix(0.26458333,0,0,0.26458333,-113.09196,-69.45426)"
         style="fill:none;stroke:#000000;stroke-width:0.944882;stroke-dasharray:none;stroke-opacity:1">
        <path
           d="m 450.88,653.12 c -3.20001,2.55999 -7.20001,4.32 -11.36001,4.96002"
           style="fill:none;stroke:#000000;stroke-width:0.944882;stroke-linecap:round;stroke-linejoin:round;stroke-miterlimit:10;stroke-dasharray:none;stroke-opacity:1"
           id="path38-8-9-2" />
      </g>
      <g
         id="g40-6-6-6-7"
         transform="matrix(0.26458333,0,0,0.26458333,-113.09196,-69.45426)"
         style="fill:none;stroke:#000000;stroke-width:0.944882;stroke-dasharray:none;stroke-opacity:1">
        <path
           d="m 1147.84,658.23999 c -4.32,-0.64001 -8.1599,-2.23999 -11.5201,-4.95996"
           style="fill:none;stroke:#000000;stroke-width:0.944882;stroke-linecap:round;stroke-linejoin:round;stroke-miterlimit:10;stroke-dasharray:none;stroke-opacity:1"
           id="path42-1-2-8" />
      </g>
      <g
         id="g44-4-4-5"
         transform="matrix(0.26458333,0,0,0.26458333,-113.09196,-69.45426)"
         style="fill:none;stroke:#000000;stroke-width:0.944882;stroke-dasharray:none;stroke-opacity:1">
        <path
           d="m 1023.04,638.56 c 0,-2.23999 1.76,-4 4,-4.15998"
           style="fill:none;stroke:#000000;stroke-width:0.944882;stroke-linecap:round;stroke-linejoin:round;stroke-miterlimit:10;stroke-dasharray:none;stroke-opacity:1"
           id="path46-9-8-9" />
      </g>
      <g
         id="g48-2-8-1-5"
         transform="matrix(0.26458333,0,0,0.26458333,-113.09196,-69.45426)"
         style="fill:none;stroke:#000000;stroke-width:0.944882;stroke-dasharray:none;stroke-opacity:1">
        <path
           d="m 1147.6801,658.23999 77.2799,-0.15997"
           style="fill:none;stroke:#000000;stroke-width:0.944882;stroke-linecap:round;stroke-linejoin:round;stroke-miterlimit:10;stroke-dasharray:none;stroke-opacity:1"
           id="path50-9-4-0-45" />
      </g>
      <g
         id="g52-8-3-2"
         transform="matrix(0.26458333,0,0,0.26458333,-113.09196,-69.45426)"
         style="fill:none;stroke:#000000;stroke-width:0.944882;stroke-dasharray:none;stroke-opacity:1">
        <path
           d="m 1112.8,635.20001 23.5199,18.08002"
           style="fill:none;stroke:#000000;stroke-width:0.944882;stroke-linecap:round;stroke-linejoin:round;stroke-miterlimit:10;stroke-dasharray:none;stroke-opacity:1"
           id="path54-9-2-4" />
      </g>
      <g
         id="g56-4-2-7-7"
         transform="matrix(0.26458333,0,0,0.26458333,-113.09196,-69.45426)"
         style="fill:none;stroke:#000000;stroke-width:0.944882;stroke-dasharray:none;stroke-opacity:1">
        <path
           d="m 1235.36,648 c -0.16,5.59998 -4.7999,10.08002 -10.4,10.08002"
           style="fill:none;stroke:#000000;stroke-width:0.944882;stroke-linecap:round;stroke-linejoin:round;stroke-miterlimit:10;stroke-dasharray:none;stroke-opacity:1"
           id="path58-3-3-7" />
      </g>
      <g
         id="g60-7-4-8"
         transform="matrix(0.26458333,0,0,0.26458333,-113.09196,-69.45426)"
         style="fill:none;stroke:#000000;stroke-width:0.944882;stroke-dasharray:none;stroke-opacity:1">
        <path
           d="m 1027.04,634.40002 h 82.88"
           style="fill:none;stroke:#000000;stroke-width:0.944882;stroke-linecap:round;stroke-linejoin:round;stroke-miterlimit:10;stroke-dasharray:none;stroke-opacity:1"
           id="path62-9-8-6-3" />
      </g>
      <g
         id="g64-2-9-8"
         transform="matrix(0.26458333,0,0,0.26458333,-113.09196,-69.45426)"
         style="fill:none;stroke:#000000;stroke-width:0.944882;stroke-dasharray:none;stroke-opacity:1">
        <path
           d="m 1109.76,634.40002 c 0.96,-0.16003 2.08,0.15998 3.04,0.63996"
           style="fill:none;stroke:#000000;stroke-width:0.944882;stroke-linecap:round;stroke-linejoin:round;stroke-miterlimit:10;stroke-dasharray:none;stroke-opacity:1"
           id="path66-5-7-9" />
      </g>
      <g
         id="g76-0-1-6"
         transform="matrix(0.26458333,0,0,0.26458333,-113.09196,-69.45426)"
         style="fill:none;stroke:#000000;stroke-width:0.944882;stroke-dasharray:none;stroke-opacity:1">
        <path
           d="M 1151.84,389.44 H 811.84003 776.96002 435.51999"
           style="fill:none;stroke:#000000;stroke-width:0.944882;stroke-linecap:round;stroke-linejoin:round;stroke-miterlimit:10;stroke-dasharray:none;stroke-opacity:1"
           id="path78-2-2-3"
           sodipodi:nodetypes="cccc" />
      </g>
      <g
         id="g92-0-4-8"
         transform="matrix(0.26458333,0,0,0.26458333,-113.09196,-69.45426)"
         style="fill:none;stroke:#000000;stroke-width:0.944882;stroke-dasharray:none;stroke-opacity:1">
        <path
           d="m 718.88,735.03998 h 94.24"
           style="fill:none;stroke:#000000;stroke-width:0.944882;stroke-linecap:round;stroke-linejoin:round;stroke-miterlimit:10;stroke-dasharray:none;stroke-opacity:1"
           id="path94-0-0-0-0" />
      </g>
      <g
         id="g96-4-7-9"
         transform="matrix(0.26458333,0,0,0.26458333,-113.09196,-69.45426)"
         style="fill:none;stroke:#000000;stroke-width:0.944882;stroke-dasharray:none;stroke-opacity:1">
        <path
           d="m 564.32001,638.71997 -0.16004,65.60004"
           style="fill:none;stroke:#000000;stroke-width:0.944882;stroke-linecap:round;stroke-linejoin:round;stroke-miterlimit:10;stroke-dasharray:none;stroke-opacity:1"
           id="path98-7-6-6" />
      </g>
      <g
         id="g100-2-7-5-4"
         transform="matrix(0.26458333,0,0,0.26458333,-113.09196,-69.45426)"
         style="fill:none;stroke:#000000;stroke-width:0.944882;stroke-dasharray:none;stroke-opacity:1">
        <path
           d="m 560.32001,634.40002 c 2.23999,0.15998 4,2.07996 4,4.31995"
           style="fill:none;stroke:#000000;stroke-width:0.944882;stroke-linecap:round;stroke-linejoin:round;stroke-miterlimit:10;stroke-dasharray:none;stroke-opacity:1"
           id="path102-0-1-3-0" />
      </g>
      <g
         id="g104-3-7-0"
         transform="matrix(0.26458333,0,0,0.26458333,-113.09196,-69.45426)"
         style="fill:none;stroke:#000000;stroke-width:0.944882;stroke-dasharray:none;stroke-opacity:1">
        <path
           d="m 477.28,634.40002 h 83.04001"
           style="fill:none;stroke:#000000;stroke-width:0.944882;stroke-linecap:round;stroke-linejoin:round;stroke-miterlimit:10;stroke-dasharray:none;stroke-opacity:1"
           id="path106-2-2-3" />
      </g>
      <g
         id="g108-0-3-9"
         transform="matrix(0.26458333,0,0,0.26458333,-113.09196,-69.45426)"
         style="fill:none;stroke:#000000;stroke-width:0.944882;stroke-dasharray:none;stroke-opacity:1">
        <path
           d="M 703.84003,720.79999 718.88,735.03998"
           style="fill:none;stroke:#000000;stroke-width:0.944882;stroke-linecap:round;stroke-linejoin:round;stroke-miterlimit:10;stroke-dasharray:none;stroke-opacity:1"
           id="path110-4-0-3" />
      </g>
      <g
         id="g112-6-7-3"
         transform="matrix(0.26458333,0,0,0.26458333,-113.09196,-69.45426)"
         style="fill:none;stroke:#000000;stroke-width:0.944882;stroke-dasharray:none;stroke-opacity:1">
        <path
           d="m 567.20001,707.84003 136.64002,12.95996"
           style="fill:none;stroke:#000000;stroke-width:0.944882;stroke-linecap:round;stroke-linejoin:round;stroke-miterlimit:10;stroke-dasharray:none;stroke-opacity:1"
           id="path114-9-1-5" />
      </g>
      <g
         id="g120-1-1-8"
         transform="matrix(0.26458333,0,0,0.26458333,-113.09196,-69.45426)"
         style="fill:none;stroke:#000000;stroke-width:0.944882;stroke-dasharray:none;stroke-opacity:1">
        <path
           d="M 567.03998,707.67999 C 565.28003,707.52002 564,705.91998 564,704.15997"
           style="fill:none;stroke:#000000;stroke-width:0.944882;stroke-linecap:round;stroke-linejoin:round;stroke-miterlimit:10;stroke-dasharray:none;stroke-opacity:1"
           id="path122-2-9-2-9" />
      </g>
      <g
         id="g124-6-7-2"
         transform="matrix(0.26458333,0,0,0.26458333,-113.09196,-69.45426)"
         style="fill:none;stroke:#000000;stroke-width:0.944882;stroke-dasharray:none;stroke-opacity:1">
        <path
           d="M 352.16,431.51999 352,648"
           style="fill:none;stroke:#000000;stroke-width:0.944882;stroke-linecap:round;stroke-linejoin:round;stroke-miterlimit:10;stroke-dasharray:none;stroke-opacity:1"
           id="path126-1-8-7-5" />
      </g>
      <g
         id="g128-2-4-4-6"
         transform="matrix(0.26458333,0,0,0.26458333,-113.09196,-69.45426)"
         style="fill:none;stroke:#000000;stroke-width:0.944882;stroke-dasharray:none;stroke-opacity:1">
        <path
           d="M 424.79999,392 360.16,419.84"
           style="fill:none;stroke:#000000;stroke-width:0.944882;stroke-linecap:round;stroke-linejoin:round;stroke-miterlimit:10;stroke-dasharray:none;stroke-opacity:1"
           id="path130-2-6-5" />
      </g>
      <g
         id="g132-4-1-5"
         transform="matrix(0.26458333,0,0,0.26458333,-113.09196,-69.45426)"
         style="fill:none;stroke:#000000;stroke-width:0.944882;stroke-dasharray:none;stroke-opacity:1">
        <path
           d="M 425.60001,391.51999 424.79999,392"
           style="fill:none;stroke:#000000;stroke-width:0.944882;stroke-linecap:round;stroke-linejoin:round;stroke-miterlimit:10;stroke-dasharray:none;stroke-opacity:1"
           id="path134-5-8-0-8" />
      </g>
      <g
         id="g136-6-6-5-2"
         transform="matrix(0.26458333,0,0,0.26458333,-113.09196,-69.45426)"
         style="fill:none;stroke:#000000;stroke-width:0.944882;stroke-dasharray:none;stroke-opacity:1">
        <path
           d="m 352,431.51999 c 0.16,-5.12 3.35999,-9.75998 8.16,-11.84"
           style="fill:none;stroke:#000000;stroke-width:0.944882;stroke-linecap:round;stroke-linejoin:round;stroke-miterlimit:10;stroke-dasharray:none;stroke-opacity:1"
           id="path138-1-2-2" />
      </g>
      <g
         id="g140-0-2-4-8"
         transform="matrix(0.26458333,0,0,0.26458333,-113.09196,-69.45426)"
         style="fill:none;stroke:#000000;stroke-width:0.944882;stroke-dasharray:none;stroke-opacity:1">
        <path
           d="m 425.60001,391.67999 c 3.04,-1.44 6.55999,-2.23999 9.91998,-2.23999"
           style="fill:none;stroke:#000000;stroke-width:0.944882;stroke-linecap:round;stroke-linejoin:round;stroke-miterlimit:10;stroke-dasharray:none;stroke-opacity:1"
           id="path142-0-2-5" />
      </g>
      <g
         id="g144-0-0-9"
         transform="matrix(0.26458333,0,0,0.26458333,-113.09196,-69.45426)"
         style="fill:none;stroke:#000000;stroke-width:0.944882;stroke-dasharray:none;stroke-opacity:1">
        <path
           d="M 1235.36,648.15997 1235.2,431.51999"
           style="fill:none;stroke:#000000;stroke-width:0.944882;stroke-linecap:round;stroke-linejoin:round;stroke-miterlimit:10;stroke-dasharray:none;stroke-opacity:1"
           id="path146-5-6-1" />
      </g>
      <g
         id="g148-7-9-5-4"
         transform="matrix(0.26458333,0,0,0.26458333,-113.09196,-69.45426)"
         style="fill:none;stroke:#000000;stroke-width:0.944882;stroke-dasharray:none;stroke-opacity:1">
        <path
           d="m 1151.6801,389.28 c 3.8399,0 7.3599,0.79999 10.7199,2.56"
           style="fill:none;stroke:#000000;stroke-width:0.944882;stroke-linecap:round;stroke-linejoin:round;stroke-miterlimit:10;stroke-dasharray:none;stroke-opacity:1"
           id="path150-7-5-4" />
      </g>
      <g
         id="g152-9-5-46"
         transform="matrix(0.26458333,0,0,0.26458333,-113.09196,-69.45426)"
         style="fill:none;stroke:#000000;stroke-width:0.944882;stroke-dasharray:none;stroke-opacity:1">
        <path
           d="m 1227.2,419.84 c 4.4801,2.23999 7.52,6.72 8,11.67999"
           style="fill:none;stroke:#000000;stroke-width:0.944882;stroke-linecap:round;stroke-linejoin:round;stroke-miterlimit:10;stroke-dasharray:none;stroke-opacity:1"
           id="path154-2-2-0-8" />
      </g>
      <g
         id="g156-5-6-0"
         transform="matrix(0.26458333,0,0,0.26458333,-113.09196,-69.45426)"
         style="fill:none;stroke:#000000;stroke-width:0.944882;stroke-dasharray:none;stroke-opacity:1">
        <path
           d="M 1227.2,419.84 1162.5601,392"
           style="fill:none;stroke:#000000;stroke-width:0.944882;stroke-linecap:round;stroke-linejoin:round;stroke-miterlimit:10;stroke-dasharray:none;stroke-opacity:1"
           id="path158-8-1-3" />
      </g>
      <g
         id="g160-4-6-4"
         transform="matrix(0.26458333,0,0,0.26458333,-113.09196,-69.45426)"
         style="fill:none;stroke:#000000;stroke-width:0.944882;stroke-dasharray:none;stroke-opacity:1">
        <path
           d="M 883.52002,720.79999 1020.16,707.84003"
           style="fill:none;stroke:#000000;stroke-width:0.944882;stroke-linecap:round;stroke-linejoin:round;stroke-miterlimit:10;stroke-dasharray:none;stroke-opacity:1"
           id="path162-8-7-8" />
      </g>
      <g
         id="g164-1-0-3"
         transform="matrix(0.26458333,0,0,0.26458333,-113.09196,-69.45426)"
         style="fill:none;stroke:#000000;stroke-width:0.944882;stroke-dasharray:none;stroke-opacity:1">
        <path
           d="m 1023.2,704.32001 -0.16,-65.60004"
           style="fill:none;stroke:#000000;stroke-width:0.944882;stroke-linecap:round;stroke-linejoin:round;stroke-miterlimit:10;stroke-dasharray:none;stroke-opacity:1"
           id="path166-4-6-1" />
      </g>
      <g
         id="g168-7-4-5-2"
         transform="matrix(0.26458333,0,0,0.26458333,-113.09196,-69.45426)"
         style="fill:none;stroke:#000000;stroke-width:0.944882;stroke-dasharray:none;stroke-opacity:1">
        <path
           d="m 1023.2,704.32001 c -0.16,1.59997 -1.44,3.03997 -3.2,3.35998"
           style="fill:none;stroke:#000000;stroke-width:0.944882;stroke-linecap:round;stroke-linejoin:round;stroke-miterlimit:10;stroke-dasharray:none;stroke-opacity:1"
           id="path170-3-5-8" />
      </g>
      <g
         id="g172-5-5-82"
         transform="matrix(0.26458333,0,0,0.26458333,-113.09196,-69.45426)"
         style="fill:none;stroke:#000000;stroke-width:0.944882;stroke-dasharray:none;stroke-opacity:1">
        <path
           d="m 813.12,735.03998 h 55.35998"
           style="fill:none;stroke:#000000;stroke-width:0.944882;stroke-linecap:round;stroke-linejoin:round;stroke-miterlimit:10;stroke-dasharray:none;stroke-opacity:1"
           id="path174-4-3-8-8" />
      </g>
      <g
         id="g176-2-8-7"
         transform="matrix(0.26458333,0,0,0.26458333,-113.09196,-69.45426)"
         style="fill:none;stroke:#000000;stroke-width:0.944882;stroke-dasharray:none;stroke-opacity:1">
        <path
           d="m 868.47998,735.03998 15.04004,-14.23999"
           style="fill:none;stroke:#000000;stroke-width:0.944882;stroke-linecap:round;stroke-linejoin:round;stroke-miterlimit:10;stroke-dasharray:none;stroke-opacity:1"
           id="path178-1-4-9" />
      </g>
      <path
         id="rect95967-9-6-4"
         style="fill:none;fill-opacity:0.99361;stroke:#000000;stroke-width:0.25;stroke-linecap:square;stroke-linejoin:bevel;stroke-dasharray:none;stroke-opacity:1;stop-color:#000000"
         d="m 41.074026,38.83665 v 14.51591 h 14.018783 v 1.90428 1.90376 0.72605 H 41.074026 V 72.40256 H 57.69265 v -11.8861 h 2.431376 v 11.8861 H 76.742653 V 57.88665 H 62.850993 V 57.1606 55.25684 53.35256 h 13.89166 V 38.83665 H 60.124026 V 50.90361 H 57.69265 V 38.83665 Z" />
      <path
         id="rect95967-8-36-9-4"
         style="fill:none;fill-opacity:0.99361;stroke:#000000;stroke-width:0.25;stroke-linecap:square;stroke-linejoin:bevel;stroke-dasharray:none;stroke-opacity:1;stop-color:#000000"
         d="M 41.074026,76.93665 V 91.45256 H 54.92331 v 3.13056 h 7.758703 v -3.13056 h 14.06064 V 76.93665 H 60.124026 V 88.32614 H 57.69265 V 76.93665 Z" />
      <g
         id="g96040-5-2-5"
         transform="translate(0.345759,-335.21402)"
         style="fill:none;stroke:#000000;stroke-width:0.25;stroke-dasharray:none;stroke-opacity:1">
        <path
           id="rect95967-83-7-14"
           style="fill-opacity:0.99361;stroke-linecap:square;stroke-linejoin:bevel;stop-color:#000000"
           d="m 21.678425,374.05054 h 16.618378 v 14.5161 H 21.678425 Z" />
        <path
           id="rect95967-0-6-7-9"
           style="fill-opacity:0.99361;stroke-linecap:square;stroke-linejoin:bevel;stop-color:#000000"
           d="m 21.678425,393.10056 h 16.618378 v 14.5161 H 21.678425 Z" />
        <path
           id="rect95967-8-3-3-1"
           style="fill-opacity:0.99361;stroke-linecap:square;stroke-linejoin:bevel;stop-color:#000000"
           d="m 21.678425,412.15054 h 16.618378 v 14.5161 H 21.678425 Z" />
      </g>
      <g
         id="g5164-2-7-7"
         transform="matrix(0.26458333,0,0,0.26458333,86.425043,96.15373)"
         style="fill:none;stroke:#000000;stroke-width:0.944882;stroke-dasharray:none;stroke-opacity:1">
        <path
           d="m 0,0 c 0,4.32 -3.68,8 -8,8 -4.48,0 -8.16,-3.68 -8.16,-8 0,-4.48 3.68,-8.16 8.16,-8.16 4.32,0 8,3.68 8,8.16 z"
           style="fill:none;fill-opacity:1;fill-rule:nonzero;stroke:#000000;stroke-width:0.944882;stroke-dasharray:none;stroke-opacity:1"
           id="path5166-4-8-4" />
      </g>
      <g
         id="g5188-4-8-60"
         transform="matrix(0.26458333,0,0,0.26458333,86.425043,50.6454)"
         style="fill:none;stroke:#000000;stroke-width:0.944882;stroke-dasharray:none;stroke-opacity:1">
        <path
           d="m 0,0 c 0,4.32 -3.68,8 -8,8 -4.48,0 -8.16,-3.68 -8.16,-8 0,-4.48 3.68,-8.16 8.16,-8.16 4.32,0 8,3.68 8,8.16 z"
           style="fill:none;fill-opacity:1;fill-rule:nonzero;stroke:#000000;stroke-width:0.944882;stroke-dasharray:none;stroke-opacity:1"
           id="path5190-3-0-0" />
      </g>
      <g
         id="g5612-9-9-7"
         transform="matrix(0.26458333,0,0,0.26458333,111.52871,50.60307)"
         style="fill:none;stroke:#000000;stroke-width:0.944882;stroke-dasharray:none;stroke-opacity:1">
        <path
           d="m 0,0 c 0,4.32 -3.68,8 -8,8 -4.48,0 -8.16,-3.68 -8.16,-8 0,-4.48 3.68,-8.16 8.16,-8.16 4.32,0 8,3.68 8,8.16 z"
           style="fill:none;fill-opacity:1;fill-rule:nonzero;stroke:#000000;stroke-width:0.944882;stroke-dasharray:none;stroke-opacity:1"
           id="path5614-0-5-8" />
      </g>
      <g
         id="g5620-8-8-7"
         transform="matrix(0.26458333,0,0,0.26458333,111.52871,96.15373)"
         style="fill:none;stroke:#000000;stroke-width:0.944882;stroke-dasharray:none;stroke-opacity:1">
        <path
           d="m 0,0 c 0,4.32 -3.68,8 -8,8 -4.48,0 -8.16,-3.68 -8.16,-8 0,-4.48 3.68,-8.16 8.16,-8.16 4.32,0 8,3.68 8,8.16 z"
           style="fill:none;fill-opacity:1;fill-rule:nonzero;stroke:#000000;stroke-width:0.944882;stroke-dasharray:none;stroke-opacity:1"
           id="path5622-2-3-9" />
      </g>
      <path
         id="rect96643-9-6-8"
         style="fill:none;fill-opacity:0.99361;stroke:#000000;stroke-width:0.25;stroke-linecap:square;stroke-linejoin:bevel;stop-color:#000000"
         d="m 93.192583,43.15658 h 7.758607 v 6.25694 h -7.758607 z" />
      <path
         id="rect96643-22-2-5"
         style="fill:none;fill-opacity:0.99361;stroke:#000000;stroke-width:0.25;stroke-linecap:square;stroke-linejoin:bevel;stroke-dasharray:none;stroke-opacity:1;stop-color:#000000"
         d="m 117.3164,38.83665 v 14.51591 h 13.97641 v 1.86139 1.8619 0.8108 H 117.3164 v 14.51591 h 16.61862 V 61.47041 h 2.42104 v 10.93215 h 16.61811 V 57.88665 h -13.92318 v -0.8108 -1.8619 -1.86139 h 13.92318 V 38.83665 h -16.61811 v 11.98222 h -2.42104 V 38.83665 Z" />
      <path
         id="rect96643-51-1-7"
         style="fill:none;fill-opacity:0.99361;stroke:#000000;stroke-width:0.25;stroke-linecap:square;stroke-linejoin:bevel;stroke-dasharray:none;stroke-opacity:1;stop-color:#000000"
         d="m 174.4664,76.93665 v 14.51591 h 10.29343 v 3.08818 h 7.75818 v -6.25698 h -1.43299 V 76.93665 Z" />
      <path
         id="rect95967-4-23"
         style="fill:none;fill-opacity:0.99361;stroke:#000000;stroke-width:0.25;stroke-linecap:square;stroke-linejoin:bevel;stroke-dasharray:none;stroke-opacity:1;stop-color:#000000"
         d="M 2.974026,38.83665 V 50.8478 H 0.54265 V 45.58869 H -16.075974 V 60.1046 H 0.54265 V 57.10479 H 6.961897 V 53.35256 H 19.59265 V 38.83665 Z" />
      <path
         id="rect95967-0-2-4"
         style="fill:none;fill-opacity:0.99361;stroke:#000000;stroke-width:0.25;stroke-linecap:square;stroke-linejoin:bevel;stop-color:#000000"
         d="M -16.075812,64.6387 H 0.542566 v 14.5161 h -16.618378 z" />
      <path
         id="rect95967-8-5-6"
         style="fill:none;fill-opacity:0.99361;stroke:#000000;stroke-width:0.25;stroke-linecap:square;stroke-linejoin:bevel;stroke-dasharray:none;stroke-opacity:1;stop-color:#000000"
         d="M 2.974026,76.93665 V 88.32614 H 0.54265 V 83.68869 H -16.075974 V 98.2046 H 0.54265 V 94.58312 H 6.420844 V 91.45256 H 19.59265 V 76.93665 Z" />
      <path
         id="rect95967-0-1-7-9"
         style="fill:none;fill-opacity:0.99361;stroke:#000000;stroke-width:0.25;stroke-linecap:square;stroke-linejoin:bevel;stop-color:#000000"
         d="m 2.974187,57.88653 h 16.618378 v 14.5161 H 2.974187 Z" />
      <path
         id="rect95967-8-9-5-3"
         style="fill:none;fill-opacity:0.99361;stroke:#000000;stroke-width:0.25;stroke-linecap:square;stroke-linejoin:bevel;stroke-dasharray:none;stroke-opacity:1;stop-color:#000000"
         d="m 117.3164,76.93665 v 14.51591 h 13.80691 v 3.15175 h 7.7587 v -3.15175 h 14.09216 V 76.93665 h -16.61811 v 11.41067 h -2.42104 V 76.93665 Z" />
      <g
         id="g96040-7-7-9"
         transform="translate(133.73809,-335.21402)"
         style="fill:none;stroke:#000000;stroke-width:0.25;stroke-dasharray:none;stroke-opacity:1">
        <path
           id="rect95967-87-2-8"
           style="fill-opacity:0.99361;stroke-linecap:square;stroke-linejoin:bevel;stop-color:#000000"
           d="m 21.678425,374.05054 h 16.618378 v 14.5161 H 21.678425 Z" />
        <path
           id="rect95967-0-67-3-23"
           style="fill-opacity:0.99361;stroke-linecap:square;stroke-linejoin:bevel;stop-color:#000000"
           d="m 21.678425,393.10056 h 16.618378 v 14.5161 H 21.678425 Z" />
        <path
           id="rect95967-8-80-4-3"
           style="fill-opacity:0.99361;stroke-linecap:square;stroke-linejoin:bevel;stop-color:#000000"
           d="m 21.678425,412.15054 h 16.618378 v 14.5161 H 21.678425 Z" />
      </g>
      <path
         id="rect95967-90-2-6"
         style="fill:none;fill-opacity:0.99361;stroke:#000000;stroke-width:0.25;stroke-linecap:square;stroke-linejoin:bevel;stroke-dasharray:none;stroke-opacity:1;stop-color:#000000"
         d="m 174.4664,38.83665 v 14.51591 h 10.29343 v 3.97754 0.55655 H 174.4664 v 14.51591 h 16.61862 V 60.64255 h 1.43299 v -5.30096 -4.26848 h -1.43299 V 38.83665 Z" />
      <g
         id="g96040-6-9-6"
         transform="translate(171.81694,-328.44069)"
         style="fill:none;stroke:#000000;stroke-width:0.25;stroke-dasharray:none;stroke-opacity:1">
        <path
           id="rect95967-2-3-32"
           style="fill-opacity:0.99361;stroke-linecap:square;stroke-linejoin:bevel;stop-color:#000000"
           d="m 21.678425,374.05054 h 16.618378 v 14.5161 H 21.678425 Z" />
        <path
           id="rect95967-0-71-1-1"
           style="fill-opacity:0.99361;stroke-linecap:square;stroke-linejoin:bevel;stop-color:#000000"
           d="m 21.678425,393.10056 h 16.618378 v 14.5161 H 21.678425 Z" />
        <path
           id="rect95967-8-19-3-4"
           style="fill-opacity:0.99361;stroke-linecap:square;stroke-linejoin:bevel;stop-color:#000000"
           d="m 21.678425,412.15054 h 16.618378 v 14.5161 H 21.678425 Z" />
      </g>
      <path
         id="rect95967-86-4-0"
         style="fill:none;fill-opacity:0.99361;stroke:#000000;stroke-width:0.25;stroke-linecap:square;stroke-linejoin:bevel;stop-color:#000000"
         d="m 41.053022,95.96536 h 16.618377 v 14.5161 H 41.053022 Z" />
      <path
         id="rect95967-0-8-2-4"
         style="fill:none;fill-opacity:0.99361;stroke:#000000;stroke-width:0.25;stroke-linecap:square;stroke-linejoin:bevel;stroke-dasharray:none;stroke-opacity:1;stop-color:#000000"
         d="m 60.145214,98.2723 v 13.82965 a 2.5,2.5 0 0 0 -1.808159,-0.77412 2.5,2.5 0 0 0 -2.500105,2.50011 2.5,2.5 0 0 0 2.500105,2.5001 2.5,2.5 0 0 0 2.499589,-2.5001 2.5,2.5 0 0 0 -0.226342,-1.03921 H 76.763833 V 98.2723 Z" />
      <path
         id="rect95967-8-56-7-6"
         style="fill:none;fill-opacity:0.99361;stroke:#000000;stroke-width:0.25;stroke-linecap:square;stroke-linejoin:bevel;stroke-dasharray:none;stroke-opacity:1;stop-color:#000000"
         d="m 79.237593,103.35261 v 14.51591 h 13.82809 2.79053 2.41019 2.557977 14.06064 V 103.35261 H 98.266403 v 7.876 h -2.41019 v -7.876 z" />
      <path
         id="rect95967-0-8-0-0-0"
         style="fill:none;fill-opacity:0.99361;stroke:#000000;stroke-width:0.25;stroke-linecap:square;stroke-linejoin:bevel;stroke-dasharray:none;stroke-opacity:1;stop-color:#000000"
         d="m 117.3164,98.2723 v 14.51643 h 15.86105 a 2.5,2.5 0 0 0 -0.20929,0.99683 2.5,2.5 0 0 0 2.5001,2.50011 2.5,2.5 0 0 0 2.50011,-2.50011 2.5,2.5 0 0 0 -2.50011,-2.5001 2.5,2.5 0 0 0 -1.53324,0.5271 V 98.2723 Z" />
      <path
         id="rect95967-8-56-4-3-0"
         style="fill:none;fill-opacity:0.99361;stroke:#000000;stroke-width:0.25;stroke-linecap:square;stroke-linejoin:bevel;stop-color:#000000"
         d="m 136.38768,95.96536 h 16.61838 v 14.5161 h -16.61838 z" />
      <path
         id="path97118-9-7-8"
         style="fill:none;fill-opacity:0.99361;stroke:#000000;stroke-width:0.25;stroke-linecap:square;stroke-linejoin:bevel;stop-color:#000000"
         d="m 9.274888,97.44491 a 2.5,2.5 0 0 1 -2.5,2.5 2.5,2.5 0 0 1 -2.5,-2.5 2.5,2.5 0 0 1 2.5,-2.5 2.5,2.5 0 0 1 2.5,2.5 z" />
      <path
         id="path97118-7-0-9"
         style="fill:none;fill-opacity:0.99361;stroke:#000000;stroke-width:0.25;stroke-linecap:square;stroke-linejoin:bevel;stop-color:#000000"
         d="m 189.44554,97.40255 a 2.5,2.5 0 0 1 -2.5,2.5 2.5,2.5 0 0 1 -2.5,-2.5 2.5,2.5 0 0 1 2.5,-2.5 2.5,2.5 0 0 1 2.5,2.5 z" />
      <path
         id="path97118-4-8-1"
         style="fill:none;fill-opacity:0.99361;stroke:#000000;stroke-width:0.25;stroke-linecap:square;stroke-linejoin:bevel;stop-color:#000000"
         d="m 197.70055,39.78689 a 2.5,2.5 0 0 1 -2.5,2.5 2.5,2.5 0 0 1 -2.5,-2.5 2.5,2.5 0 0 1 2.5,-2.5 2.5,2.5 0 0 1 2.5,2.5 z" />
      <path
         id="path97118-2-6-3"
         style="fill:none;fill-opacity:0.99361;stroke:#000000;stroke-width:0.25;stroke-linecap:square;stroke-linejoin:bevel;stop-color:#000000"
         d="m 86.829553,41.18389 a 2.5,2.5 0 0 1 -2.5,2.5 2.5,2.5 0 0 1 -2.5,-2.5 2.5,2.5 0 0 1 2.5,-2.5 2.5,2.5 0 0 1 2.5,2.5 z" />
      <path
         id="rect97742-7-0"
         style="fill:none;fill-opacity:0.99361;stroke:#000000;stroke-width:0.25;stroke-linecap:square;stroke-linejoin:bevel;stop-color:#000000"
         d="m 91.462703,34.4435 c 0.41596,0 0.75084,0.33488 0.75084,0.75084 v 4.76918 c 0,0.41596 -0.33488,0.75083 -0.75084,0.75083 -0.41596,0 -0.75083,-0.33487 -0.75083,-0.75083 v -4.76918 c 0,-0.41596 0.33487,-0.75084 0.75083,-0.75084 z" />
      <path
         id="rect97742-1-2-9"
         style="fill:none;fill-opacity:0.99361;stroke:#000000;stroke-width:0.25;stroke-linecap:square;stroke-linejoin:bevel;stop-color:#000000"
         d="m 102.69506,34.4435 c 0.41597,0 0.75084,0.33488 0.75084,0.75084 v 4.76918 c 0,0.41596 -0.33487,0.75083 -0.75084,0.75083 -0.41596,0 -0.75083,-0.33487 -0.75083,-0.75083 v -4.76918 c 0,-0.41596 0.33487,-0.75084 0.75083,-0.75084 z" />
      <path
         id="rect168727"
         style="fill:none;stroke:#000000;stroke-width:0.25;stroke-linecap:square;stroke-linejoin:bevel;stop-color:#000000"
         d="m 89.376908,89.821846 h 15.517212 c 0.46218,0 0.83426,0.37208 0.83426,0.83426 v 7.119004 c 0,0.46218 -0.37208,0.83426 -0.83426,0.83426 H 89.376908 c -0.46218,0 -0.83426,-0.37208 -0.83426,-0.83426 v -7.119004 c 0,-0.46218 0.37208,-0.83426 0.83426,-0.83426 z" />
      <path
         id="rect168727-6"
         style="fill:none;stroke:#000000;stroke-width:0.25;stroke-linecap:square;stroke-linejoin:bevel;stop-color:#000000"
         d="m 78.837449,79.310188 h 1.890983 c 0.46218,0 0.83426,0.37208 0.83426,0.83426 V 91.15666 c 0,0.46218 -0.37208,0.83426 -0.83426,0.83426 h -1.890983 c -0.46218,0 -0.83426,-0.37208 -0.83426,-0.83426 V 80.144448 c 0,-0.46218 0.37208,-0.83426 0.83426,-0.83426 z" />
    </g>
  </g>
</svg>
