<?xml version="1.0" encoding="UTF-8" standalone="no"?>
<!-- Created with Inkscape (http://www.inkscape.org/) -->

<svg
   width="34.390171mm"
   height="54.457039mm"
   viewBox="0 0 34.390171 54.457039"
   version="1.1"
   id="svg178893"
   style="background-color:white"
   inkscape:version="1.2.2 (732a01da63, 2022-12-09)"
   sodipodi:docname="oled-cover.svg"
   xmlns:inkscape="http://www.inkscape.org/namespaces/inkscape"
   xmlns:sodipodi="http://sodipodi.sourceforge.net/DTD/sodipodi-0.dtd"
   xmlns="http://www.w3.org/2000/svg"
   xmlns:svg="http://www.w3.org/2000/svg">
  <sodipodi:namedview
     id="namedview178895"
     pagecolor="#505050"
     bordercolor="#eeeeee"
     borderopacity="1"
     inkscape:showpageshadow="0"
     inkscape:pageopacity="0"
     inkscape:pagecheckerboard="0"
     inkscape:deskcolor="#505050"
     inkscape:document-units="mm"
     showgrid="false"
     inkscape:zoom="2.3786088"
     inkscape:cx="161.2287"
     inkscape:cy="109.09738"
     inkscape:window-width="1920"
     inkscape:window-height="991"
     inkscape:window-x="-9"
     inkscape:window-y="-9"
     inkscape:window-maximized="1"
     inkscape:current-layer="layer1" />
  <defs
     id="defs178890" />
  <g
     inkscape:label="Katman 1"
     inkscape:groupmode="layer"
     id="layer1"
     transform="translate(159.40271,-328.91979)">
    <g
       id="g179089">
      <path
         style="color:#000000;fill:none;stroke:#000000;stroke-width:0.25;stroke-miterlimit:10;stroke-dasharray:none;stroke-opacity:1"
         d="m -154.74762,332.39022 c 0.54031,-10e-4 0.97761,0.43321 0.97851,0.97265 0,0.53997 -0.43243,0.9739 -0.97266,0.97657 -0.53991,10e-4 -0.97761,-0.43288 -0.97851,-0.97265 0,-0.54031 0.43273,-0.9739 0.97266,-0.97657 z"
         id="path63698-0-2-7-6-4-5-51-6-0-4-20"
         sodipodi:nodetypes="ccccc" />
      <path
         style="color:#000000;fill:none;stroke:#000000;stroke-width:0.25;stroke-miterlimit:10;stroke-dasharray:none;stroke-opacity:1"
         d="m -129.64395,332.34788 c 0.5403,-10e-4 0.97761,0.43322 0.97851,0.97266 0,0.53997 -0.43244,0.9739 -0.97266,0.97656 -0.53991,10e-4 -0.97764,-0.43287 -0.97851,-0.97265 0,-0.5403 0.43272,-0.9739 0.97266,-0.97657 z"
         id="path63698-0-2-7-6-4-5-67-1-7-2-83"
         sodipodi:nodetypes="ccccc" />
      <path
         style="color:#000000;fill:none;stroke:#000000;stroke-width:0.25;stroke-miterlimit:10;stroke-dasharray:none;stroke-opacity:1"
         d="m -154.74762,377.89854 c 0.54031,-0.001 0.97761,0.43322 0.97851,0.97266 0,0.53997 -0.43243,0.9739 -0.97266,0.97656 -0.53991,0.001 -0.97761,-0.43287 -0.97851,-0.97265 0,-0.5403 0.43273,-0.9739 0.97266,-0.97657 z"
         id="path63698-0-2-7-6-4-5-95-4-29-6-8"
         sodipodi:nodetypes="ccccc" />
      <path
         style="color:#000000;fill:none;stroke:#000000;stroke-width:0.25;stroke-miterlimit:10;stroke-dasharray:none;stroke-opacity:1"
         d="m -129.64395,377.89854 c 0.5403,-0.001 0.97761,0.43322 0.97851,0.97266 0,0.53997 -0.43244,0.9739 -0.97266,0.97656 -0.53991,0.001 -0.97764,-0.43287 -0.97851,-0.97265 0,-0.5403 0.43272,-0.9739 0.97266,-0.97657 z"
         id="path63698-0-2-7-6-4-5-04-2-8-9-6"
         sodipodi:nodetypes="ccccc" />
      <path
         id="rect3549-9-6-9"
         style="fill:none;fill-opacity:0.99361;stroke:#070202;stroke-width:0.25;stroke-linecap:square;stroke-linejoin:bevel;stroke-dasharray:none;stop-color:#000000"
         d="m -157.16101,329.04479 h 29.9068 c 1.17264,0 2.11667,0.94403 2.11667,2.11667 v 49.9737 c 0,1.17263 -0.94403,2.11667 -2.11667,2.11667 h -29.9068 c -1.17266,0 -2.1167,-0.94404 -2.1167,-2.11667 v -49.9737 c 0,-1.17264 0.94404,-2.11667 2.1167,-2.11667 z" />
    </g>
  </g>
</svg>
