999
"DXF R12 Output" (www.mydxf.blogspot.com)
 0 
SECTION
 2 
HEADER
 9 
$ACADVER
 1 
AC1009
 9 
$EXTMIN
 10 
 0 
 20 
 0 
 9 
$EXTMAX
 10 
 8.5 
 20 
 11 
 0 
ENDSEC
 0 
SECTION
 2 
ENTITIES
0
LINE
8
Layer 1
10
4.655380
20
50.986800
11
5.036089
21
50.911104
0
LINE
8
Layer 1
10
5.036089
20
50.911104
11
5.346914
21
50.703140
0
LINE
8
Layer 1
10
5.346914
20
50.703140
11
5.556599
21
50.393843
0
LINE
8
Layer 1
10
5.556599
20
50.393843
11
5.633890
21
50.014150
0
LINE
8
Layer 1
10
5.633890
20
50.014150
11
5.557882
21
49.634137
0
LINE
8
Layer 1
10
5.557882
20
49.634137
11
5.350146
21
49.324378
0
LINE
8
Layer 1
10
5.350146
20
49.324378
11
5.041118
21
49.115362
0
LINE
8
Layer 1
10
5.041118
20
49.115362
11
4.661230
21
49.037580
0
LINE
8
Layer 1
10
4.661230
20
49.037580
11
4.280690
21
49.113230
0
LINE
8
Layer 1
10
4.280690
20
49.113230
11
3.969846
21
49.321116
0
LINE
8
Layer 1
10
3.969846
20
49.321116
11
3.760067
21
49.630397
0
LINE
8
Layer 1
10
3.760067
20
49.630397
11
3.682720
21
50.010230
0
LINE
8
Layer 1
10
3.682720
20
50.010230
11
3.758770
21
50.390387
0
LINE
8
Layer 1
10
3.758770
20
50.390387
11
3.966576
21
50.700130
0
LINE
8
Layer 1
10
3.966576
20
50.700130
11
4.275619
21
50.909066
0
LINE
8
Layer 1
10
4.275619
20
50.909066
11
4.655380
21
50.986800
0
LINE
8
Layer 1
10
4.655380
20
50.986800
11
4.655380
21
50.986800
0
LINE
8
Layer 1
10
29.759100
20
51.029100
11
30.139805
21
50.953402
0
LINE
8
Layer 1
10
30.139805
20
50.953402
11
30.450630
21
50.745435
0
LINE
8
Layer 1
10
30.450630
20
50.745435
11
30.660318
21
50.436135
0
LINE
8
Layer 1
10
30.660318
20
50.436135
11
30.737610
21
50.056440
0
LINE
8
Layer 1
10
30.737610
20
50.056440
11
30.661600
21
49.676427
0
LINE
8
Layer 1
10
30.661600
20
49.676427
11
30.453862
21
49.366669
0
LINE
8
Layer 1
10
30.453862
20
49.366669
11
30.144833
21
49.157656
0
LINE
8
Layer 1
10
30.144833
20
49.157656
11
29.764950
21
49.079880
0
LINE
8
Layer 1
10
29.764950
20
49.079880
11
29.384406
21
49.155528
0
LINE
8
Layer 1
10
29.384406
20
49.155528
11
29.073555
21
49.363413
0
LINE
8
Layer 1
10
29.073555
20
49.363413
11
28.863774
21
49.672693
0
LINE
8
Layer 1
10
28.863774
20
49.672693
11
28.786440
21
50.052530
0
LINE
8
Layer 1
10
28.786440
20
50.052530
11
28.862489
21
50.432683
0
LINE
8
Layer 1
10
28.862489
20
50.432683
11
29.070293
21
50.742426
0
LINE
8
Layer 1
10
29.070293
20
50.742426
11
29.379335
21
50.951364
0
LINE
8
Layer 1
10
29.379335
20
50.951364
11
29.759100
21
51.029100
0
LINE
8
Layer 1
10
29.759100
20
51.029100
11
29.759100
21
51.029100
0
LINE
8
Layer 1
10
4.655380
20
5.478460
11
5.036089
21
5.402762
0
LINE
8
Layer 1
10
5.036089
20
5.402762
11
5.346914
21
5.194795
0
LINE
8
Layer 1
10
5.346914
20
5.194795
11
5.556599
21
4.885495
0
LINE
8
Layer 1
10
5.556599
20
4.885495
11
5.633890
21
4.505800
0
LINE
8
Layer 1
10
5.633890
20
4.505800
11
5.557882
21
4.125787
0
LINE
8
Layer 1
10
5.557882
20
4.125787
11
5.350146
21
3.816029
0
LINE
8
Layer 1
10
5.350146
20
3.816029
11
5.041118
21
3.607016
0
LINE
8
Layer 1
10
5.041118
20
3.607016
11
4.661230
21
3.529240
0
LINE
8
Layer 1
10
4.661230
20
3.529240
11
4.280690
21
3.604888
0
LINE
8
Layer 1
10
4.280690
20
3.604888
11
3.969846
21
3.812772
0
LINE
8
Layer 1
10
3.969846
20
3.812772
11
3.760067
21
4.122053
0
LINE
8
Layer 1
10
3.760067
20
4.122053
11
3.682720
21
4.501890
0
LINE
8
Layer 1
10
3.682720
20
4.501890
11
3.758770
21
4.882043
0
LINE
8
Layer 1
10
3.758770
20
4.882043
11
3.966576
21
5.191786
0
LINE
8
Layer 1
10
3.966576
20
5.191786
11
4.275619
21
5.400724
0
LINE
8
Layer 1
10
4.275619
20
5.400724
11
4.655380
21
5.478460
0
LINE
8
Layer 1
10
4.655380
20
5.478460
11
4.655380
21
5.478460
0
LINE
8
Layer 1
10
29.759100
20
5.478460
11
30.139805
21
5.402762
0
LINE
8
Layer 1
10
30.139805
20
5.402762
11
30.450630
21
5.194795
0
LINE
8
Layer 1
10
30.450630
20
5.194795
11
30.660318
21
4.885495
0
LINE
8
Layer 1
10
30.660318
20
4.885495
11
30.737610
21
4.505800
0
LINE
8
Layer 1
10
30.737610
20
4.505800
11
30.661600
21
4.125787
0
LINE
8
Layer 1
10
30.661600
20
4.125787
11
30.453862
21
3.816029
0
LINE
8
Layer 1
10
30.453862
20
3.816029
11
30.144833
21
3.607016
0
LINE
8
Layer 1
10
30.144833
20
3.607016
11
29.764950
21
3.529240
0
LINE
8
Layer 1
10
29.764950
20
3.529240
11
29.384406
21
3.604888
0
LINE
8
Layer 1
10
29.384406
20
3.604888
11
29.073555
21
3.812772
0
LINE
8
Layer 1
10
29.073555
20
3.812772
11
28.863774
21
4.122053
0
LINE
8
Layer 1
10
28.863774
20
4.122053
11
28.786440
21
4.501890
0
LINE
8
Layer 1
10
28.786440
20
4.501890
11
28.862489
21
4.882043
0
LINE
8
Layer 1
10
28.862489
20
4.882043
11
29.070293
21
5.191786
0
LINE
8
Layer 1
10
29.070293
20
5.191786
11
29.379335
21
5.400724
0
LINE
8
Layer 1
10
29.379335
20
5.400724
11
29.759100
21
5.478460
0
LINE
8
Layer 1
10
29.759100
20
5.478460
11
29.759100
21
5.478460
0
LINE
8
Layer 1
10
2.241990
20
54.332200
11
32.148800
21
54.332200
0
LINE
8
Layer 1
10
32.148800
20
54.332200
11
32.974237
21
54.166373
0
LINE
8
Layer 1
10
32.974237
20
54.166373
11
33.646875
21
53.713605
0
LINE
8
Layer 1
10
33.646875
20
53.713605
11
34.099643
21
53.040967
0
LINE
8
Layer 1
10
34.099643
20
53.040967
11
34.265470
21
52.215530
0
LINE
8
Layer 1
10
34.265470
20
52.215530
11
34.265500
21
2.241840
0
LINE
8
Layer 1
10
34.265500
20
2.241840
11
34.099673
21
1.416407
0
LINE
8
Layer 1
10
34.099673
20
1.416407
11
33.646905
21
0.743769
0
LINE
8
Layer 1
10
33.646905
20
0.743769
11
32.974267
21
0.290999
0
LINE
8
Layer 1
10
32.974267
20
0.290999
11
32.148830
21
0.125170
0
LINE
8
Layer 1
10
32.148830
20
0.125170
11
2.241990
21
0.125170
0
LINE
8
Layer 1
10
2.241990
20
0.125170
11
1.416540
21
0.290999
0
LINE
8
Layer 1
10
1.416540
20
0.290999
11
0.743893
21
0.743769
0
LINE
8
Layer 1
10
0.743893
20
0.743769
11
0.291119
21
1.416407
0
LINE
8
Layer 1
10
0.291119
20
1.416407
11
0.125290
21
2.241840
0
LINE
8
Layer 1
10
0.125290
20
2.241840
11
0.125290
21
52.215500
0
LINE
8
Layer 1
10
0.125290
20
52.215500
11
0.291119
21
53.040937
0
LINE
8
Layer 1
10
0.291119
20
53.040937
11
0.743893
21
53.713575
0
LINE
8
Layer 1
10
0.743893
20
53.713575
11
1.416540
21
54.166343
0
LINE
8
Layer 1
10
1.416540
20
54.166343
11
2.241990
21
54.332170
0
LINE
8
Layer 1
10
2.241990
20
54.332170
11
2.241990
21
54.332200
 0 
ENDSEC
 0 
EOF