999
"DXF R12 Output" (www.mydxf.blogspot.com)
 0 
SECTION
 2 
HEADER
 9 
$ACADVER
 1 
AC1009
 9 
$EXTMIN
 10 
 0 
 20 
 0 
 9 
$EXTMAX
 10 
 8.5 
 20 
 11 
 0 
ENDSEC
 0 
SECTION
 2 
ENTITIES
0
LINE
8
Katman 1
10
2.876540
20
20.487300
11
1.844664
21
20.661938
0
LINE
8
Katman 1
10
1.844664
20
20.661938
11
0.971540
21
21.249300
0
LINE
8
Katman 1
10
0.971540
20
21.249300
11
0.357705
21
22.122428
0
LINE
8
Katman 1
10
0.357705
20
22.122428
11
0.124870
21
23.154300
0
LINE
8
Katman 1
10
26.329200
20
21.757300
11
27.599200
21
22.730980
0
LINE
8
Katman 1
10
2.876540
20
20.487300
11
23.323540
21
20.445000
0
LINE
8
Katman 1
10
27.599200
20
22.731000
11
32.509860
21
26.541000
0
LINE
8
Katman 1
10
32.509900
20
26.541000
11
33.271900
21
26.752660
0
LINE
8
Katman 1
10
26.329200
20
21.757300
11
24.921611
21
20.910644
0
LINE
8
Katman 1
10
24.921611
20
20.910644
11
23.323530
21
20.444980
0
LINE
8
Katman 1
10
210.691000
20
20.445000
11
209.860380
21
20.555726
0
LINE
8
Katman 1
10
209.860380
20
20.555726
11
209.074259
21
20.837404
0
LINE
8
Katman 1
10
209.074259
20
20.837404
11
207.642970
21
21.757320
0
LINE
8
Katman 1
10
177.671000
20
25.609600
11
177.753021
21
26.032272
0
LINE
8
Katman 1
10
177.753021
20
26.032272
11
177.977917
21
26.387473
0
LINE
8
Katman 1
10
177.977917
20
26.387473
11
178.313937
21
26.639484
0
LINE
8
Katman 1
10
178.313937
20
26.639484
11
178.729330
21
26.752590
0
LINE
8
Katman 1
10
210.649000
20
20.445000
11
231.096000
21
20.487300
0
LINE
8
Katman 1
10
201.420000
20
26.541000
11
207.642970
21
21.757320
0
LINE
8
Katman 1
10
233.847000
20
23.154300
11
233.607570
21
22.112506
0
LINE
8
Katman 1
10
233.607570
20
22.112506
11
233.010941
21
21.265177
0
LINE
8
Katman 1
10
233.010941
20
21.265177
11
232.144426
21
20.695660
0
LINE
8
Katman 1
10
232.144426
20
20.695660
11
231.095340
21
20.487300
0
LINE
8
Katman 1
10
178.729000
20
26.752600
11
200.658000
21
26.752600
0
LINE
8
Katman 1
10
200.658000
20
26.752600
11
201.420000
21
26.540940
0
LINE
8
Katman 1
10
211.749000
20
91.565000
11
117.177000
21
91.565000
0
LINE
8
Katman 1
10
117.177000
20
91.565000
11
22.222900
21
91.565000
0
LINE
8
Katman 1
10
97.195200
20
0.124960
11
122.130000
21
0.124960
0
LINE
8
Katman 1
10
56.301200
20
25.609600
11
56.258800
21
8.252900
0
LINE
8
Katman 1
10
55.242900
20
26.752600
11
55.658298
21
26.639507
0
LINE
8
Katman 1
10
55.658298
20
26.639507
11
55.994321
21
26.387494
0
LINE
8
Katman 1
10
55.994321
20
26.387494
11
56.219219
21
26.032286
0
LINE
8
Katman 1
10
56.219219
20
26.032286
11
56.301240
21
25.609610
0
LINE
8
Katman 1
10
33.271900
20
26.752600
11
55.242900
21
26.752600
0
LINE
8
Katman 1
10
93.215900
20
3.892630
11
97.195220
21
0.124960
0
LINE
8
Katman 1
10
57.063200
20
7.321620
11
93.215900
21
3.892630
0
LINE
8
Katman 1
10
57.063200
20
7.321620
11
56.486403
21
7.628526
0
LINE
8
Katman 1
10
56.486403
20
7.628526
11
56.258850
21
8.252960
0
LINE
8
Katman 1
10
0.167210
20
80.431300
11
0.124910
21
23.154300
0
LINE
8
Katman 1
10
19.386500
20
90.887600
11
2.283800
21
83.521600
0
LINE
8
Katman 1
10
19.595300
20
90.975200
11
19.386560
21
90.887700
0
LINE
8
Katman 1
10
0.167210
20
80.431300
11
0.337190
21
81.408275
0
LINE
8
Katman 1
10
0.337190
20
81.408275
11
0.765153
21
82.278092
0
LINE
8
Katman 1
10
0.765153
20
82.278092
11
1.423309
21
82.997096
0
LINE
8
Katman 1
10
1.423309
20
82.997096
11
2.283870
21
83.521630
0
LINE
8
Katman 1
10
19.580300
20
90.967800
11
20.869818
21
91.409255
0
LINE
8
Katman 1
10
20.869818
20
91.409255
11
22.222830
21
91.564960
0
LINE
8
Katman 1
10
233.847000
20
23.112000
11
233.804700
21
80.431300
0
LINE
8
Katman 1
10
211.749000
20
91.565000
11
213.214798
21
91.400956
0
LINE
8
Katman 1
10
213.214798
20
91.400956
11
214.585360
21
90.887660
0
LINE
8
Katman 1
10
231.688000
20
83.521600
11
232.500944
21
82.973254
0
LINE
8
Katman 1
10
232.500944
20
82.973254
11
233.143220
21
82.246311
0
LINE
8
Katman 1
10
233.143220
20
82.246311
11
233.587053
21
81.384430
0
LINE
8
Katman 1
10
233.587053
20
81.384430
11
233.804670
21
80.431270
0
LINE
8
Katman 1
10
231.688000
20
83.521600
11
214.585400
21
90.887600
0
LINE
8
Katman 1
10
140.756000
20
3.892630
11
176.908700
21
7.321620
0
LINE
8
Katman 1
10
177.713000
20
8.252960
11
177.670700
21
25.609660
0
LINE
8
Katman 1
10
177.713000
20
8.252960
11
177.469599
21
7.660293
0
LINE
8
Katman 1
10
177.469599
20
7.660293
11
176.908670
21
7.321620
0
LINE
8
Katman 1
10
122.130000
20
0.124960
11
136.777000
21
0.124960
0
LINE
8
Katman 1
10
136.777000
20
0.124960
11
140.756340
21
3.892630
0
LINE
8
Katman 1
10
114.637000
20
21.545600
11
100.624000
21
21.545600
0
LINE
8
Katman 1
10
95.544200
20
26.625600
11
81.531900
21
26.625600
0
LINE
8
Katman 1
10
100.624000
20
7.533300
11
114.637000
21
7.533300
0
LINE
8
Katman 1
10
100.624000
20
21.545600
11
100.624000
21
7.533300
0
LINE
8
Katman 1
10
81.531900
20
12.613300
11
95.544200
21
12.613300
0
LINE
8
Katman 1
10
95.544200
20
12.613300
11
95.544200
21
26.625600
0
LINE
8
Katman 1
10
81.531900
20
26.625600
11
81.531900
21
12.613300
0
LINE
8
Katman 1
10
76.451900
20
14.941600
11
76.451900
21
28.911600
0
LINE
8
Katman 1
10
62.439500
20
14.941600
11
76.451900
21
14.941600
0
LINE
8
Katman 1
10
76.451900
20
28.911600
11
62.439500
21
28.911600
0
LINE
8
Katman 1
10
62.439500
20
28.911600
11
62.439500
21
14.941600
0
LINE
8
Katman 1
10
81.531900
20
67.011600
11
81.531900
21
52.999300
0
LINE
8
Katman 1
10
95.501900
20
52.999300
11
95.501900
21
67.011600
0
LINE
8
Katman 1
10
81.531900
20
52.999300
11
95.501900
21
52.999300
0
LINE
8
Katman 1
10
81.531900
20
33.949300
11
95.501900
21
33.949300
0
LINE
8
Katman 1
10
95.501900
20
47.961600
11
81.531900
21
47.961600
0
LINE
8
Katman 1
10
81.531900
20
47.961600
11
81.531900
21
33.949300
0
LINE
8
Katman 1
10
95.501900
20
33.949300
11
95.501900
21
47.961600
0
LINE
8
Katman 1
10
95.501900
20
72.049300
11
95.501900
21
86.061600
0
LINE
8
Katman 1
10
81.531900
20
72.049300
11
95.501900
21
72.049300
0
LINE
8
Katman 1
10
81.531900
20
86.061600
11
81.531900
21
72.049300
0
LINE
8
Katman 1
10
95.501900
20
86.061600
11
81.531900
21
86.061600
0
LINE
8
Katman 1
10
62.481900
20
72.049300
11
76.451900
21
72.049300
0
LINE
8
Katman 1
10
76.451900
20
72.049300
11
76.451900
21
86.061600
0
LINE
8
Katman 1
10
76.451900
20
86.061600
11
62.481900
21
86.061600
0
LINE
8
Katman 1
10
62.481900
20
86.061600
11
62.481900
21
72.049300
0
LINE
8
Katman 1
10
95.501900
20
67.011600
11
81.531900
21
67.011600
0
LINE
8
Katman 1
10
62.481900
20
67.011600
11
62.481900
21
52.999300
0
LINE
8
Katman 1
10
76.451900
20
52.999300
11
76.451900
21
67.011600
0
LINE
8
Katman 1
10
76.451900
20
67.011600
11
62.481900
21
67.011600
0
LINE
8
Katman 1
10
62.481900
20
52.999300
11
76.451900
21
52.999300
0
LINE
8
Katman 1
10
76.451900
20
47.961600
11
62.481900
21
47.961600
0
LINE
8
Katman 1
10
62.481900
20
33.949300
11
76.451900
21
33.949300
0
LINE
8
Katman 1
10
76.451900
20
33.949300
11
76.451900
21
47.961600
0
LINE
8
Katman 1
10
62.481900
20
47.961600
11
62.481900
21
33.949300
0
LINE
8
Katman 1
10
57.401900
20
52.999300
11
57.401900
21
67.011600
0
LINE
8
Katman 1
10
43.431900
20
52.999300
11
57.401900
21
52.999300
0
LINE
8
Katman 1
10
57.401900
20
67.011600
11
43.431900
21
67.011600
0
LINE
8
Katman 1
10
43.431900
20
67.011600
11
43.431900
21
52.999300
0
LINE
8
Katman 1
10
38.351900
20
52.999300
11
38.351900
21
67.011600
0
LINE
8
Katman 1
10
38.351900
20
67.011600
11
24.381900
21
67.011600
0
LINE
8
Katman 1
10
38.351900
20
86.061600
11
24.381900
21
86.061600
0
LINE
8
Katman 1
10
38.351900
20
72.049300
11
38.351900
21
86.061600
0
LINE
8
Katman 1
10
24.381900
20
72.049300
11
38.351900
21
72.049300
0
LINE
8
Katman 1
10
24.381900
20
86.061600
11
24.381900
21
72.049300
0
LINE
8
Katman 1
10
24.381900
20
52.999300
11
38.351900
21
52.999300
0
LINE
8
Katman 1
10
24.381900
20
67.011600
11
24.381900
21
52.999300
0
LINE
8
Katman 1
10
38.351900
20
47.961600
11
24.381900
21
47.961600
0
LINE
8
Katman 1
10
24.381900
20
33.949300
11
38.351900
21
33.949300
0
LINE
8
Katman 1
10
38.351900
20
33.949300
11
38.351900
21
47.961600
0
LINE
8
Katman 1
10
5.331870
20
41.188300
11
5.331870
21
27.218300
0
LINE
8
Katman 1
10
19.301900
20
27.218300
11
19.301900
21
41.188300
0
LINE
8
Katman 1
10
19.301900
20
41.188300
11
5.331870
21
41.188300
0
LINE
8
Katman 1
10
5.331870
20
27.218300
11
19.301900
21
27.218300
0
LINE
8
Katman 1
10
24.381900
20
47.961600
11
24.381900
21
33.949300
0
LINE
8
Katman 1
10
57.401900
20
33.949300
11
57.401900
21
47.961600
0
LINE
8
Katman 1
10
57.401900
20
47.961600
11
43.431900
21
47.961600
0
LINE
8
Katman 1
10
43.431900
20
47.961600
11
43.431900
21
33.949300
0
LINE
8
Katman 1
10
43.431900
20
33.949300
11
57.401900
21
33.949300
0
LINE
8
Katman 1
10
43.431900
20
86.061600
11
43.431900
21
72.049300
0
LINE
8
Katman 1
10
57.401900
20
86.061600
11
43.431900
21
86.061600
0
LINE
8
Katman 1
10
57.401900
20
72.049300
11
57.401900
21
86.061600
0
LINE
8
Katman 1
10
43.431900
20
72.049300
11
57.401900
21
72.049300
0
LINE
8
Katman 1
10
5.331870
20
46.268300
11
19.301900
21
46.268300
0
LINE
8
Katman 1
10
5.331870
20
60.238300
11
5.331870
21
46.268300
0
LINE
8
Katman 1
10
19.301900
20
60.238300
11
5.331870
21
60.238300
0
LINE
8
Katman 1
10
19.301900
20
46.268300
11
19.301900
21
60.238300
0
LINE
8
Katman 1
10
5.331870
20
79.288300
11
5.331870
21
65.318300
0
LINE
8
Katman 1
10
5.331870
20
65.318300
11
19.301900
21
65.318300
0
LINE
8
Katman 1
10
19.301900
20
79.288300
11
5.331870
21
79.288300
0
LINE
8
Katman 1
10
19.301900
20
65.318300
11
19.301900
21
79.288300
0
LINE
8
Katman 1
10
138.724000
20
52.999300
11
152.694000
21
52.999300
0
LINE
8
Katman 1
10
152.694000
20
47.961600
11
138.724000
21
47.961600
0
LINE
8
Katman 1
10
152.694000
20
33.949300
11
152.694000
21
47.961600
0
LINE
8
Katman 1
10
138.724000
20
47.961600
11
138.724000
21
33.949300
0
LINE
8
Katman 1
10
138.724000
20
26.625600
11
138.724000
21
12.613300
0
LINE
8
Katman 1
10
152.694000
20
26.625600
11
138.724000
21
26.625600
0
LINE
8
Katman 1
10
138.724000
20
12.613300
11
152.694000
21
12.613300
0
LINE
8
Katman 1
10
152.694000
20
12.613300
11
152.694000
21
26.625600
0
LINE
8
Katman 1
10
138.724000
20
33.949300
11
152.694000
21
33.949300
0
LINE
8
Katman 1
10
133.644000
20
7.533300
11
133.644000
21
21.545600
0
LINE
8
Katman 1
10
133.644000
20
21.545600
11
119.674000
21
21.545600
0
LINE
8
Katman 1
10
119.674000
20
21.545600
11
119.674000
21
7.533300
0
LINE
8
Katman 1
10
119.674000
20
7.533300
11
133.644000
21
7.533300
0
LINE
8
Katman 1
10
114.637000
20
7.533300
11
114.637000
21
21.545600
0
LINE
8
Katman 1
10
152.694000
20
52.999300
11
152.694000
21
67.011600
0
LINE
8
Katman 1
10
138.724000
20
67.011600
11
138.724000
21
52.999300
0
LINE
8
Katman 1
10
157.774000
20
67.011600
11
157.774000
21
52.999300
0
LINE
8
Katman 1
10
176.824000
20
72.049300
11
190.794000
21
72.049300
0
LINE
8
Katman 1
10
190.794000
20
86.061600
11
176.824000
21
86.061600
0
LINE
8
Katman 1
10
176.824000
20
67.011600
11
176.824000
21
52.999300
0
LINE
8
Katman 1
10
190.794000
20
67.011600
11
176.824000
21
67.011600
0
LINE
8
Katman 1
10
171.744000
20
52.999300
11
171.744000
21
67.011600
0
LINE
8
Katman 1
10
176.824000
20
86.061600
11
176.824000
21
72.049300
0
LINE
8
Katman 1
10
171.744000
20
72.049300
11
171.744000
21
86.061600
0
LINE
8
Katman 1
10
157.774000
20
72.049300
11
171.744000
21
72.049300
0
LINE
8
Katman 1
10
157.774000
20
86.061600
11
157.774000
21
72.049300
0
LINE
8
Katman 1
10
171.744000
20
86.061600
11
157.774000
21
86.061600
0
LINE
8
Katman 1
10
171.744000
20
67.011600
11
157.774000
21
67.011600
0
LINE
8
Katman 1
10
152.694000
20
86.061600
11
138.724000
21
86.061600
0
LINE
8
Katman 1
10
152.694000
20
72.049300
11
152.694000
21
86.061600
0
LINE
8
Katman 1
10
138.724000
20
72.049300
11
152.694000
21
72.049300
0
LINE
8
Katman 1
10
138.724000
20
86.061600
11
138.724000
21
72.049300
0
LINE
8
Katman 1
10
152.694000
20
67.011600
11
138.724000
21
67.011600
0
LINE
8
Katman 1
10
171.787000
20
14.941600
11
171.787000
21
28.911600
0
LINE
8
Katman 1
10
157.774000
20
28.911600
11
157.774000
21
14.941600
0
LINE
8
Katman 1
10
157.774000
20
14.941600
11
171.787000
21
14.941600
0
LINE
8
Katman 1
10
171.787000
20
28.911600
11
157.774000
21
28.911600
0
LINE
8
Katman 1
10
176.824000
20
47.961600
11
176.824000
21
33.949300
0
LINE
8
Katman 1
10
157.774000
20
52.999300
11
171.744000
21
52.999300
0
LINE
8
Katman 1
10
157.753000
20
47.982800
11
157.753000
21
33.970500
0
LINE
8
Katman 1
10
171.744000
20
33.949300
11
171.744000
21
47.961600
0
LINE
8
Katman 1
10
171.744000
20
47.961600
11
157.774000
21
47.961600
0
LINE
8
Katman 1
10
157.774000
20
33.949300
11
171.744000
21
33.949300
0
LINE
8
Katman 1
10
228.894000
20
60.238300
11
214.882000
21
60.238300
0
LINE
8
Katman 1
10
214.882000
20
46.226000
11
228.894000
21
46.226000
0
LINE
8
Katman 1
10
214.882000
20
60.238300
11
214.882000
21
46.226000
0
LINE
8
Katman 1
10
228.894000
20
46.226000
11
228.894000
21
60.238300
0
LINE
8
Katman 1
10
228.894000
20
41.188300
11
214.882000
21
41.188300
0
LINE
8
Katman 1
10
190.794000
20
72.049300
11
190.794000
21
86.061600
0
LINE
8
Katman 1
10
195.874000
20
86.061600
11
195.874000
21
72.049300
0
LINE
8
Katman 1
10
209.844000
20
86.061600
11
195.874000
21
86.061600
0
LINE
8
Katman 1
10
195.874000
20
72.049300
11
209.844000
21
72.049300
0
LINE
8
Katman 1
10
209.844000
20
72.049300
11
209.844000
21
86.061600
0
LINE
8
Katman 1
10
209.844000
20
67.011600
11
195.874000
21
67.011600
0
LINE
8
Katman 1
10
195.874000
20
52.999300
11
209.844000
21
52.999300
0
LINE
8
Katman 1
10
195.874000
20
67.011600
11
195.874000
21
52.999300
0
LINE
8
Katman 1
10
209.844000
20
52.999300
11
209.844000
21
67.011600
0
LINE
8
Katman 1
10
209.844000
20
47.961600
11
195.874000
21
47.961600
0
LINE
8
Katman 1
10
190.794000
20
47.961600
11
176.824000
21
47.961600
0
LINE
8
Katman 1
10
176.824000
20
33.949300
11
190.794000
21
33.949300
0
LINE
8
Katman 1
10
190.794000
20
33.949300
11
190.794000
21
47.961600
0
LINE
8
Katman 1
10
176.824000
20
52.999300
11
190.794000
21
52.999300
0
LINE
8
Katman 1
10
190.794000
20
52.999300
11
190.794000
21
67.011600
0
LINE
8
Katman 1
10
195.874000
20
47.961600
11
195.874000
21
33.949300
0
LINE
8
Katman 1
10
214.882000
20
27.176000
11
228.894000
21
27.176000
0
LINE
8
Katman 1
10
214.882000
20
41.188300
11
214.882000
21
27.176000
0
LINE
8
Katman 1
10
228.894000
20
27.176000
11
228.894000
21
41.188300
0
LINE
8
Katman 1
10
195.874000
20
33.949300
11
209.844000
21
33.949300
0
LINE
8
Katman 1
10
209.844000
20
33.949300
11
209.844000
21
47.961600
0
LINE
8
Katman 1
10
228.894000
20
65.276000
11
228.894000
21
79.288300
0
LINE
8
Katman 1
10
228.894000
20
79.288300
11
214.882000
21
79.288300
0
LINE
8
Katman 1
10
214.882000
20
65.276000
11
228.894000
21
65.276000
0
LINE
8
Katman 1
10
214.882000
20
79.288300
11
214.882000
21
65.276000
0
LINE
8
Katman 1
10
18.600400
20
86.295400
11
18.981106
21
86.219704
0
LINE
8
Katman 1
10
18.981106
20
86.219704
11
19.291934
21
86.011740
0
LINE
8
Katman 1
10
19.291934
20
86.011740
11
19.501622
21
85.702443
0
LINE
8
Katman 1
10
19.501622
20
85.702443
11
19.578910
21
85.322750
0
LINE
8
Katman 1
10
19.578910
20
85.322750
11
19.503325
21
84.942737
0
LINE
8
Katman 1
10
19.503325
20
84.942737
11
19.295546
21
84.632979
0
LINE
8
Katman 1
10
19.295546
20
84.632979
11
18.986287
21
84.423966
0
LINE
8
Katman 1
10
18.986287
20
84.423966
11
18.606260
21
84.346190
0
LINE
8
Katman 1
10
18.606260
20
84.346190
11
18.225717
21
84.421838
0
LINE
8
Katman 1
10
18.225717
20
84.421838
11
17.914867
21
84.629722
0
LINE
8
Katman 1
10
17.914867
20
84.629722
11
17.705084
21
84.939003
0
LINE
8
Katman 1
10
17.705084
20
84.939003
11
17.627740
21
85.318840
0
LINE
8
Katman 1
10
17.627740
20
85.318840
11
17.703367
21
85.698993
0
LINE
8
Katman 1
10
17.703367
20
85.698993
11
17.911217
21
86.008735
0
LINE
8
Katman 1
10
17.911217
20
86.008735
11
18.220494
21
86.217670
0
LINE
8
Katman 1
10
18.220494
20
86.217670
11
18.600400
21
86.295400
0
LINE
8
Katman 1
10
18.600400
20
86.295400
11
18.600400
21
86.295400
0
LINE
8
Katman 1
10
26.855500
20
28.679700
11
27.236206
21
28.604002
0
LINE
8
Katman 1
10
27.236206
20
28.604002
11
27.547034
21
28.396035
0
LINE
8
Katman 1
10
27.547034
20
28.396035
11
27.756722
21
28.086735
0
LINE
8
Katman 1
10
27.756722
20
28.086735
11
27.834010
21
27.707040
0
LINE
8
Katman 1
10
27.834010
20
27.707040
11
27.758424
21
27.327027
0
LINE
8
Katman 1
10
27.758424
20
27.327027
11
27.550642
21
27.017269
0
LINE
8
Katman 1
10
27.550642
20
27.017269
11
27.241382
21
26.808256
0
LINE
8
Katman 1
10
27.241382
20
26.808256
11
26.861360
21
26.730480
0
LINE
8
Katman 1
10
26.861360
20
26.730480
11
26.480813
21
26.806128
0
LINE
8
Katman 1
10
26.480813
20
26.806128
11
26.169964
21
27.014012
0
LINE
8
Katman 1
10
26.169964
20
27.014012
11
25.960183
21
27.323293
0
LINE
8
Katman 1
10
25.960183
20
27.323293
11
25.882840
21
27.703130
0
LINE
8
Katman 1
10
25.882840
20
27.703130
11
25.958467
21
28.083283
0
LINE
8
Katman 1
10
25.958467
20
28.083283
11
26.166317
21
28.393026
0
LINE
8
Katman 1
10
26.166317
20
28.393026
11
26.475594
21
28.601964
0
LINE
8
Katman 1
10
26.475594
20
28.601964
11
26.855500
21
28.679700
0
LINE
8
Katman 1
10
26.855500
20
28.679700
11
26.855500
21
28.679700
0
LINE
8
Katman 1
10
78.417400
20
12.296700
11
78.798106
21
12.221002
0
LINE
8
Katman 1
10
78.798106
20
12.221002
11
79.108934
21
12.013035
0
LINE
8
Katman 1
10
79.108934
20
12.013035
11
79.318622
21
11.703735
0
LINE
8
Katman 1
10
79.318622
20
11.703735
11
79.395910
21
11.324040
0
LINE
8
Katman 1
10
79.395910
20
11.324040
11
79.320325
21
10.944027
0
LINE
8
Katman 1
10
79.320325
20
10.944027
11
79.112546
21
10.634269
0
LINE
8
Katman 1
10
79.112546
20
10.634269
11
78.803287
21
10.425256
0
LINE
8
Katman 1
10
78.803287
20
10.425256
11
78.423260
21
10.347480
0
LINE
8
Katman 1
10
78.423260
20
10.347480
11
78.042717
21
10.423128
0
LINE
8
Katman 1
10
78.042717
20
10.423128
11
77.731867
21
10.631013
0
LINE
8
Katman 1
10
77.731867
20
10.631013
11
77.522084
21
10.940293
0
LINE
8
Katman 1
10
77.522084
20
10.940293
11
77.444740
21
11.320130
0
LINE
8
Katman 1
10
77.444740
20
11.320130
11
77.520367
21
11.700283
0
LINE
8
Katman 1
10
77.520367
20
11.700283
11
77.728217
21
12.010026
0
LINE
8
Katman 1
10
77.728217
20
12.010026
11
78.037494
21
12.218964
0
LINE
8
Katman 1
10
78.037494
20
12.218964
11
78.417400
21
12.296700
0
LINE
8
Katman 1
10
78.417400
20
12.296700
11
78.417400
21
12.296700
0
LINE
8
Katman 1
10
155.549000
20
12.339100
11
155.929706
21
12.263402
0
LINE
8
Katman 1
10
155.929706
20
12.263402
11
156.240534
21
12.055435
0
LINE
8
Katman 1
10
156.240534
20
12.055435
11
156.450222
21
11.746135
0
LINE
8
Katman 1
10
156.450222
20
11.746135
11
156.527510
21
11.366440
0
LINE
8
Katman 1
10
156.527510
20
11.366440
11
156.451925
21
10.986427
0
LINE
8
Katman 1
10
156.451925
20
10.986427
11
156.244146
21
10.676669
0
LINE
8
Katman 1
10
156.244146
20
10.676669
11
155.934887
21
10.467656
0
LINE
8
Katman 1
10
155.934887
20
10.467656
11
155.554860
21
10.389880
0
LINE
8
Katman 1
10
155.554860
20
10.389880
11
155.174317
21
10.465528
0
LINE
8
Katman 1
10
155.174317
20
10.465528
11
154.863468
21
10.673413
0
LINE
8
Katman 1
10
154.863468
20
10.673413
11
154.653684
21
10.982693
0
LINE
8
Katman 1
10
154.653684
20
10.982693
11
154.576340
21
11.362530
0
LINE
8
Katman 1
10
154.576340
20
11.362530
11
154.651967
21
11.742683
0
LINE
8
Katman 1
10
154.651967
20
11.742683
11
154.859818
21
12.052426
0
LINE
8
Katman 1
10
154.859818
20
12.052426
11
155.169094
21
12.261364
0
LINE
8
Katman 1
10
155.169094
20
12.261364
11
155.549000
21
12.339100
0
LINE
8
Katman 1
10
155.549000
20
12.339100
11
155.549000
21
12.339100
0
LINE
8
Katman 1
10
207.026000
20
28.722100
11
207.406708
21
28.646403
0
LINE
8
Katman 1
10
207.406708
20
28.646403
11
207.717540
21
28.438435
0
LINE
8
Katman 1
10
207.717540
20
28.438435
11
207.927235
21
28.129135
0
LINE
8
Katman 1
10
207.927235
20
28.129135
11
208.004530
21
27.749440
0
LINE
8
Katman 1
10
208.004530
20
27.749440
11
207.928522
21
27.369427
0
LINE
8
Katman 1
10
207.928522
20
27.369427
11
207.720786
21
27.059669
0
LINE
8
Katman 1
10
207.720786
20
27.059669
11
207.411758
21
26.850656
0
LINE
8
Katman 1
10
207.411758
20
26.850656
11
207.031870
21
26.772880
0
LINE
8
Katman 1
10
207.031870
20
26.772880
11
206.651327
21
26.848528
0
LINE
8
Katman 1
10
206.651327
20
26.848528
11
206.340479
21
27.056413
0
LINE
8
Katman 1
10
206.340479
20
27.056413
11
206.130699
21
27.365693
0
LINE
8
Katman 1
10
206.130699
20
27.365693
11
206.053360
21
27.745530
0
LINE
8
Katman 1
10
206.053360
20
27.745530
11
206.129406
21
28.125683
0
LINE
8
Katman 1
10
206.129406
20
28.125683
11
206.337203
21
28.435426
0
LINE
8
Katman 1
10
206.337203
20
28.435426
11
206.646238
21
28.644364
0
LINE
8
Katman 1
10
206.646238
20
28.644364
11
207.026000
21
28.722100
0
LINE
8
Katman 1
10
207.026000
20
28.722100
11
207.026000
21
28.722100
0
LINE
8
Katman 1
10
215.281000
20
86.337700
11
215.661707
21
86.262003
0
LINE
8
Katman 1
10
215.661707
20
86.262003
11
215.972536
21
86.054035
0
LINE
8
Katman 1
10
215.972536
20
86.054035
11
216.182222
21
85.744735
0
LINE
8
Katman 1
10
216.182222
20
85.744735
11
216.259500
21
85.365040
0
LINE
8
Katman 1
10
216.259500
20
85.365040
11
216.183496
21
84.985027
0
LINE
8
Katman 1
10
216.183496
20
84.985027
11
215.975771
21
84.675269
0
LINE
8
Katman 1
10
215.975771
20
84.675269
11
215.666753
21
84.466256
0
LINE
8
Katman 1
10
215.666753
20
84.466256
11
215.286870
21
84.388480
0
LINE
8
Katman 1
10
215.286870
20
84.388480
11
214.906327
21
84.464128
0
LINE
8
Katman 1
10
214.906327
20
84.464128
11
214.595475
21
84.672012
0
LINE
8
Katman 1
10
214.595475
20
84.672012
11
214.385686
21
84.981293
0
LINE
8
Katman 1
10
214.385686
20
84.981293
11
214.308330
21
85.361130
0
LINE
8
Katman 1
10
214.308330
20
85.361130
11
214.384381
21
85.741283
0
LINE
8
Katman 1
10
214.384381
20
85.741283
11
214.592187
21
86.051026
0
LINE
8
Katman 1
10
214.592187
20
86.051026
11
214.901233
21
86.259964
0
LINE
8
Katman 1
10
214.901233
20
86.259964
11
215.281000
21
86.337700
0
LINE
8
Katman 1
10
215.281000
20
86.337700
11
215.281000
21
86.337700
0
LINE
8
Katman 1
10
129.387000
20
84.940700
11
129.767706
21
84.865003
0
LINE
8
Katman 1
10
129.767706
20
84.865003
11
130.078534
21
84.657035
0
LINE
8
Katman 1
10
130.078534
20
84.657035
11
130.288222
21
84.347735
0
LINE
8
Katman 1
10
130.288222
20
84.347735
11
130.365510
21
83.968040
0
LINE
8
Katman 1
10
130.365510
20
83.968040
11
130.289925
21
83.588027
0
LINE
8
Katman 1
10
130.289925
20
83.588027
11
130.082146
21
83.278269
0
LINE
8
Katman 1
10
130.082146
20
83.278269
11
129.772887
21
83.069256
0
LINE
8
Katman 1
10
129.772887
20
83.069256
11
129.392860
21
82.991480
0
LINE
8
Katman 1
10
129.392860
20
82.991480
11
129.012317
21
83.067128
0
LINE
8
Katman 1
10
129.012317
20
83.067128
11
128.701468
21
83.275013
0
LINE
8
Katman 1
10
128.701468
20
83.275013
11
128.491684
21
83.584293
0
LINE
8
Katman 1
10
128.491684
20
83.584293
11
128.414340
21
83.964130
0
LINE
8
Katman 1
10
128.414340
20
83.964130
11
128.489967
21
84.344283
0
LINE
8
Katman 1
10
128.489967
20
84.344283
11
128.697817
21
84.654026
0
LINE
8
Katman 1
10
128.697817
20
84.654026
11
129.007094
21
84.862964
0
LINE
8
Katman 1
10
129.007094
20
84.862964
11
129.387000
21
84.940700
0
LINE
8
Katman 1
10
129.387000
20
84.940700
11
129.387000
21
84.940700
0
LINE
8
Katman 1
10
104.410000
20
84.940700
11
104.790706
21
84.865003
0
LINE
8
Katman 1
10
104.790706
20
84.865003
11
105.101534
21
84.657035
0
LINE
8
Katman 1
10
105.101534
20
84.657035
11
105.311222
21
84.347735
0
LINE
8
Katman 1
10
105.311222
20
84.347735
11
105.388510
21
83.968040
0
LINE
8
Katman 1
10
105.388510
20
83.968040
11
105.312925
21
83.588027
0
LINE
8
Katman 1
10
105.312925
20
83.588027
11
105.105146
21
83.278269
0
LINE
8
Katman 1
10
105.105146
20
83.278269
11
104.795887
21
83.069256
0
LINE
8
Katman 1
10
104.795887
20
83.069256
11
104.415860
21
82.991480
0
LINE
8
Katman 1
10
104.415860
20
82.991480
11
104.035317
21
83.067128
0
LINE
8
Katman 1
10
104.035317
20
83.067128
11
103.724467
21
83.275013
0
LINE
8
Katman 1
10
103.724467
20
83.275013
11
103.514684
21
83.584293
0
LINE
8
Katman 1
10
103.514684
20
83.584293
11
103.437340
21
83.964130
0
LINE
8
Katman 1
10
103.437340
20
83.964130
11
103.512967
21
84.344283
0
LINE
8
Katman 1
10
103.512967
20
84.344283
11
103.720817
21
84.654026
0
LINE
8
Katman 1
10
103.720817
20
84.654026
11
104.030094
21
84.862964
0
LINE
8
Katman 1
10
104.030094
20
84.862964
11
104.410000
21
84.940700
0
LINE
8
Katman 1
10
104.410000
20
84.940700
11
104.410000
21
84.940700
0
LINE
8
Katman 1
10
102.503000
20
77.790700
11
131.325000
21
77.790700
0
LINE
8
Katman 1
10
131.325000
20
77.790700
11
131.944077
21
77.666329
0
LINE
8
Katman 1
10
131.944077
20
77.666329
11
132.448555
21
77.326751
0
LINE
8
Katman 1
10
132.448555
20
77.326751
11
132.788130
21
76.822273
0
LINE
8
Katman 1
10
132.788130
20
76.822273
11
132.912500
21
76.203200
0
LINE
8
Katman 1
10
132.912500
20
76.203200
11
132.913000
21
27.290700
0
LINE
8
Katman 1
10
132.913000
20
27.290700
11
132.788630
21
26.671627
0
LINE
8
Katman 1
10
132.788630
20
26.671627
11
132.449055
21
26.167149
0
LINE
8
Katman 1
10
132.449055
20
26.167149
11
131.944578
21
25.827571
0
LINE
8
Katman 1
10
131.944578
20
25.827571
11
131.325500
21
25.703200
0
LINE
8
Katman 1
10
131.325500
20
25.703200
11
102.503000
21
25.703200
0
LINE
8
Katman 1
10
102.503000
20
25.703200
11
101.883922
21
25.827571
0
LINE
8
Katman 1
10
101.883922
20
25.827571
11
101.379445
21
26.167149
0
LINE
8
Katman 1
10
101.379445
20
26.167149
11
101.039870
21
26.671627
0
LINE
8
Katman 1
10
101.039870
20
26.671627
11
100.915500
21
27.290700
0
LINE
8
Katman 1
10
100.915500
20
27.290700
11
100.915000
21
76.203200
0
LINE
8
Katman 1
10
100.915000
20
76.203200
11
101.039370
21
76.822273
0
LINE
8
Katman 1
10
101.039370
20
76.822273
11
101.378945
21
77.326751
0
LINE
8
Katman 1
10
101.378945
20
77.326751
11
101.883423
21
77.666329
0
LINE
8
Katman 1
10
101.883423
20
77.666329
11
102.502500
21
77.790700
0
LINE
8
Katman 1
10
102.502500
20
77.790700
11
102.503000
21
77.790700
 0 
ENDSEC
 0 
EOF