999
"DXF R12 Output" (www.mydxf.blogspot.com)
 0 
SECTION
 2 
HEADER
 9 
$ACADVER
 1 
AC1009
 9 
$EXTMIN
 10 
 0 
 20 
 0 
 9 
$EXTMAX
 10 
 8.5 
 20 
 11 
 0 
ENDSEC
 0 
SECTION
 2 
ENTITIES
0
LINE
8
Layer 1
10
2.876580
20
20.487200
11
1.844707
21
20.661830
0
LINE
8
Layer 1
10
1.844707
20
20.661830
11
0.971590
21
21.249202
0
LINE
8
Layer 1
10
0.971590
20
21.249202
11
0.357750
21
22.122350
0
LINE
8
Layer 1
10
0.357750
20
22.122350
11
0.124916
21
23.154200
0
LINE
8
Layer 1
10
26.329300
20
21.757200
11
27.599300
21
22.730900
0
LINE
8
Layer 1
10
2.876680
20
20.487200
11
23.323680
21
20.444875
0
LINE
8
Layer 1
10
27.599300
20
22.730900
11
32.509960
21
26.540890
0
LINE
8
Layer 1
10
32.510000
20
26.540900
11
33.272002
21
26.752564
0
LINE
8
Layer 1
10
26.329300
20
21.757200
11
24.921716
21
20.910544
0
LINE
8
Layer 1
10
24.921716
20
20.910544
11
23.323630
21
20.444880
0
LINE
8
Layer 1
10
210.648000
20
20.444900
11
209.023501
21
20.878843
0
LINE
8
Layer 1
10
209.023501
20
20.878843
11
207.642280
21
21.757220
0
LINE
8
Layer 1
10
177.671000
20
25.609600
11
177.753021
21
26.032269
0
LINE
8
Layer 1
10
177.753021
20
26.032269
11
177.977916
21
26.387470
0
LINE
8
Layer 1
10
177.977916
20
26.387470
11
178.313936
21
26.639483
0
LINE
8
Layer 1
10
178.313936
20
26.639483
11
178.729330
21
26.752590
0
LINE
8
Layer 1
10
210.648000
20
20.444900
11
231.094900
21
20.487225
0
LINE
8
Layer 1
10
201.420000
20
26.540900
11
207.642970
21
21.757230
0
LINE
8
Layer 1
10
233.847000
20
23.111900
11
233.607556
21
22.076718
0
LINE
8
Layer 1
10
233.607556
20
22.076718
11
233.010929
21
21.243937
0
LINE
8
Layer 1
10
233.010929
20
21.243937
11
232.144422
21
20.688968
0
LINE
8
Layer 1
10
232.144422
20
20.688968
11
231.095340
21
20.487220
0
LINE
8
Layer 1
10
178.729000
20
26.752500
11
200.658000
21
26.752500
0
LINE
8
Layer 1
10
200.658000
20
26.752500
11
201.091228
21
26.714292
0
LINE
8
Layer 1
10
201.091228
20
26.714292
11
201.419999
21
26.540836
0
LINE
8
Layer 1
10
112.033000
20
91.564800
11
112.033000
21
90.552900
0
LINE
8
Layer 1
10
112.033000
20
90.552900
11
110.974660
21
90.534261
0
LINE
8
Layer 1
10
110.974660
20
90.534261
11
110.975000
21
82.356600
0
LINE
8
Layer 1
10
211.749000
20
91.564400
11
122.320000
21
91.564400
0
LINE
8
Layer 1
10
123.378000
20
82.356000
11
110.975000
21
82.356000
0
LINE
8
Layer 1
10
97.195200
20
0.124917
11
122.130000
21
0.124917
0
LINE
8
Layer 1
10
56.301300
20
25.609600
11
56.258956
21
8.252900
0
LINE
8
Layer 1
10
55.242900
20
26.752500
11
55.658294
21
26.639395
0
LINE
8
Layer 1
10
55.658294
20
26.639395
11
55.994314
21
26.387383
0
LINE
8
Layer 1
10
55.994314
20
26.387383
11
56.219209
21
26.032182
0
LINE
8
Layer 1
10
56.219209
20
26.032182
11
56.301230
21
25.609510
0
LINE
8
Layer 1
10
33.272000
20
26.752500
11
55.242900
21
26.752500
0
LINE
8
Layer 1
10
93.215900
20
3.892580
11
97.195200
21
0.124917
0
LINE
8
Layer 1
10
57.063300
20
7.321560
11
93.215900
21
3.892570
0
LINE
8
Layer 1
10
112.034000
20
91.564800
11
22.223400
21
91.564800
0
LINE
8
Layer 1
10
57.063300
20
7.321560
11
56.486509
21
7.628475
0
LINE
8
Layer 1
10
56.486509
20
7.628475
11
56.258957
21
8.252897
0
LINE
8
Layer 1
10
0.167349
20
80.431100
11
0.125016
21
23.154200
0
LINE
8
Layer 1
10
19.386700
20
90.887500
11
2.284010
21
83.521500
0
LINE
8
Layer 1
10
19.598300
20
90.972100
11
19.386700
21
90.887500
0
LINE
8
Layer 1
10
0.167349
20
80.431100
11
0.337343
21
81.408070
0
LINE
8
Layer 1
10
0.337343
20
81.408070
11
0.765305
21
82.277885
0
LINE
8
Layer 1
10
0.765305
20
82.277885
11
1.423454
21
82.996890
0
LINE
8
Layer 1
10
1.423454
20
82.996890
11
2.284009
21
83.521430
0
LINE
8
Layer 1
10
19.598300
20
90.972100
11
20.878879
21
91.411306
0
LINE
8
Layer 1
10
20.878879
20
91.411306
11
22.222960
21
91.564763
0
LINE
8
Layer 1
10
233.847000
20
23.111900
11
233.805000
21
80.431100
0
LINE
8
Layer 1
10
211.749000
20
91.564800
11
213.214794
21
91.400760
0
LINE
8
Layer 1
10
213.214794
20
91.400760
11
214.585360
21
90.887468
0
LINE
8
Layer 1
10
231.688000
20
83.521500
11
232.500942
21
82.973153
0
LINE
8
Layer 1
10
232.500942
20
82.973153
11
233.143215
21
82.246210
0
LINE
8
Layer 1
10
233.143215
20
82.246210
11
233.587045
21
81.384330
0
LINE
8
Layer 1
10
233.587045
20
81.384330
11
233.804660
21
80.431170
0
LINE
8
Layer 1
10
231.688000
20
83.521500
11
214.585000
21
90.887500
0
LINE
8
Layer 1
10
140.756000
20
3.892580
11
176.909000
21
7.321560
0
LINE
8
Layer 1
10
177.713000
20
8.252900
11
177.670667
21
25.609600
0
LINE
8
Layer 1
10
177.713000
20
8.252900
11
177.469584
21
7.660236
0
LINE
8
Layer 1
10
177.469584
20
7.660236
11
176.908668
21
7.321563
0
LINE
8
Layer 1
10
122.130000
20
0.124917
11
136.777000
21
0.124917
0
LINE
8
Layer 1
10
136.777000
20
0.124917
11
140.756340
21
3.892577
0
LINE
8
Layer 1
10
106.932000
20
83.944600
11
106.732240
21
82.982843
0
LINE
8
Layer 1
10
106.732240
20
82.982843
11
106.191168
21
82.187772
0
LINE
8
Layer 1
10
106.191168
20
82.187772
11
105.396097
21
81.646700
0
LINE
8
Layer 1
10
105.396097
20
81.646700
11
104.434340
21
81.446940
0
LINE
8
Layer 1
10
104.434340
20
81.446940
11
103.448106
21
81.646700
0
LINE
8
Layer 1
10
103.448106
20
81.646700
11
102.640465
21
82.187772
0
LINE
8
Layer 1
10
102.640465
20
82.187772
11
102.094762
21
82.982843
0
LINE
8
Layer 1
10
102.094762
20
82.982843
11
101.894340
21
83.944600
0
LINE
8
Layer 1
10
101.894340
20
83.944600
11
102.094762
21
84.930834
0
LINE
8
Layer 1
10
102.094762
20
84.930834
11
102.640465
21
85.738475
0
LINE
8
Layer 1
10
102.640465
20
85.738475
11
103.448106
21
86.284178
0
LINE
8
Layer 1
10
103.448106
20
86.284178
11
104.434340
21
86.484600
0
LINE
8
Layer 1
10
104.434340
20
86.484600
11
105.396097
21
86.284178
0
LINE
8
Layer 1
10
105.396097
20
86.284178
11
106.191168
21
85.738475
0
LINE
8
Layer 1
10
106.191168
20
85.738475
11
106.732240
21
84.930834
0
LINE
8
Layer 1
10
106.732240
20
84.930834
11
106.932000
21
83.944600
0
LINE
8
Layer 1
10
106.932000
20
83.944600
11
106.932000
21
83.944600
0
LINE
8
Layer 1
10
21.122500
20
85.299200
11
20.922740
21
84.337443
0
LINE
8
Layer 1
10
20.922740
20
84.337443
11
20.381667
21
83.542372
0
LINE
8
Layer 1
10
20.381667
20
83.542372
11
19.586597
21
83.001300
0
LINE
8
Layer 1
10
19.586597
20
83.001300
11
18.624840
21
82.801540
0
LINE
8
Layer 1
10
18.624840
20
82.801540
11
17.638606
21
83.001300
0
LINE
8
Layer 1
10
17.638606
20
83.001300
11
16.830965
21
83.542372
0
LINE
8
Layer 1
10
16.830965
20
83.542372
11
16.285262
21
84.337443
0
LINE
8
Layer 1
10
16.285262
20
84.337443
11
16.084840
21
85.299200
0
LINE
8
Layer 1
10
16.084840
20
85.299200
11
16.285262
21
86.285434
0
LINE
8
Layer 1
10
16.285262
20
86.285434
11
16.830965
21
87.093075
0
LINE
8
Layer 1
10
16.830965
20
87.093075
11
17.638606
21
87.638778
0
LINE
8
Layer 1
10
17.638606
20
87.638778
11
18.624840
21
87.839200
0
LINE
8
Layer 1
10
18.624840
20
87.839200
11
19.586597
21
87.638778
0
LINE
8
Layer 1
10
19.586597
20
87.638778
11
20.381668
21
87.093075
0
LINE
8
Layer 1
10
20.381668
20
87.093075
11
20.922740
21
86.285434
0
LINE
8
Layer 1
10
20.922740
20
86.285434
11
21.122500
21
85.299200
0
LINE
8
Layer 1
10
21.122500
20
85.299200
11
21.122500
21
85.299200
0
LINE
8
Layer 1
10
29.377500
20
27.683600
11
29.177740
21
26.721843
0
LINE
8
Layer 1
10
29.177740
20
26.721843
11
28.636668
21
25.926772
0
LINE
8
Layer 1
10
28.636668
20
25.926772
11
27.841597
21
25.385700
0
LINE
8
Layer 1
10
27.841597
20
25.385700
11
26.879840
21
25.185940
0
LINE
8
Layer 1
10
26.879840
20
25.185940
11
25.893606
21
25.385700
0
LINE
8
Layer 1
10
25.893606
20
25.385700
11
25.085965
21
25.926772
0
LINE
8
Layer 1
10
25.085965
20
25.926772
11
24.540262
21
26.721843
0
LINE
8
Layer 1
10
24.540262
20
26.721843
11
24.339840
21
27.683600
0
LINE
8
Layer 1
10
24.339840
20
27.683600
11
24.540262
21
28.669834
0
LINE
8
Layer 1
10
24.540262
20
28.669834
11
25.085965
21
29.477475
0
LINE
8
Layer 1
10
25.085965
20
29.477475
11
25.893606
21
30.023178
0
LINE
8
Layer 1
10
25.893606
20
30.023178
11
26.879840
21
30.223600
0
LINE
8
Layer 1
10
26.879840
20
30.223600
11
27.841597
21
30.023178
0
LINE
8
Layer 1
10
27.841597
20
30.023178
11
28.636668
21
29.477475
0
LINE
8
Layer 1
10
28.636668
20
29.477475
11
29.177740
21
28.669834
0
LINE
8
Layer 1
10
29.177740
20
28.669834
11
29.377500
21
27.683600
0
LINE
8
Layer 1
10
29.377500
20
27.683600
11
29.377500
21
27.683600
0
LINE
8
Layer 1
10
80.939400
20
11.300600
11
80.739640
21
10.338843
0
LINE
8
Layer 1
10
80.739640
20
10.338843
11
80.198567
21
9.543772
0
LINE
8
Layer 1
10
80.198567
20
9.543772
11
79.403497
21
9.002700
0
LINE
8
Layer 1
10
79.403497
20
9.002700
11
78.441740
21
8.802940
0
LINE
8
Layer 1
10
78.441740
20
8.802940
11
77.455506
21
9.002700
0
LINE
8
Layer 1
10
77.455506
20
9.002700
11
76.647865
21
9.543772
0
LINE
8
Layer 1
10
76.647865
20
9.543772
11
76.102162
21
10.338843
0
LINE
8
Layer 1
10
76.102162
20
10.338843
11
75.901740
21
11.300600
0
LINE
8
Layer 1
10
75.901740
20
11.300600
11
76.102162
21
12.286834
0
LINE
8
Layer 1
10
76.102162
20
12.286834
11
76.647865
21
13.094475
0
LINE
8
Layer 1
10
76.647865
20
13.094475
11
77.455506
21
13.640178
0
LINE
8
Layer 1
10
77.455506
20
13.640178
11
78.441740
21
13.840600
0
LINE
8
Layer 1
10
78.441740
20
13.840600
11
79.403497
21
13.640178
0
LINE
8
Layer 1
10
79.403497
20
13.640178
11
80.198567
21
13.094475
0
LINE
8
Layer 1
10
80.198567
20
13.094475
11
80.739640
21
12.286834
0
LINE
8
Layer 1
10
80.739640
20
12.286834
11
80.939400
21
11.300600
0
LINE
8
Layer 1
10
80.939400
20
11.300600
11
80.939400
21
11.300600
0
LINE
8
Layer 1
10
217.803000
20
85.341600
11
217.603240
21
84.379843
0
LINE
8
Layer 1
10
217.603240
20
84.379843
11
217.062167
21
83.584773
0
LINE
8
Layer 1
10
217.062167
20
83.584773
11
216.267097
21
83.043700
0
LINE
8
Layer 1
10
216.267097
20
83.043700
11
215.305340
21
82.843940
0
LINE
8
Layer 1
10
215.305340
20
82.843940
11
214.319106
21
83.043700
0
LINE
8
Layer 1
10
214.319106
20
83.043700
11
213.511465
21
83.584773
0
LINE
8
Layer 1
10
213.511465
20
83.584773
11
212.965762
21
84.379843
0
LINE
8
Layer 1
10
212.965762
20
84.379843
11
212.765340
21
85.341600
0
LINE
8
Layer 1
10
212.765340
20
85.341600
11
212.965762
21
86.327834
0
LINE
8
Layer 1
10
212.965762
20
86.327834
11
213.511465
21
87.135475
0
LINE
8
Layer 1
10
213.511465
20
87.135475
11
214.319106
21
87.681178
0
LINE
8
Layer 1
10
214.319106
20
87.681178
11
215.305340
21
87.881600
0
LINE
8
Layer 1
10
215.305340
20
87.881600
11
216.267097
21
87.681178
0
LINE
8
Layer 1
10
216.267097
20
87.681178
11
217.062167
21
87.135475
0
LINE
8
Layer 1
10
217.062167
20
87.135475
11
217.603240
21
86.327834
0
LINE
8
Layer 1
10
217.603240
20
86.327834
11
217.803000
21
85.341600
0
LINE
8
Layer 1
10
217.803000
20
85.341600
11
217.803000
21
85.341600
0
LINE
8
Layer 1
10
158.364000
20
11.300600
11
158.164240
21
10.338843
0
LINE
8
Layer 1
10
158.164240
20
10.338843
11
157.623168
21
9.543772
0
LINE
8
Layer 1
10
157.623168
20
9.543772
11
156.828097
21
9.002700
0
LINE
8
Layer 1
10
156.828097
20
9.002700
11
155.866340
21
8.802940
0
LINE
8
Layer 1
10
155.866340
20
8.802940
11
154.880106
21
9.002700
0
LINE
8
Layer 1
10
154.880106
20
9.002700
11
154.072465
21
9.543772
0
LINE
8
Layer 1
10
154.072465
20
9.543772
11
153.526762
21
10.338843
0
LINE
8
Layer 1
10
153.526762
20
10.338843
11
153.326340
21
11.300600
0
LINE
8
Layer 1
10
153.326340
20
11.300600
11
153.526762
21
12.286834
0
LINE
8
Layer 1
10
153.526762
20
12.286834
11
154.072465
21
13.094475
0
LINE
8
Layer 1
10
154.072465
20
13.094475
11
154.880106
21
13.640178
0
LINE
8
Layer 1
10
154.880106
20
13.640178
11
155.866340
21
13.840600
0
LINE
8
Layer 1
10
155.866340
20
13.840600
11
156.828097
21
13.640178
0
LINE
8
Layer 1
10
156.828097
20
13.640178
11
157.623168
21
13.094475
0
LINE
8
Layer 1
10
157.623168
20
13.094475
11
158.164240
21
12.286834
0
LINE
8
Layer 1
10
158.164240
20
12.286834
11
158.364000
21
11.300600
0
LINE
8
Layer 1
10
158.364000
20
11.300600
11
158.364000
21
11.300600
0
LINE
8
Layer 1
10
131.909000
20
83.944600
11
131.709240
21
82.982843
0
LINE
8
Layer 1
10
131.709240
20
82.982843
11
131.168167
21
82.187772
0
LINE
8
Layer 1
10
131.168167
20
82.187772
11
130.373097
21
81.646700
0
LINE
8
Layer 1
10
130.373097
20
81.646700
11
129.411340
21
81.446940
0
LINE
8
Layer 1
10
129.411340
20
81.446940
11
128.425106
21
81.646700
0
LINE
8
Layer 1
10
128.425106
20
81.646700
11
127.617465
21
82.187772
0
LINE
8
Layer 1
10
127.617465
20
82.187772
11
127.071762
21
82.982843
0
LINE
8
Layer 1
10
127.071762
20
82.982843
11
126.871340
21
83.944600
0
LINE
8
Layer 1
10
126.871340
20
83.944600
11
127.071762
21
84.930834
0
LINE
8
Layer 1
10
127.071762
20
84.930834
11
127.617465
21
85.738475
0
LINE
8
Layer 1
10
127.617465
20
85.738475
11
128.425106
21
86.284178
0
LINE
8
Layer 1
10
128.425106
20
86.284178
11
129.411340
21
86.484600
0
LINE
8
Layer 1
10
129.411340
20
86.484600
11
130.373097
21
86.284178
0
LINE
8
Layer 1
10
130.373097
20
86.284178
11
131.168167
21
85.738475
0
LINE
8
Layer 1
10
131.168167
20
85.738475
11
131.709240
21
84.930834
0
LINE
8
Layer 1
10
131.709240
20
84.930834
11
131.909000
21
83.944600
0
LINE
8
Layer 1
10
131.909000
20
83.944600
11
131.909000
21
83.944600
0
LINE
8
Layer 1
10
209.548000
20
27.725900
11
209.348240
21
26.764143
0
LINE
8
Layer 1
10
209.348240
20
26.764143
11
208.807167
21
25.969072
0
LINE
8
Layer 1
10
208.807167
20
25.969072
11
208.012097
21
25.428000
0
LINE
8
Layer 1
10
208.012097
20
25.428000
11
207.050340
21
25.228240
0
LINE
8
Layer 1
10
207.050340
20
25.228240
11
206.064106
21
25.428000
0
LINE
8
Layer 1
10
206.064106
20
25.428000
11
205.256465
21
25.969072
0
LINE
8
Layer 1
10
205.256465
20
25.969072
11
204.710762
21
26.764143
0
LINE
8
Layer 1
10
204.710762
20
26.764143
11
204.510340
21
27.725900
0
LINE
8
Layer 1
10
204.510340
20
27.725900
11
204.710762
21
28.712134
0
LINE
8
Layer 1
10
204.710762
20
28.712134
11
205.256465
21
29.519775
0
LINE
8
Layer 1
10
205.256465
20
29.519775
11
206.064106
21
30.065478
0
LINE
8
Layer 1
10
206.064106
20
30.065478
11
207.050340
21
30.265900
0
LINE
8
Layer 1
10
207.050340
20
30.265900
11
208.012097
21
30.065478
0
LINE
8
Layer 1
10
208.012097
20
30.065478
11
208.807167
21
29.519775
0
LINE
8
Layer 1
10
208.807167
20
29.519775
11
209.348240
21
28.712134
0
LINE
8
Layer 1
10
209.348240
20
28.712134
11
209.548000
21
27.725900
0
LINE
8
Layer 1
10
209.548000
20
27.725900
11
209.548000
21
27.725900
0
LINE
8
Layer 1
10
101.961000
20
78.849600
11
101.135567
21
78.683773
0
LINE
8
Layer 1
10
101.135567
20
78.683773
11
100.462929
21
78.231005
0
LINE
8
Layer 1
10
100.462929
20
78.231005
11
100.010159
21
77.558367
0
LINE
8
Layer 1
10
100.010159
20
77.558367
11
99.844330
21
76.732930
0
LINE
8
Layer 1
10
99.844330
20
76.732930
11
99.844400
21
45.823700
0
LINE
8
Layer 1
10
99.844400
20
45.823700
11
99.500700
21
45.823700
0
LINE
8
Layer 1
10
99.500700
20
45.823700
11
99.032748
21
45.729698
0
LINE
8
Layer 1
10
99.032748
20
45.729698
11
98.651435
21
45.473035
0
LINE
8
Layer 1
10
98.651435
20
45.473035
11
98.394772
21
45.091722
0
LINE
8
Layer 1
10
98.394772
20
45.091722
11
98.300770
21
44.623770
0
LINE
8
Layer 1
10
98.300770
20
44.623770
11
98.300800
21
34.418700
0
LINE
8
Layer 1
10
98.300800
20
34.418700
11
98.394801
21
33.950669
0
LINE
8
Layer 1
10
98.394801
20
33.950669
11
98.651464
21
33.569180
0
LINE
8
Layer 1
10
98.651464
20
33.569180
11
99.032777
21
33.312341
0
LINE
8
Layer 1
10
99.032777
20
33.312341
11
99.500730
21
33.218260
0
LINE
8
Layer 1
10
99.500730
20
33.218260
11
99.844400
21
33.218300
0
LINE
8
Layer 1
10
99.844400
20
33.218300
11
99.844400
21
26.759200
0
LINE
8
Layer 1
10
99.844400
20
26.759200
11
100.010228
21
25.933767
0
LINE
8
Layer 1
10
100.010228
20
25.933767
11
100.462997
21
25.261129
0
LINE
8
Layer 1
10
100.462997
20
25.261129
11
101.135635
21
24.808359
0
LINE
8
Layer 1
10
101.135635
20
24.808359
11
101.961070
21
24.642530
0
LINE
8
Layer 1
10
101.961070
20
24.642530
11
131.868000
21
24.642600
0
LINE
8
Layer 1
10
131.868000
20
24.642600
11
132.693433
21
24.808429
0
LINE
8
Layer 1
10
132.693433
20
24.808429
11
133.366071
21
25.261199
0
LINE
8
Layer 1
10
133.366071
20
25.261199
11
133.818841
21
25.933837
0
LINE
8
Layer 1
10
133.818841
20
25.933837
11
133.984670
21
26.759270
0
LINE
8
Layer 1
10
133.984670
20
26.759270
11
133.984000
21
33.218300
0
LINE
8
Layer 1
10
133.984000
20
33.218300
11
134.087000
21
33.218300
0
LINE
8
Layer 1
10
134.087000
20
33.218300
11
134.555031
21
33.312381
0
LINE
8
Layer 1
10
134.555031
20
33.312381
11
134.936520
21
33.569220
0
LINE
8
Layer 1
10
134.936520
20
33.569220
11
135.193359
21
33.950709
0
LINE
8
Layer 1
10
135.193359
20
33.950709
11
135.287440
21
34.418740
0
LINE
8
Layer 1
10
135.287440
20
34.418740
11
135.288000
21
44.623800
0
LINE
8
Layer 1
10
135.288000
20
44.623800
11
135.193918
21
45.091752
0
LINE
8
Layer 1
10
135.193918
20
45.091752
11
134.937078
21
45.473065
0
LINE
8
Layer 1
10
134.937078
20
45.473065
11
134.555589
21
45.729728
0
LINE
8
Layer 1
10
134.555589
20
45.729728
11
134.087560
21
45.823730
0
LINE
8
Layer 1
10
134.087560
20
45.823730
11
133.984000
21
45.823700
0
LINE
8
Layer 1
10
133.984000
20
45.823700
11
133.984000
21
76.732900
0
LINE
8
Layer 1
10
133.984000
20
76.732900
11
133.818172
21
77.558337
0
LINE
8
Layer 1
10
133.818172
20
77.558337
11
133.365403
21
78.230975
0
LINE
8
Layer 1
10
133.365403
20
78.230975
11
132.692765
21
78.683743
0
LINE
8
Layer 1
10
132.692765
20
78.683743
11
131.867330
21
78.849570
0
LINE
8
Layer 1
10
131.867330
20
78.849570
11
101.961000
21
78.849600
0
LINE
8
Layer 1
10
4.567260
20
80.052500
11
20.067300
21
80.052500
0
LINE
8
Layer 1
10
20.067300
20
80.052500
11
20.067300
21
64.552500
0
LINE
8
Layer 1
10
20.067300
20
64.552500
11
4.567260
21
64.552500
0
LINE
8
Layer 1
10
4.567260
20
64.552500
11
4.567260
21
80.052500
0
LINE
8
Layer 1
10
4.567260
20
61.002500
11
20.067300
21
61.002500
0
LINE
8
Layer 1
10
20.067300
20
61.002500
11
20.067300
21
45.502500
0
LINE
8
Layer 1
10
20.067300
20
45.502500
11
4.567260
21
45.502500
0
LINE
8
Layer 1
10
4.567260
20
45.502500
11
4.567260
21
61.002500
0
LINE
8
Layer 1
10
4.567260
20
41.952500
11
20.067300
21
41.952500
0
LINE
8
Layer 1
10
20.067300
20
41.952500
11
20.067300
21
26.452500
0
LINE
8
Layer 1
10
20.067300
20
26.452500
11
4.567260
21
26.452500
0
LINE
8
Layer 1
10
4.567260
20
26.452500
11
4.567260
21
41.952500
0
LINE
8
Layer 1
10
23.617300
20
48.704700
11
39.117300
21
48.704700
0
LINE
8
Layer 1
10
39.117300
20
48.704700
11
39.117300
21
33.204700
0
LINE
8
Layer 1
10
39.117300
20
33.204700
11
23.617300
21
33.204700
0
LINE
8
Layer 1
10
23.617300
20
33.204700
11
23.617300
21
48.704700
0
LINE
8
Layer 1
10
23.617300
20
67.754700
11
39.117300
21
67.754700
0
LINE
8
Layer 1
10
39.117300
20
67.754700
11
39.117300
21
52.254700
0
LINE
8
Layer 1
10
39.117300
20
52.254700
11
23.617300
21
52.254700
0
LINE
8
Layer 1
10
23.617300
20
52.254700
11
23.617300
21
67.754700
0
LINE
8
Layer 1
10
23.617300
20
86.804700
11
39.117300
21
86.804700
0
LINE
8
Layer 1
10
39.117300
20
86.804700
11
39.117300
21
71.304700
0
LINE
8
Layer 1
10
39.117300
20
71.304700
11
23.617300
21
71.304700
0
LINE
8
Layer 1
10
23.617300
20
71.304700
11
23.617300
21
86.804700
0
LINE
8
Layer 1
10
42.667300
20
86.804700
11
58.167300
21
86.804700
0
LINE
8
Layer 1
10
58.167300
20
86.804700
11
58.167300
21
71.304700
0
LINE
8
Layer 1
10
58.167300
20
71.304700
11
42.667300
21
71.304700
0
LINE
8
Layer 1
10
42.667300
20
71.304700
11
42.667300
21
86.804700
0
LINE
8
Layer 1
10
42.667300
20
67.754700
11
58.167300
21
67.754700
0
LINE
8
Layer 1
10
58.167300
20
67.754700
11
58.167300
21
52.254700
0
LINE
8
Layer 1
10
58.167300
20
52.254700
11
42.667300
21
52.254700
0
LINE
8
Layer 1
10
42.667300
20
52.254700
11
42.667300
21
67.754700
0
LINE
8
Layer 1
10
42.667300
20
48.704700
11
58.167300
21
48.704700
0
LINE
8
Layer 1
10
58.167300
20
48.704700
11
58.167300
21
33.204700
0
LINE
8
Layer 1
10
58.167300
20
33.204700
11
42.667300
21
33.204700
0
LINE
8
Layer 1
10
42.667300
20
33.204700
11
42.667300
21
48.704700
0
LINE
8
Layer 1
10
61.717300
20
86.804700
11
77.217300
21
86.804700
0
LINE
8
Layer 1
10
77.217300
20
86.804700
11
77.217300
21
71.304700
0
LINE
8
Layer 1
10
77.217300
20
71.304700
11
61.717300
21
71.304700
0
LINE
8
Layer 1
10
61.717300
20
71.304700
11
61.717300
21
86.804700
0
LINE
8
Layer 1
10
61.717300
20
67.754700
11
77.217300
21
67.754700
0
LINE
8
Layer 1
10
77.217300
20
67.754700
11
77.217300
21
52.254700
0
LINE
8
Layer 1
10
77.217300
20
52.254700
11
61.717300
21
52.254700
0
LINE
8
Layer 1
10
61.717300
20
52.254700
11
61.717300
21
67.754700
0
LINE
8
Layer 1
10
61.717300
20
48.704700
11
77.217300
21
48.704700
0
LINE
8
Layer 1
10
77.217300
20
48.704700
11
77.217300
21
33.204700
0
LINE
8
Layer 1
10
77.217300
20
33.204700
11
61.717300
21
33.204700
0
LINE
8
Layer 1
10
61.717300
20
33.204700
11
61.717300
21
48.704700
0
LINE
8
Layer 1
10
80.767300
20
86.804700
11
96.267300
21
86.804700
0
LINE
8
Layer 1
10
96.267300
20
86.804700
11
96.267300
21
71.304700
0
LINE
8
Layer 1
10
96.267300
20
71.304700
11
80.767300
21
71.304700
0
LINE
8
Layer 1
10
80.767300
20
71.304700
11
80.767300
21
86.804700
0
LINE
8
Layer 1
10
80.767300
20
67.754700
11
96.267300
21
67.754700
0
LINE
8
Layer 1
10
96.267300
20
67.754700
11
96.267300
21
52.254700
0
LINE
8
Layer 1
10
96.267300
20
52.254700
11
80.767300
21
52.254700
0
LINE
8
Layer 1
10
80.767300
20
52.254700
11
80.767300
21
67.754700
0
LINE
8
Layer 1
10
80.767300
20
48.704700
11
96.267300
21
48.704700
0
LINE
8
Layer 1
10
96.267300
20
48.704700
11
96.267300
21
33.204700
0
LINE
8
Layer 1
10
96.267300
20
33.204700
11
80.767300
21
33.204700
0
LINE
8
Layer 1
10
80.767300
20
33.204700
11
80.767300
21
48.704700
0
LINE
8
Layer 1
10
61.696100
20
29.675800
11
77.196100
21
29.675800
0
LINE
8
Layer 1
10
77.196100
20
29.675800
11
77.196100
21
14.175800
0
LINE
8
Layer 1
10
77.196100
20
14.175800
11
61.696100
21
14.175800
0
LINE
8
Layer 1
10
61.696100
20
14.175800
11
61.696100
21
29.675800
0
LINE
8
Layer 1
10
80.788400
20
27.368700
11
96.288400
21
27.368700
0
LINE
8
Layer 1
10
96.288400
20
27.368700
11
96.288400
21
11.868700
0
LINE
8
Layer 1
10
96.288400
20
11.868700
11
80.788400
21
11.868700
0
LINE
8
Layer 1
10
80.788400
20
11.868700
11
80.788400
21
27.368700
0
LINE
8
Layer 1
10
99.880800
20
22.288700
11
115.381000
21
22.288700
0
LINE
8
Layer 1
10
115.381000
20
22.288700
11
115.381000
21
6.788700
0
LINE
8
Layer 1
10
115.381000
20
6.788700
11
99.880800
21
6.788700
0
LINE
8
Layer 1
10
99.880800
20
6.788700
11
99.880800
21
22.288700
0
LINE
8
Layer 1
10
118.910000
20
22.288700
11
134.410000
21
22.288700
0
LINE
8
Layer 1
10
134.410000
20
22.288700
11
134.410000
21
6.788700
0
LINE
8
Layer 1
10
134.410000
20
6.788700
11
118.910000
21
6.788700
0
LINE
8
Layer 1
10
118.910000
20
6.788700
11
118.910000
21
22.288700
0
LINE
8
Layer 1
10
137.960000
20
27.368700
11
153.460000
21
27.368700
0
LINE
8
Layer 1
10
153.460000
20
27.368700
11
153.460000
21
11.868700
0
LINE
8
Layer 1
10
153.460000
20
11.868700
11
137.960000
21
11.868700
0
LINE
8
Layer 1
10
137.960000
20
11.868700
11
137.960000
21
27.368700
0
LINE
8
Layer 1
10
137.960000
20
48.704700
11
153.460000
21
48.704700
0
LINE
8
Layer 1
10
153.460000
20
48.704700
11
153.460000
21
33.204700
0
LINE
8
Layer 1
10
153.460000
20
33.204700
11
137.960000
21
33.204700
0
LINE
8
Layer 1
10
137.960000
20
33.204700
11
137.960000
21
48.704700
0
LINE
8
Layer 1
10
137.960000
20
67.754700
11
153.460000
21
67.754700
0
LINE
8
Layer 1
10
153.460000
20
67.754700
11
153.460000
21
52.254700
0
LINE
8
Layer 1
10
153.460000
20
52.254700
11
137.960000
21
52.254700
0
LINE
8
Layer 1
10
137.960000
20
52.254700
11
137.960000
21
67.754700
0
LINE
8
Layer 1
10
137.960000
20
86.804700
11
153.460000
21
86.804700
0
LINE
8
Layer 1
10
153.460000
20
86.804700
11
153.460000
21
71.304700
0
LINE
8
Layer 1
10
153.460000
20
71.304700
11
137.960000
21
71.304700
0
LINE
8
Layer 1
10
137.960000
20
71.304700
11
137.960000
21
86.804700
0
LINE
8
Layer 1
10
157.010000
20
86.804700
11
172.510000
21
86.804700
0
LINE
8
Layer 1
10
172.510000
20
86.804700
11
172.510000
21
71.304700
0
LINE
8
Layer 1
10
172.510000
20
71.304700
11
157.010000
21
71.304700
0
LINE
8
Layer 1
10
157.010000
20
71.304700
11
157.010000
21
86.804700
0
LINE
8
Layer 1
10
157.010000
20
67.754700
11
172.510000
21
67.754700
0
LINE
8
Layer 1
10
172.510000
20
67.754700
11
172.510000
21
52.254700
0
LINE
8
Layer 1
10
172.510000
20
52.254700
11
157.010000
21
52.254700
0
LINE
8
Layer 1
10
157.010000
20
52.254700
11
157.010000
21
67.754700
0
LINE
8
Layer 1
10
156.999000
20
48.704700
11
172.499000
21
48.704700
0
LINE
8
Layer 1
10
172.499000
20
48.704700
11
172.499000
21
33.204700
0
LINE
8
Layer 1
10
172.499000
20
33.204700
11
156.999000
21
33.204700
0
LINE
8
Layer 1
10
156.999000
20
33.204700
11
156.999000
21
48.704700
0
LINE
8
Layer 1
10
157.031000
20
29.675800
11
172.531000
21
29.675800
0
LINE
8
Layer 1
10
172.531000
20
29.675800
11
172.531000
21
14.175800
0
LINE
8
Layer 1
10
172.531000
20
14.175800
11
157.031000
21
14.175800
0
LINE
8
Layer 1
10
157.031000
20
14.175800
11
157.031000
21
29.675800
0
LINE
8
Layer 1
10
176.065000
20
86.805200
11
191.565000
21
86.805200
0
LINE
8
Layer 1
10
191.565000
20
86.805200
11
191.565000
21
71.305200
0
LINE
8
Layer 1
10
191.565000
20
71.305200
11
176.065000
21
71.305200
0
LINE
8
Layer 1
10
176.065000
20
71.305200
11
176.065000
21
86.805200
0
LINE
8
Layer 1
10
176.065000
20
67.755200
11
191.565000
21
67.755200
0
LINE
8
Layer 1
10
191.565000
20
67.755200
11
191.565000
21
52.255200
0
LINE
8
Layer 1
10
191.565000
20
52.255200
11
176.065000
21
52.255200
0
LINE
8
Layer 1
10
176.065000
20
52.255200
11
176.065000
21
67.755200
0
LINE
8
Layer 1
10
176.054000
20
48.705200
11
191.554000
21
48.705200
0
LINE
8
Layer 1
10
191.554000
20
48.705200
11
191.554000
21
33.205200
0
LINE
8
Layer 1
10
191.554000
20
33.205200
11
176.054000
21
33.205200
0
LINE
8
Layer 1
10
176.054000
20
33.205200
11
176.054000
21
48.705200
0
LINE
8
Layer 1
10
195.115000
20
86.805200
11
210.615000
21
86.805200
0
LINE
8
Layer 1
10
210.615000
20
86.805200
11
210.615000
21
71.305200
0
LINE
8
Layer 1
10
210.615000
20
71.305200
11
195.115000
21
71.305200
0
LINE
8
Layer 1
10
195.115000
20
71.305200
11
195.115000
21
86.805200
0
LINE
8
Layer 1
10
195.115000
20
67.755200
11
210.615000
21
67.755200
0
LINE
8
Layer 1
10
210.615000
20
67.755200
11
210.615000
21
52.255200
0
LINE
8
Layer 1
10
210.615000
20
52.255200
11
195.115000
21
52.255200
0
LINE
8
Layer 1
10
195.115000
20
52.255200
11
195.115000
21
67.755200
0
LINE
8
Layer 1
10
195.104000
20
48.705200
11
210.604000
21
48.705200
0
LINE
8
Layer 1
10
210.604000
20
48.705200
11
210.604000
21
33.205200
0
LINE
8
Layer 1
10
210.604000
20
33.205200
11
195.104000
21
33.205200
0
LINE
8
Layer 1
10
195.104000
20
33.205200
11
195.104000
21
48.705200
0
LINE
8
Layer 1
10
214.144000
20
80.031200
11
229.644000
21
80.031200
0
LINE
8
Layer 1
10
229.644000
20
80.031200
11
229.644000
21
64.531200
0
LINE
8
Layer 1
10
229.644000
20
64.531200
11
214.144000
21
64.531200
0
LINE
8
Layer 1
10
214.144000
20
64.531200
11
214.144000
21
80.031200
0
LINE
8
Layer 1
10
214.144000
20
60.981200
11
229.644000
21
60.981200
0
LINE
8
Layer 1
10
229.644000
20
60.981200
11
229.644000
21
45.481200
0
LINE
8
Layer 1
10
229.644000
20
45.481200
11
214.144000
21
45.481200
0
LINE
8
Layer 1
10
214.144000
20
45.481200
11
214.144000
21
60.981200
0
LINE
8
Layer 1
10
214.133000
20
41.931200
11
229.633000
21
41.931200
0
LINE
8
Layer 1
10
229.633000
20
41.931200
11
229.633000
21
26.431200
0
LINE
8
Layer 1
10
229.633000
20
26.431200
11
214.133000
21
26.431200
0
LINE
8
Layer 1
10
214.133000
20
26.431200
11
214.133000
21
41.931200
0
LINE
8
Layer 1
10
123.378000
20
82.374600
11
123.378000
21
90.540800
0
LINE
8
Layer 1
10
123.378000
20
90.540800
11
122.319650
21
90.553905
0
LINE
8
Layer 1
10
122.319650
20
90.553905
11
122.320000
21
91.564100
0
LINE
8
Layer 1
10
240.729000
20
80.562900
11
270.636000
21
80.562900
0
LINE
8
Layer 1
10
270.636000
20
80.562900
11
271.461431
21
80.397073
0
LINE
8
Layer 1
10
271.461431
20
80.397073
11
272.134066
21
79.944305
0
LINE
8
Layer 1
10
272.134066
20
79.944305
11
272.586833
21
79.271668
0
LINE
8
Layer 1
10
272.586833
20
79.271668
11
272.752660
21
78.446230
0
LINE
8
Layer 1
10
272.752660
20
78.446230
11
272.753000
21
28.472600
0
LINE
8
Layer 1
10
272.753000
20
28.472600
11
272.587173
21
27.647167
0
LINE
8
Layer 1
10
272.587173
20
27.647167
11
272.134405
21
26.974529
0
LINE
8
Layer 1
10
272.134405
20
26.974529
11
271.461771
21
26.521759
0
LINE
8
Layer 1
10
271.461771
20
26.521759
11
270.636340
21
26.355930
0
LINE
8
Layer 1
10
270.636340
20
26.355930
11
240.729000
21
26.355900
0
LINE
8
Layer 1
10
240.729000
20
26.355900
11
239.903563
21
26.521728
0
LINE
8
Layer 1
10
239.903563
20
26.521728
11
239.230925
21
26.974498
0
LINE
8
Layer 1
10
239.230925
20
26.974498
11
238.778157
21
27.647136
0
LINE
8
Layer 1
10
238.778157
20
27.647136
11
238.612330
21
28.472570
0
LINE
8
Layer 1
10
238.612330
20
28.472570
11
238.612000
21
78.446200
0
LINE
8
Layer 1
10
238.612000
20
78.446200
11
238.777827
21
79.271637
0
LINE
8
Layer 1
10
238.777827
20
79.271637
11
239.230595
21
79.944275
0
LINE
8
Layer 1
10
239.230595
20
79.944275
11
239.903232
21
80.397043
0
LINE
8
Layer 1
10
239.903232
20
80.397043
11
240.728670
21
80.562870
0
LINE
8
Layer 1
10
240.728670
20
80.562870
11
240.729000
21
80.562900
0
LINE
8
Layer 1
10
247.127000
20
78.969000
11
247.127000
21
74.661800
0
LINE
8
Layer 1
10
247.127000
20
74.661800
11
244.481170
21
73.074300
0
LINE
8
Layer 1
10
244.481170
20
73.074300
11
241.265000
21
73.074300
0
LINE
8
Layer 1
10
241.265000
20
73.074300
11
241.356101
21
61.830562
0
LINE
8
Layer 1
10
241.356101
20
61.830562
11
241.305309
21
27.940200
0
LINE
8
Layer 1
10
241.305309
20
27.940200
11
270.059000
21
27.940100
0
LINE
8
Layer 1
10
270.059000
20
27.940100
11
270.087416
21
73.074200
0
LINE
8
Layer 1
10
270.087416
20
73.074200
11
266.355000
21
73.074300
0
LINE
8
Layer 1
10
266.355000
20
73.074300
11
264.238340
21
74.661800
0
LINE
8
Layer 1
10
264.238340
20
74.661800
11
264.239000
21
78.969000
0
LINE
8
Layer 1
10
264.239000
20
78.969000
11
247.127000
21
78.969000
0
LINE
8
Layer 1
10
245.256000
20
76.238200
11
245.094879
21
75.428189
0
LINE
8
Layer 1
10
245.094879
20
75.428189
11
244.636045
21
74.741495
0
LINE
8
Layer 1
10
244.636045
20
74.741495
11
243.949351
21
74.282661
0
LINE
8
Layer 1
10
243.949351
20
74.282661
11
243.139340
21
74.121540
0
LINE
8
Layer 1
10
243.139340
20
74.121540
11
242.329329
21
74.282661
0
LINE
8
Layer 1
10
242.329329
20
74.282661
11
241.642635
21
74.741495
0
LINE
8
Layer 1
10
241.642635
20
74.741495
11
241.183801
21
75.428189
0
LINE
8
Layer 1
10
241.183801
20
75.428189
11
241.022680
21
76.238200
0
LINE
8
Layer 1
10
241.022680
20
76.238200
11
241.183801
21
77.048211
0
LINE
8
Layer 1
10
241.183801
20
77.048211
11
241.642635
21
77.734905
0
LINE
8
Layer 1
10
241.642635
20
77.734905
11
242.329329
21
78.193739
0
LINE
8
Layer 1
10
242.329329
20
78.193739
11
243.139340
21
78.354860
0
LINE
8
Layer 1
10
243.139340
20
78.354860
11
243.949351
21
78.193739
0
LINE
8
Layer 1
10
243.949351
20
78.193739
11
244.636045
21
77.734905
0
LINE
8
Layer 1
10
244.636045
20
77.734905
11
245.094879
21
77.048211
0
LINE
8
Layer 1
10
245.094879
20
77.048211
11
245.256000
21
76.238200
0
LINE
8
Layer 1
10
245.256000
20
76.238200
11
245.256000
21
76.238200
0
LINE
8
Layer 1
10
270.360000
20
76.280500
11
270.198879
21
75.470489
0
LINE
8
Layer 1
10
270.198879
20
75.470489
11
269.740045
21
74.783795
0
LINE
8
Layer 1
10
269.740045
20
74.783795
11
269.053351
21
74.324961
0
LINE
8
Layer 1
10
269.053351
20
74.324961
11
268.243340
21
74.163840
0
LINE
8
Layer 1
10
268.243340
20
74.163840
11
267.433329
21
74.324961
0
LINE
8
Layer 1
10
267.433329
20
74.324961
11
266.746635
21
74.783795
0
LINE
8
Layer 1
10
266.746635
20
74.783795
11
266.287801
21
75.470489
0
LINE
8
Layer 1
10
266.287801
20
75.470489
11
266.126680
21
76.280500
0
LINE
8
Layer 1
10
266.126680
20
76.280500
11
266.287801
21
77.090511
0
LINE
8
Layer 1
10
266.287801
20
77.090511
11
266.746635
21
77.777205
0
LINE
8
Layer 1
10
266.746635
20
77.777205
11
267.433329
21
78.236039
0
LINE
8
Layer 1
10
267.433329
20
78.236039
11
268.243340
21
78.397160
0
LINE
8
Layer 1
10
268.243340
20
78.397160
11
269.053351
21
78.236039
0
LINE
8
Layer 1
10
269.053351
20
78.236039
11
269.740045
21
77.777205
0
LINE
8
Layer 1
10
269.740045
20
77.777205
11
270.198879
21
77.090511
0
LINE
8
Layer 1
10
270.198879
20
77.090511
11
270.360000
21
76.280500
0
LINE
8
Layer 1
10
270.360000
20
76.280500
11
270.360000
21
76.280500
0
LINE
8
Layer 1
10
279.424000
20
80.562900
11
309.331000
21
80.562900
0
LINE
8
Layer 1
10
309.331000
20
80.562900
11
310.156431
21
80.397073
0
LINE
8
Layer 1
10
310.156431
20
80.397073
11
310.829066
21
79.944305
0
LINE
8
Layer 1
10
310.829066
20
79.944305
11
311.281833
21
79.271668
0
LINE
8
Layer 1
10
311.281833
20
79.271668
11
311.447660
21
78.446230
0
LINE
8
Layer 1
10
311.447660
20
78.446230
11
311.448000
21
28.472600
0
LINE
8
Layer 1
10
311.448000
20
28.472600
11
311.282173
21
27.647167
0
LINE
8
Layer 1
10
311.282173
20
27.647167
11
310.829406
21
26.974529
0
LINE
8
Layer 1
10
310.829406
20
26.974529
11
310.156771
21
26.521759
0
LINE
8
Layer 1
10
310.156771
20
26.521759
11
309.331340
21
26.355930
0
LINE
8
Layer 1
10
309.331340
20
26.355930
11
279.424000
21
26.355900
0
LINE
8
Layer 1
10
279.424000
20
26.355900
11
278.598563
21
26.521728
0
LINE
8
Layer 1
10
278.598563
20
26.521728
11
277.925925
21
26.974498
0
LINE
8
Layer 1
10
277.925925
20
26.974498
11
277.473157
21
27.647136
0
LINE
8
Layer 1
10
277.473157
20
27.647136
11
277.307330
21
28.472570
0
LINE
8
Layer 1
10
277.307330
20
28.472570
11
277.308000
21
78.446200
0
LINE
8
Layer 1
10
277.308000
20
78.446200
11
277.473827
21
79.271637
0
LINE
8
Layer 1
10
277.473827
20
79.271637
11
277.926595
21
79.944275
0
LINE
8
Layer 1
10
277.926595
20
79.944275
11
278.599232
21
80.397043
0
LINE
8
Layer 1
10
278.599232
20
80.397043
11
279.424670
21
80.562870
0
LINE
8
Layer 1
10
279.424670
20
80.562870
11
279.424000
21
80.562900
0
LINE
8
Layer 1
10
285.822000
20
78.969000
11
285.822000
21
74.661800
0
LINE
8
Layer 1
10
285.822000
20
74.661800
11
283.176170
21
73.074300
0
LINE
8
Layer 1
10
283.176170
20
73.074300
11
279.960000
21
73.074300
0
LINE
8
Layer 1
10
279.960000
20
73.074300
11
280.051101
21
61.830562
0
LINE
8
Layer 1
10
280.051101
20
61.830562
11
280.000309
21
27.940200
0
LINE
8
Layer 1
10
280.000309
20
27.940200
11
308.754000
21
27.940100
0
LINE
8
Layer 1
10
308.754000
20
27.940100
11
308.782416
21
73.074200
0
LINE
8
Layer 1
10
308.782416
20
73.074200
11
305.050000
21
73.074300
0
LINE
8
Layer 1
10
305.050000
20
73.074300
11
302.933340
21
74.661800
0
LINE
8
Layer 1
10
302.933340
20
74.661800
11
302.934000
21
78.969000
0
LINE
8
Layer 1
10
302.934000
20
78.969000
11
285.822000
21
78.969000
0
LINE
8
Layer 1
10
283.951000
20
76.238200
11
283.789879
21
75.428189
0
LINE
8
Layer 1
10
283.789879
20
75.428189
11
283.331045
21
74.741495
0
LINE
8
Layer 1
10
283.331045
20
74.741495
11
282.644351
21
74.282661
0
LINE
8
Layer 1
10
282.644351
20
74.282661
11
281.834340
21
74.121540
0
LINE
8
Layer 1
10
281.834340
20
74.121540
11
281.024329
21
74.282661
0
LINE
8
Layer 1
10
281.024329
20
74.282661
11
280.337635
21
74.741495
0
LINE
8
Layer 1
10
280.337635
20
74.741495
11
279.878801
21
75.428189
0
LINE
8
Layer 1
10
279.878801
20
75.428189
11
279.717680
21
76.238200
0
LINE
8
Layer 1
10
279.717680
20
76.238200
11
279.878801
21
77.048211
0
LINE
8
Layer 1
10
279.878801
20
77.048211
11
280.337635
21
77.734905
0
LINE
8
Layer 1
10
280.337635
20
77.734905
11
281.024329
21
78.193739
0
LINE
8
Layer 1
10
281.024329
20
78.193739
11
281.834340
21
78.354860
0
LINE
8
Layer 1
10
281.834340
20
78.354860
11
282.644351
21
78.193739
0
LINE
8
Layer 1
10
282.644351
20
78.193739
11
283.331045
21
77.734905
0
LINE
8
Layer 1
10
283.331045
20
77.734905
11
283.789879
21
77.048211
0
LINE
8
Layer 1
10
283.789879
20
77.048211
11
283.951000
21
76.238200
0
LINE
8
Layer 1
10
283.951000
20
76.238200
11
283.951000
21
76.238200
0
LINE
8
Layer 1
10
309.055000
20
76.280500
11
308.893879
21
75.470489
0
LINE
8
Layer 1
10
308.893879
20
75.470489
11
308.435045
21
74.783795
0
LINE
8
Layer 1
10
308.435045
20
74.783795
11
307.748351
21
74.324961
0
LINE
8
Layer 1
10
307.748351
20
74.324961
11
306.938340
21
74.163840
0
LINE
8
Layer 1
10
306.938340
20
74.163840
11
306.128329
21
74.324961
0
LINE
8
Layer 1
10
306.128329
20
74.324961
11
305.441635
21
74.783795
0
LINE
8
Layer 1
10
305.441635
20
74.783795
11
304.982801
21
75.470489
0
LINE
8
Layer 1
10
304.982801
20
75.470489
11
304.821680
21
76.280500
0
LINE
8
Layer 1
10
304.821680
20
76.280500
11
304.982801
21
77.090511
0
LINE
8
Layer 1
10
304.982801
20
77.090511
11
305.441635
21
77.777205
0
LINE
8
Layer 1
10
305.441635
20
77.777205
11
306.128329
21
78.236039
0
LINE
8
Layer 1
10
306.128329
20
78.236039
11
306.938340
21
78.397160
0
LINE
8
Layer 1
10
306.938340
20
78.397160
11
307.748351
21
78.236039
0
LINE
8
Layer 1
10
307.748351
20
78.236039
11
308.435045
21
77.777205
0
LINE
8
Layer 1
10
308.435045
20
77.777205
11
308.893879
21
77.090511
0
LINE
8
Layer 1
10
308.893879
20
77.090511
11
309.055000
21
76.280500
0
LINE
8
Layer 1
10
309.055000
20
76.280500
11
309.055000
21
76.280500
 0 
ENDSEC
 0 
EOF